<svg
        xmlns="http://www.w3.org/2000/svg"
        xmlns:xlink="http://www.w3.org/1999/xlink"
        width="44px" height="41px">
    <path fill-rule="evenodd"  fill="rgb(255, 255, 255)"
          d="M11.910,20.741 L11.910,18.768 L32.036,18.768 L32.036,20.741 L11.910,20.741 ZM11.910,16.399 L11.910,14.425 L32.036,14.425 L32.036,16.399 L11.910,16.399 ZM11.910,12.056 L11.910,10.083 L32.036,10.083 L32.036,12.056 L11.910,12.056 ZM0.350,15.066 C0.547,14.540 0.890,14.082 1.361,13.771 L5.390,10.886 L5.390,13.301 L2.532,15.354 C2.435,15.451 2.345,15.541 2.254,15.629 C1.948,16.063 2.092,16.659 2.521,16.958 L19.685,29.309 C21.080,30.278 22.924,30.312 24.312,29.310 L41.466,16.918 C41.563,16.821 41.654,16.732 41.744,16.643 C42.049,16.211 41.906,15.613 41.476,15.316 L38.607,13.253 L38.607,10.838 L42.641,13.726 C43.081,14.067 43.441,14.511 43.646,15.021 C43.883,15.445 44.000,15.892 44.000,16.377 L44.000,37.946 C44.000,38.959 43.437,39.911 42.572,40.464 C42.475,40.512 42.377,40.560 42.280,40.609 C41.874,40.809 41.466,40.910 41.011,40.910 L2.988,40.910 C2.533,40.910 2.125,40.809 1.719,40.609 C1.622,40.560 1.523,40.512 1.416,40.457 C0.563,39.910 -0.000,38.959 -0.000,37.946 L-0.000,16.377 C-0.000,15.937 0.096,15.433 0.353,15.068 L0.350,15.066 ZM2.004,37.962 L14.411,27.915 L1.986,18.973 L1.986,37.919 C1.993,37.934 1.999,37.948 2.004,37.962 ZM3.906,38.937 L40.090,38.890 L27.927,29.121 L25.472,30.902 C23.387,32.379 20.611,32.374 18.526,30.902 L16.071,29.169 L3.907,38.938 L3.906,38.937 ZM42.009,19.021 L29.584,27.963 L42.009,37.977 C42.009,37.968 42.009,37.957 42.009,37.946 L42.009,19.021 ZM35.104,6.363 L8.892,6.363 L8.892,19.649 L6.903,18.223 L6.903,5.376 C6.903,4.827 7.346,4.389 7.898,4.389 L14.375,4.389 L18.526,1.372 C20.609,-0.105 23.388,-0.105 25.473,1.373 L29.623,4.390 L36.100,4.390 C36.652,4.390 37.094,4.830 37.094,5.377 L37.094,18.224 L35.106,19.650 L35.106,6.364 L35.104,6.363 ZM17.741,4.389 L26.255,4.389 L24.312,2.964 C22.915,1.994 21.073,1.966 19.686,2.962 L17.740,4.389 L17.741,4.389 Z"/>
</svg>
