<svg
        xmlns="http://www.w3.org/2000/svg"
        xmlns:xlink="http://www.w3.org/1999/xlink"
        width="52px" height="44px">
    <path fill-rule="evenodd"  fill="rgb(255, 255, 255)"
          d="M51.458,17.555 L51.458,17.555 L36.142,35.477 L36.142,42.011 C36.142,43.130 35.267,44.000 34.141,44.000 L2.969,44.000 C1.843,44.000 0.968,43.130 0.968,42.011 L0.968,1.989 C0.968,0.897 1.873,-0.000 2.969,-0.000 L34.084,-0.000 C35.209,-0.000 36.084,0.870 36.084,1.989 L36.084,22.048 L44.825,11.882 C45.173,11.487 45.669,11.253 46.197,11.205 C46.722,11.157 47.260,11.346 47.654,11.690 L51.224,14.723 C51.622,15.068 51.858,15.561 51.906,16.086 C51.955,16.623 51.750,17.115 51.458,17.555 ZM34.645,33.966 L31.046,30.928 L29.714,32.546 L29.170,36.804 L33.369,35.457 L34.645,33.966 ZM34.039,2.033 L3.351,2.033 L3.351,41.909 L3.351,41.909 L3.351,41.967 L4.066,41.967 L4.066,41.909 L34.039,41.909 L34.039,37.351 L29.781,38.698 C29.599,38.743 29.393,38.797 29.194,38.797 C28.694,38.797 28.250,38.591 27.857,38.299 C27.330,37.869 27.091,37.189 27.189,36.516 L27.822,32.171 C27.870,31.782 28.012,31.443 28.260,31.146 L34.039,24.418 L34.039,2.033 ZM32.431,29.414 L35.962,32.451 L46.439,20.244 L42.844,17.210 L32.431,29.414 ZM46.296,13.209 L44.164,15.694 L47.758,18.726 L49.891,16.242 L46.296,13.209 ZM26.892,26.904 L10.439,26.904 C9.861,26.904 9.416,26.465 9.416,25.888 C9.416,25.340 9.889,24.871 10.439,24.871 L26.892,24.871 C27.442,24.871 27.915,25.341 27.915,25.888 C27.915,26.435 27.443,26.904 26.892,26.904 ZM26.892,18.671 L10.439,18.671 C9.889,18.671 9.416,18.202 9.416,17.655 C9.416,17.108 9.888,16.638 10.439,16.638 L26.892,16.638 C27.443,16.638 27.915,17.108 27.915,17.655 C27.915,18.201 27.442,18.671 26.892,18.671 ZM26.892,10.438 L10.439,10.438 C9.888,10.438 9.416,9.969 9.416,9.421 C9.416,8.874 9.889,8.405 10.439,8.405 L26.892,8.405 C27.442,8.405 27.915,8.875 27.915,9.421 C27.915,9.968 27.443,10.438 26.892,10.438 ZM9.886,33.667 C10.403,33.977 10.829,34.377 11.203,34.810 L11.583,35.252 L12.841,32.197 C12.899,32.052 13.167,31.904 13.316,31.904 C13.516,31.904 13.718,32.042 13.782,32.232 C14.217,33.346 15.412,35.504 16.614,35.836 L16.816,35.891 L16.963,35.744 C17.063,35.644 17.068,35.577 17.117,35.462 L17.123,35.470 L17.150,35.412 C17.715,34.176 18.340,33.552 19.792,34.162 C20.498,34.459 22.065,35.223 22.814,34.777 C23.047,34.638 23.203,34.419 23.343,34.193 C23.459,33.990 23.736,33.886 23.932,34.017 C24.188,34.163 24.237,34.464 24.108,34.688 C22.890,36.689 21.062,35.798 19.325,35.053 C18.477,34.689 18.344,34.995 17.996,35.745 L17.996,35.744 C17.748,36.237 17.492,36.853 16.825,36.853 C15.407,36.853 14.276,35.381 13.624,34.283 L13.258,33.667 L12.064,36.559 C11.995,36.725 11.832,36.853 11.647,36.853 L11.617,36.853 L11.588,36.858 C11.397,36.889 11.239,36.719 11.150,36.572 C10.751,35.819 10.026,34.995 9.318,34.514 C9.087,34.350 9.001,34.057 9.176,33.813 C9.345,33.578 9.640,33.493 9.886,33.667 Z"/>
</svg>
