<svg
        xmlns="http://www.w3.org/2000/svg"
        xmlns:xlink="http://www.w3.org/1999/xlink"
        width="40px" height="44px">
    <path fill-rule="evenodd"  fill="rgb(255, 255, 255)"
          d="M39.651,26.734 L38.408,27.966 L35.840,25.419 L36.915,24.398 C37.280,24.040 37.940,24.040 38.297,24.394 L39.655,25.741 C39.914,26.034 39.918,26.428 39.651,26.734 ZM37.050,29.366 L34.429,31.947 L34.429,39.028 C34.478,41.786 32.230,44.000 29.469,44.000 L5.948,44.000 C3.208,44.000 0.935,41.750 0.935,39.028 L0.935,4.972 C0.935,2.254 3.204,0.000 5.948,0.000 L29.411,0.000 C32.156,0.000 34.429,2.250 34.429,4.972 L34.429,26.863 L34.478,26.815 L37.050,29.366 ZM32.369,4.972 C32.369,3.344 31.052,2.038 29.411,2.038 C21.592,2.038 13.768,2.038 5.948,2.038 C4.307,2.038 2.990,3.344 2.990,4.972 L2.990,39.028 C2.990,40.655 4.307,41.962 5.948,41.962 L29.411,41.962 C31.052,41.962 32.369,40.655 32.369,39.028 L32.369,33.974 L29.694,36.607 L27.122,34.057 L32.369,28.891 L32.369,4.972 ZM8.110,28.243 C7.532,28.243 7.081,27.795 7.081,27.222 C7.081,26.648 7.532,26.200 8.110,26.200 L26.736,26.200 C27.319,26.200 27.766,26.648 27.766,27.222 C27.766,27.795 27.315,28.243 26.736,28.243 L8.110,28.243 ZM26.736,20.899 L8.110,20.899 C7.532,20.899 7.081,20.452 7.081,19.878 C7.081,19.305 7.532,18.857 8.110,18.857 L26.736,18.857 C27.319,18.857 27.766,19.305 27.766,19.878 C27.766,20.452 27.315,20.899 26.736,20.899 ZM26.736,13.556 L8.110,13.556 C7.532,13.556 7.081,13.108 7.081,12.535 C7.081,11.961 7.532,11.514 8.110,11.514 L26.736,11.514 C27.319,11.514 27.766,11.961 27.766,12.535 C27.766,13.108 27.315,13.556 26.736,13.556 ZM28.123,37.739 L28.127,37.743 L25.337,38.422 C25.341,38.418 25.337,38.418 25.333,38.418 L25.990,35.623 L28.123,37.739 Z"/>
</svg>
