<svg
        xmlns="http://www.w3.org/2000/svg"
        xmlns:xlink="http://www.w3.org/1999/xlink"
        width="46px" height="44px">
    <path fill-rule="evenodd"  fill="rgb(255, 255, 255)"
          d="M29.234,34.106 L26.707,31.610 C26.338,31.246 25.770,31.285 25.419,31.638 L23.566,33.536 C23.202,33.902 23.253,34.474 23.599,34.822 L30.545,41.634 C30.890,41.979 31.444,41.965 31.790,41.599 L45.630,27.468 C45.993,27.097 45.954,26.527 45.602,26.175 L43.711,24.316 C43.367,23.971 42.813,23.985 42.469,24.349 L32.954,34.099 C31.931,35.126 30.264,35.119 29.234,34.104 L29.234,34.106 ZM27.031,41.960 L4.942,41.960 C3.320,41.960 2.018,40.656 2.018,39.026 L2.018,4.973 C2.018,3.344 3.318,2.039 4.942,2.039 C12.669,2.039 20.398,2.039 28.125,2.039 C29.749,2.039 31.049,3.344 31.049,4.973 L31.049,30.368 C31.049,30.929 31.506,31.387 32.065,31.387 L32.065,31.387 C32.624,31.387 33.081,30.929 33.081,30.368 L33.081,4.973 C33.081,2.253 30.836,-0.000 28.125,-0.000 L4.942,-0.000 C2.230,-0.000 -0.014,2.253 -0.014,4.973 L-0.014,39.026 C-0.014,41.745 2.230,44.000 4.942,44.000 L27.031,44.000 C27.589,44.000 28.047,43.541 28.047,42.980 L28.047,42.980 C28.047,42.419 27.589,41.960 27.031,41.960 ZM25.481,13.560 C26.054,13.560 26.497,13.115 26.497,12.541 C26.497,11.966 26.054,11.521 25.481,11.521 L7.080,11.521 C6.507,11.521 6.064,11.966 6.064,12.541 C6.064,13.115 6.507,13.560 7.080,13.560 L25.481,13.560 ZM25.481,20.902 C26.054,20.902 26.497,20.458 26.497,19.883 C26.497,19.308 26.054,18.863 25.481,18.863 L7.080,18.863 C6.507,18.863 6.064,19.308 6.064,19.883 C6.064,20.458 6.507,20.902 7.080,20.902 L25.481,20.902 ZM25.481,28.245 C26.054,28.245 26.497,27.800 26.497,27.225 C26.497,26.650 26.054,26.205 25.481,26.205 L7.080,26.205 C6.507,26.205 6.064,26.652 6.064,27.225 C6.064,27.800 6.507,28.245 7.080,28.245 L25.481,28.245 Z"/>
</svg>
