<svg
        xmlns="http://www.w3.org/2000/svg"
        xmlns:xlink="http://www.w3.org/1999/xlink"
        width="44px" height="37px">
    <path fill-rule="evenodd"  fill="rgb(255, 255, 255)"
          d="M3.678,13.433 L3.202,0.991 C3.192,0.723 3.294,0.480 3.480,0.286 C3.668,0.088 3.924,-0.014 4.195,-0.014 L18.030,-0.014 C18.289,-0.014 18.535,0.075 18.724,0.254 L22.466,3.867 L39.653,3.867 C40.206,3.867 40.608,4.339 40.608,4.875 L40.608,13.433 L42.977,13.433 C43.274,13.433 43.552,13.589 43.731,13.816 C43.916,14.033 43.999,14.345 43.948,14.626 L40.136,36.177 C40.056,36.656 39.647,36.991 39.161,36.991 L4.870,36.991 C4.390,36.991 3.984,36.650 3.895,36.177 L0.047,14.626 C-0.004,14.336 0.079,14.033 0.265,13.806 C0.453,13.580 0.731,13.429 1.028,13.429 L3.675,13.429 L3.678,13.433 ZM17.640,1.961 L5.218,1.961 L5.662,13.426 L6.816,13.426 L6.816,8.463 C6.816,7.917 7.263,7.470 7.810,7.470 L36.182,7.470 C36.729,7.470 37.176,7.917 37.176,8.463 L37.176,13.426 L38.624,13.426 L38.624,5.843 L22.079,5.843 C21.820,5.843 21.574,5.753 21.386,5.574 L17.643,1.961 L17.640,1.961 ZM35.188,9.452 L8.801,9.452 L8.801,13.426 L35.188,13.426 L35.188,9.452 ZM38.339,34.993 L41.794,15.408 L2.224,15.408 L5.717,34.993 L38.339,34.993 Z"/>
</svg>
