<svg
        xmlns="http://www.w3.org/2000/svg"
        xmlns:xlink="http://www.w3.org/1999/xlink"
        width="42px" height="42px">
    <path fill-rule="evenodd"  fill="rgb(255, 255, 255)"
          d="M16.999,33.002 C8.175,33.002 0.997,25.823 0.997,17.000 C0.997,8.176 8.175,0.998 16.999,0.998 C25.823,0.998 33.003,8.176 33.003,17.000 C33.003,25.823 25.823,33.002 16.999,33.002 ZM16.999,2.466 C8.985,2.466 2.465,8.986 2.465,17.000 C2.465,25.014 8.985,31.534 16.999,31.534 C25.014,31.534 31.535,25.014 31.535,17.000 C31.535,8.986 25.014,2.466 16.999,2.466 ZM18.954,25.775 L15.044,25.775 L15.044,18.955 L8.224,18.955 L8.224,15.045 L15.044,15.045 L15.044,8.225 L18.954,8.225 L18.954,15.045 L25.772,15.045 L25.772,18.955 L18.954,18.955 L18.954,25.775 Z"/>
</svg>
