<?xml version="1.0" encoding="UTF-8"?>
<!DOCTYPE svg PUBLIC "-//W3C//DTD SVG 1.1//EN" "http://www.w3.org/Graphics/SVG/1.1/DTD/svg11.dtd">
<!-- Creator: CorelDRAW 2019 (64-Bit) -->
<svg xmlns="http://www.w3.org/2000/svg" xml:space="preserve" width="25.4001mm" height="25.4mm" version="1.1" style="shape-rendering:geometricPrecision; text-rendering:geometricPrecision; image-rendering:optimizeQuality; fill-rule:evenodd; clip-rule:evenodd"
viewBox="0 0 459.94 459.94"
 xmlns:xlink="http://www.w3.org/1999/xlink"
 xmlns:xodm="http://www.corel.com/coreldraw/odm/2003">
 <defs>
  <style type="text/css">
   <![CDATA[
    .fil2 {fill:#336666}
    .fil3 {fill:#FE4F3E}
    .fil1 {fill:white}
    .fil0 {fill:white}
   ]]>
  </style>
 </defs>
 <g id="Layer_x0020_1">
  <metadata id="CorelCorpID_0Corel-Layer"/>
  <path class="fil0" d="M229.97 6.39c-59.47,0 -116.12,23.35 -158.18,65.41 -42.06,42.06 -65.41,98.71 -65.41,158.17 0,59.47 23.36,116.12 65.41,158.17 42.06,42.06 98.71,65.41 158.18,65.41 59.23,0 116.37,-23.33 158.16,-65.4 41.91,-42.19 65.43,-98.67 65.43,-158.19 0,-59.22 -23.33,-116.37 -65.4,-158.16 -42.19,-41.91 -98.67,-65.43 -158.19,-65.43zm0 -6.39c63.42,0 120.78,25.92 162.69,67.28 41.36,41.36 67.28,99.27 67.28,162.69 0,63.42 -25.92,120.78 -67.28,162.69 -41.36,41.36 -99.27,67.28 -162.69,67.28 -63.42,0 -120.78,-25.92 -162.69,-67.28 -41.36,-41.91 -67.28,-99.27 -67.28,-162.69 0,-63.42 25.92,-120.78 67.28,-162.69 41.91,-41.36 99.27,-67.28 162.69,-67.28z"/>
  <path class="fil1" d="M368.95 91c36.95,36.95 57.91,86.58 57.91,138.98 0,52.39 -20.41,102.03 -57.91,138.98 -36.95,36.95 -86.59,57.91 -138.98,57.91 -52.39,0 -102.03,-20.41 -138.98,-57.91 -36.95,-37.5 -57.91,-86.58 -57.91,-138.98 0,-52.39 20.4,-102.03 57.91,-138.98 36.95,-37.5 86.59,-57.91 138.98,-57.91 52.39,0 102.03,20.41 138.98,57.91l0 0z"/>
  <g id="_3175433981984">
   <polygon class="fil2" points="117.9,304.03 151.58,304.03 151.58,343.44 "/>
   <path class="fil2" d="M261.89 266.72l31.87 13.92 -26.96 31.48c-1.37,1.47 -3.38,2.21 -5.64,1.32 -1.96,-0.83 -3.19,-2.84 -2.99,-4.95 2.3,-26.23 3.24,-37.06 3.73,-41.77z"/>
   <path class="fil2" d="M283.36 123.9l-163.16 0c-2.75,0 -4.9,2.16 -4.9,4.9l0 165.42 41.18 0c2.7,0 4.9,2.21 4.9,4.9l0 47.46 121.98 0c2.7,0 4.9,-2.21 4.9,-4.9l0 -39.57 -14.02 16.38c-4.85,5.25 -11.23,6.28 -16.67,4.07 -6.18,-2.6 -9.76,-8.58 -9.17,-14.95 0.93,-10.35 1.03,-13.53 4.27,-47.26 0.2,-0.44 0.34,-0.83 0.54,-1.27l-106.78 0c-2.75,0 -4.9,-2.16 -4.9,-4.9 0,-2.7 2.16,-4.9 4.9,-4.9l110.65 0c0.1,0 0.15,0.05 0.25,0.05 22.55,-53.59 29.02,-68.88 30.54,-72.56 0.05,-0.15 0.1,-0.29 0.15,-0.39 0,-0.05 0.05,-0.05 0.05,-0.1 0.05,-0.15 0.1,-0.24 0.15,-0.34 0,-0.05 0.05,-0.1 0.05,-0.1 0,-0.05 0,-0.05 0,-0.05l0 -46.97c0,-2.75 -2.21,-4.9 -4.9,-4.9zm-40.05 190.42l-68.69 0c-2.7,0 -4.9,-2.16 -4.9,-4.9 0,-2.7 2.21,-4.9 4.9,-4.9l68.69 0c2.75,0 4.9,2.21 4.9,4.9 0,2.75 -2.16,4.9 -4.9,4.9zm-96.88 -37.41l96.88 0c2.75,0 4.9,2.21 4.9,4.9 0,2.7 -2.16,4.9 -4.9,4.9l-96.88 0c-2.75,0 -4.9,-2.21 -4.9,-4.9 0,-2.7 2.16,-4.9 4.9,-4.9zm-4.9 -115.9c0,-2.75 2.16,-4.9 4.9,-4.9l37.9 0c2.7,0 4.9,2.16 4.9,4.9l0 37.9c0,2.7 -2.21,4.9 -4.9,4.9l-37.9 0c-2.75,0 -4.9,-2.21 -4.9,-4.9l0 -37.9zm115.55 70.45l-110.65 0c-2.75,0 -4.9,-2.21 -4.9,-4.9 0,-2.75 2.16,-4.9 4.9,-4.9l110.65 0c2.75,0 4.9,2.16 4.9,4.9 0,2.7 -2.16,4.9 -4.9,4.9z"/>
   <path class="fil2" d="M288.24 175.82c0.03,-0.07 0.03,-0.08 0,0l0 0z"/>
   <rect class="fil3" x="151.31" y="165.9" width="28.12" height="28.12"/>
   <path class="fil2" d="M313.56 141.01l34.07 14.9c-32.99,78.39 -44.61,106.19 -48.88,116.24l-34.12 -14.9 48.93 -116.24z"/>
   <path class="fil2" d="M354.69 139.15l-3.28 7.75 -34.07 -14.9 3.09 -7.26c4.06,-9.7 15.14,-13.83 24.37,-9.9 9.41,3.97 13.87,14.9 9.9,24.32z"/>
  </g>
 </g>
</svg>
