<?xml version="1.0" encoding="UTF-8"?>
<!DOCTYPE svg PUBLIC "-//W3C//DTD SVG 1.1//EN" "http://www.w3.org/Graphics/SVG/1.1/DTD/svg11.dtd">
<svg xmlns="http://www.w3.org/2000/svg" xml:space="preserve" width="25.4001mm" height="25.4mm" version="1.1" style="shape-rendering:geometricPrecision; text-rendering:geometricPrecision; image-rendering:optimizeQuality; fill-rule:evenodd; clip-rule:evenodd"
viewBox="0 0 4960.75 4960.73"
 xmlns:xlink="http://www.w3.org/1999/xlink">
 <defs>
  <style type="text/css">
   <![CDATA[
    .fil3 {fill:#336666}
    .fil2 {fill:#FE4F3E}
    .fil1 {fill:white}
    .fil0 {fill:white}
   ]]>
  </style>
 </defs>
 <g id="Layer_x0020_1">
  <metadata id="CorelCorpID_0Corel-Layer"/>
  <path class="fil0" d="M2480.38 68.88c-641.4,0 -1252.39,251.88 -1706,705.5 -453.59,453.59 -705.5,1064.6 -705.5,1705.98 0,641.38 251.9,1252.39 705.5,1705.98 453.61,453.61 1064.6,705.5 1706,705.5 638.78,0 1255.14,-251.65 1705.83,-705.34 452.03,-455.04 705.65,-1064.25 705.65,-1706.14 0,-638.76 -251.67,-1255.16 -705.34,-1705.83 -455.04,-452.03 -1064.25,-705.65 -1706.14,-705.65zm0 -68.88c684.03,0 1302.64,279.56 1754.69,725.67 446.11,446.09 725.67,1070.66 725.67,1754.69 0,684.03 -279.56,1302.64 -725.67,1754.69 -446.11,446.11 -1070.66,725.67 -1754.69,725.67 -684.05,0 -1302.66,-279.56 -1754.71,-725.67 -446.11,-452.05 -725.67,-1070.66 -725.67,-1754.69 0,-684.03 279.56,-1302.64 725.67,-1754.69 452.05,-446.11 1070.66,-725.67 1754.71,-725.67z"/>
  <path class="fil1" d="M3979.3 981.44c398.52,398.52 624.56,933.85 624.56,1498.92 0,565.07 -220.09,1100.4 -624.56,1498.92 -398.52,398.54 -933.87,624.56 -1498.92,624.56 -565.07,0 -1100.42,-220.09 -1498.94,-624.56 -398.52,-404.46 -624.54,-933.85 -624.54,-1498.92 0,-565.07 220.07,-1100.4 624.54,-1498.92 398.52,-404.48 933.87,-624.56 1498.94,-624.56 565.05,0 1100.4,220.09 1498.92,624.56l0 0z"/>
  <g id="_3175433944992">
   <path class="fil2" d="M4047.97 1684.05l-282.37 0c-36.54,0 -66.44,19.94 -79.74,53.16l-89.68 212.61 -259.13 -614.6c-26.58,-63.12 -132.89,-63.12 -159.47,0l-146.19 348.83 -225.89 0c-46.52,0 -86.38,39.86 -86.38,86.38 0,46.5 39.86,86.36 86.38,86.36l285.69 0c36.54,0 66.44,-19.92 79.74,-53.14l83.04 -212.63 259.13 614.6c13.28,33.22 46.5,53.14 79.72,53.14 36.56,0 66.44,-19.92 79.74,-53.14l149.49 -348.83 225.91 0c46.52,0 86.38,-39.86 86.38,-86.36 0,-46.52 -39.86,-86.38 -86.38,-86.38z"/>
   <circle class="fil3" transform="matrix(0.0102028 -0.0218425 0.0218425 0.0102028 2038.6 1804.63)" r="18051.52"/>
   <path class="fil3" d="M2954.99 2099.33c-189.37,0 -345.49,152.81 -345.49,345.49 0,109.62 53.14,209.29 136.21,272.41l-106.3 242.53 -298.99 9.96c0,0 -172.77,-292.35 -269.11,-451.82 -132.89,-215.93 -478.38,-451.8 -737.51,-225.91 -252.49,222.59 -332.21,777.39 -352.15,1172.72 -3.32,53.14 39.88,96.34 89.7,96.34l780.71 0c49.82,0 89.68,-39.86 89.68,-89.7l0 -388.69 116.28 196.01c19.94,33.22 49.84,63.12 86.38,79.74 29.9,13.28 59.78,19.92 89.68,19.92l538.2 -26.58c109.62,-3.32 196.01,-96.34 192.67,-205.97 -3.32,-89.7 -66.44,-162.79 -149.49,-186.03l79.72 -179.41c19.94,3.32 39.88,6.64 59.8,6.64 189.37,0 345.51,-152.81 345.51,-345.49 -3.34,-189.37 -156.15,-342.17 -345.51,-342.17zm0 524.88c-99.66,0 -182.71,-83.04 -182.71,-182.71 0,-99.66 83.04,-182.73 182.71,-182.73 99.66,0 182.73,83.06 182.73,182.73 0,102.98 -83.06,182.71 -182.73,182.71z"/>
  </g>
 </g>
</svg>
