<?xml version="1.0" encoding="UTF-8"?>
<!DOCTYPE svg PUBLIC "-//W3C//DTD SVG 1.1//EN" "http://www.w3.org/Graphics/SVG/1.1/DTD/svg11.dtd">
<!-- Creator: CorelDRAW 2019 (64-Bit) -->
<svg xmlns="http://www.w3.org/2000/svg" xml:space="preserve" width="25.4001mm" height="25.4mm" version="1.1" style="shape-rendering:geometricPrecision; text-rendering:geometricPrecision; image-rendering:optimizeQuality; fill-rule:evenodd; clip-rule:evenodd"
viewBox="0 0 304.35 304.35"
 xmlns:xlink="http://www.w3.org/1999/xlink"
 xmlns:xodm="http://www.corel.com/coreldraw/odm/2003">
 <defs>
  <style type="text/css">
   <![CDATA[
    .fil2 {fill:none}
    .fil3 {fill:#336666}
    .fil4 {fill:#FE4F3E}
    .fil0 {fill:white}
    .fil1 {fill:white}
   ]]>
  </style>
 </defs>
 <g id="Layer_x0020_1">
  <metadata id="CorelCorpID_0Corel-Layer"/>
  <path class="fil0" d="M244.13 60.21c24.45,24.45 38.32,57.29 38.32,91.96 0,34.67 -13.5,67.51 -38.32,91.96 -24.45,24.45 -57.29,38.32 -91.96,38.32 -34.67,0 -67.51,-13.5 -91.96,-38.32 -24.45,-24.81 -38.32,-57.29 -38.32,-91.96 0,-34.67 13.5,-67.51 38.32,-91.96 24.45,-24.81 57.29,-38.32 91.96,-38.32 34.67,0 67.51,13.5 91.96,38.32l0 0z"/>
  <path class="fil1" d="M152.17 4.23c-39.35,0 -76.84,15.45 -104.67,43.28 -27.83,27.83 -43.28,65.31 -43.28,104.66 0,39.35 15.45,76.84 43.28,104.66 27.83,27.83 65.31,43.28 104.67,43.28 39.19,0 77,-15.44 104.65,-43.27 27.73,-27.92 43.29,-65.29 43.29,-104.67 0,-39.19 -15.44,-77.01 -43.27,-104.65 -27.92,-27.73 -65.29,-43.29 -104.67,-43.29zm0 -4.23c41.97,0 79.92,17.15 107.65,44.52 27.37,27.37 44.52,65.69 44.52,107.65 0,41.97 -17.15,79.92 -44.52,107.65 -27.37,27.37 -65.69,44.52 -107.65,44.52 -41.97,0 -79.92,-17.15 -107.65,-44.52 -27.37,-27.73 -44.52,-65.69 -44.52,-107.65 0,-41.97 17.15,-79.92 44.52,-107.65 27.73,-27.37 65.69,-44.52 107.65,-44.52z"/>
  <path class="fil2" d="M212.79 105.21c-8.95,-12.84 -21.88,-22.66 -37.01,-27.76 5.7,6.55 11.81,15.71 16.47,27.76l20.54 0z"/>
  <path class="fil2" d="M128.56 77.45c-15.13,5.1 -28.04,14.93 -37,27.76l20.54 0c4.65,-12.05 10.76,-21.19 16.46,-27.76z"/>
  <path class="fil2" d="M108.63 115.77l-23.18 0c-3.86,8.11 -6.29,17.01 -6.97,26.42l26.35 0c0.37,-9.82 1.72,-18.64 3.8,-26.42z"/>
  <path class="fil2" d="M199.52 142.19l26.34 0c-0.67,-9.41 -3.1,-18.31 -6.96,-26.42l-23.2 0c2.1,7.78 3.45,16.6 3.82,26.42z"/>
  <path class="fil2" d="M179.46 134.83l-9.79 -1.24c5.38,-3.11 2.53,-9.89 1.21,-12.16 -0.39,-0.67 -0.67,-1.07 -0.67,-1.07 -0.08,0.06 -0.15,0.11 -0.23,0.16 -15.29,11.02 -27.82,15.2 -27.82,15.2 -6.91,2.73 -18.48,4.65 -18.48,4.65 1.9,20.65 14.01,36.58 28.67,36.58 9.61,0 18.13,-6.85 23.4,-17.4 2.89,-5.79 4.8,-12.71 5.36,-20.21 0.2,-1.37 0.3,-2.76 0.32,-4.18l-1.79 -0.33 -0.18 0 0 0z"/>
  <path class="fil2" d="M166.71 182.01l3.85 -8c-5.22,5.05 -11.47,8 -18.2,8 -6.89,0 -13.28,-3.09 -18.57,-8.37l5.52 12.31c-1.29,-2.11 -6.26,-3.18 -12.14,-3.7 2.27,4.19 7.89,7.59 15.17,9.24l10.01 16.28 10.01 -16.28c8.84,-2 15.26,-6.58 16.16,-12.03 -5.68,-0.14 -10.53,0.43 -11.82,2.55z"/>
  <g id="_3175429874320">
   <circle class="fil3" cx="150.77" cy="77.29" r="20.22"/>
   <path class="fil3" d="M217.65 120.74l-23.63 0 -20.22 -15.22c-1.4,-1 -3,-1.6 -4.6,-1.6l-36.64 0c-1.6,0 -3.4,0.6 -4.61,1.6l-20.22 15.22 -23.63 0c-4.2,0 -7.81,3.4 -7.81,7.81 0,4.2 3.4,7.81 7.81,7.81l26.23 0c1.6,0 3.4,-0.6 4.6,-1.6l13.62 -10.41 0 113.93c0,5.01 4,9.01 9.01,9.01 5.01,0 9.01,-4 9.01,-9.01l0 -61.27 8.41 0 0 61.27c0,5.01 4.01,9.01 9.01,9.01 5.01,0 9.01,-4 9.01,-9.01l0 -113.93 13.62 10.41c1.4,1 3,1.6 4.6,1.6l26.23 0c4.2,0 7.81,-3.4 7.81,-7.81 0,-4.41 -3.4,-7.81 -7.61,-7.81z"/>
   <path class="fil4" d="M77.29 107.52l3.8 3.8c0.8,0.8 2,0.8 2.6,0l8.01 -8.01 8.01 8.01c0.8,0.8 2,0.8 2.6,0l3.8 -3.8c0.8,-0.8 0.8,-2 0,-2.6l-8.01 -8.01 8.01 -8.01c0.8,-0.8 0.8,-2 0,-2.6l-3.8 -3.8c-0.8,-0.8 -2,-0.8 -2.6,0l-8.01 8.01 -8.01 -8.01c-0.8,-0.8 -2,-0.8 -2.6,0l-3.8 3.6c-0.8,0.8 -0.8,2 0,2.6l8.01 8.01 -8.01 8.01c-0.8,0.8 -0.8,2 0,2.8z"/>
   <path class="fil3" d="M227.46 86.1l-3.8 -3.8c-0.8,-0.8 -2,-0.8 -2.6,0l-16.82 16.82 -7.01 -7.01c-0.8,-0.8 -2,-0.8 -2.6,0l-3.8 3.8c-0.8,0.8 -0.8,2 0,2.6l12.21 12.21c0.8,0.8 2,0.8 2.6,0l21.82 -21.82c0.8,-0.8 0.8,-2 0,-2.8z"/>
  </g>
 </g>
</svg>
