<?xml version="1.0" encoding="UTF-8"?>
<!DOCTYPE svg PUBLIC "-//W3C//DTD SVG 1.1//EN" "http://www.w3.org/Graphics/SVG/1.1/DTD/svg11.dtd">
<!-- Creator: CorelDRAW 2019 (64-Bit) -->
<svg xmlns="http://www.w3.org/2000/svg" xml:space="preserve" width="25.4001mm" height="25.4mm" version="1.1" style="shape-rendering:geometricPrecision; text-rendering:geometricPrecision; image-rendering:optimizeQuality; fill-rule:evenodd; clip-rule:evenodd"
viewBox="0 0 872.01 872.01"
 xmlns:xlink="http://www.w3.org/1999/xlink"
 xmlns:xodm="http://www.corel.com/coreldraw/odm/2003">
 <defs>
  <style type="text/css">
   <![CDATA[
    .fil3 {fill:#336666}
    .fil2 {fill:#FE4F3E}
    .fil0 {fill:white}
    .fil1 {fill:white}
   ]]>
  </style>
 </defs>
 <g id="Layer_x0020_1">
  <metadata id="CorelCorpID_0Corel-Layer"/>
  <path class="fil0" d="M699.49 172.52c70.05,70.05 109.78,164.15 109.78,263.48 0,99.33 -38.68,193.43 -109.78,263.48 -70.05,70.06 -164.16,109.79 -263.49,109.79 -99.33,0 -193.43,-38.69 -263.48,-109.79 -70.05,-71.1 -109.79,-164.15 -109.79,-263.48 0,-99.33 38.69,-193.43 109.79,-263.48 70.05,-71.1 164.16,-109.79 263.48,-109.79 99.33,0 193.43,38.69 263.49,109.79l0 0z"/>
  <path class="fil1" d="M436.01 12.11c-112.75,0 -220.15,44.28 -299.89,124.01 -79.73,79.73 -124.01,187.14 -124.01,299.88 0,112.74 44.28,220.15 124.01,299.88 79.74,79.74 187.14,124.01 299.89,124.01 112.29,0 220.63,-44.24 299.85,-123.99 79.46,-79.99 124.04,-187.08 124.04,-299.91 0,-112.28 -44.24,-220.64 -123.99,-299.85 -79.99,-79.46 -187.08,-124.04 -299.91,-124.04zm0 -12.11c120.24,0 228.98,49.14 308.44,127.56 78.42,78.42 127.56,188.2 127.56,308.44 0,120.24 -49.14,228.98 -127.56,308.44 -78.42,78.42 -188.2,127.56 -308.44,127.56 -120.24,0 -228.98,-49.14 -308.45,-127.56 -78.42,-79.46 -127.56,-188.2 -127.56,-308.44 0,-120.24 49.14,-228.98 127.56,-308.44 79.46,-78.42 188.2,-127.56 308.45,-127.56z"/>
  <path class="fil2" d="M603.47 251.33l43.65 0 -60.28 -60.3 0 43.66c0,9.15 7.49,16.64 16.64,16.64z"/>
  <path class="fil3" d="M558.36 295.18l-43.44 0 -43.44 0 -52.94 0c-4.72,0 -8.52,-3.83 -8.52,-8.56 0,-4.72 3.81,-8.55 8.52,-8.55l52.94 0 43.44 0 43.44 0c4.78,0 8.58,3.83 8.58,8.55 0,4.72 -3.81,8.56 -8.58,8.56zm0 48.94l-139.81 0c-4.72,0 -8.53,-3.83 -8.53,-8.56 0,-4.72 3.81,-8.55 8.53,-8.55l139.81 0c4.78,0 8.58,3.83 8.58,8.55 0,4.72 -3.81,8.56 -8.58,8.56zm0 48.94l-139.81 0c-4.72,0 -8.53,-3.83 -8.53,-8.55 0,-4.72 3.81,-8.58 8.53,-8.58l139.81 0c4.78,0 8.58,3.86 8.58,8.58 0,4.72 -3.81,8.55 -8.58,8.55zm0 48.94l-139.81 0c-4.72,0 -8.53,-3.83 -8.53,-8.55 0,-4.75 3.81,-8.58 8.53,-8.58l139.81 0c4.78,0 8.58,3.83 8.58,8.58 0,4.72 -3.81,8.55 -8.58,8.55zm-105.86 48.94l-24.51 0 -9.44 0c-4.72,0 -8.53,-3.86 -8.53,-8.58 0,-4.72 3.81,-8.55 8.53,-8.55l9.44 0 24.51 0c4.72,0 8.58,3.83 8.58,8.55 0,4.72 -3.86,8.58 -8.58,8.58zm118.89 -250.65l0 -49.26 -200.1 0c-11.35,0 -20.63,9.28 -20.63,20.63l0 322.81c0,11.35 9.29,20.64 20.63,20.64l255.19 0c11.35,0 20.64,-9.29 20.64,-20.64l0 -267.69 -49.23 0c-14.53,0 -26.49,-12.01 -26.49,-26.49zm-308.48 380.79l0 -304.17 -17.38 0c-11.35,0 -20.63,9.28 -20.63,20.63l0 322.81c0,11.35 9.29,20.63 20.63,20.63l255.19 0c11.35,0 20.64,-9.29 20.64,-20.63l0 -18.64 -237.81 0c-11.35,0 -20.63,-9.29 -20.63,-20.64zm61.31 -61.31l0 -304.17 -17.38 0c-11.35,0 -20.63,9.28 -20.63,20.63l0 322.81c0,11.35 9.29,20.63 20.63,20.63l255.19 0c11.35,0 20.64,-9.29 20.64,-20.63l0 -18.64 -237.81 0c-11.35,0 -20.64,-9.28 -20.64,-20.63z"/>
 </g>
</svg>
