<?xml version="1.0" encoding="UTF-8"?>
<!DOCTYPE svg PUBLIC "-//W3C//DTD SVG 1.1//EN" "http://www.w3.org/Graphics/SVG/1.1/DTD/svg11.dtd">
<!-- Creator: CorelDRAW 2019 (64-Bit) -->
<svg xmlns="http://www.w3.org/2000/svg" xml:space="preserve" width="25.4001mm" height="25.4mm" version="1.1" style="shape-rendering:geometricPrecision; text-rendering:geometricPrecision; image-rendering:optimizeQuality; fill-rule:evenodd; clip-rule:evenodd"
viewBox="0 0 309.85 309.85"
 xmlns:xlink="http://www.w3.org/1999/xlink"
 xmlns:xodm="http://www.corel.com/coreldraw/odm/2003">
 <defs>
  <style type="text/css">
   <![CDATA[
    .fil0 {fill:#336666}
    .fil2 {fill:white}
    .fil1 {fill:#FE4F3E;fill-rule:nonzero}
   ]]>
  </style>
 </defs>
 <g id="Layer_x0020_1">
  <metadata id="CorelCorpID_0Corel-Layer"/>
  <path class="fil0" d="M248.55 61.3c24.89,24.89 39.01,58.33 39.01,93.62 0,35.29 -13.75,68.73 -39.01,93.62 -24.89,24.89 -58.33,39.01 -93.62,39.01 -35.29,0 -68.73,-13.75 -93.62,-39.01 -24.89,-25.26 -39.01,-58.33 -39.01,-93.62 0,-35.29 13.75,-68.73 39.01,-93.62 24.89,-25.26 58.33,-39.01 93.62,-39.01 35.29,0 68.73,13.75 93.62,39.01l0 0z"/>
  <path class="fil0" d="M154.93 4.3c-40.06,0 -78.22,15.73 -106.56,44.07 -28.33,28.33 -44.07,66.5 -44.07,106.56 0,40.06 15.73,78.22 44.07,106.56 28.33,28.33 66.5,44.07 106.56,44.07 39.9,0 78.4,-15.72 106.55,-44.06 28.23,-28.42 44.08,-66.47 44.08,-106.57 0,-39.9 -15.72,-78.4 -44.06,-106.55 -28.42,-28.23 -66.47,-44.08 -106.57,-44.08zm0 -4.3c42.72,0 81.36,17.46 109.6,45.33 27.86,27.86 45.33,66.87 45.33,109.6 0,42.72 -17.46,81.36 -45.33,109.6 -27.86,27.86 -66.87,45.33 -109.6,45.33 -42.73,0 -81.36,-17.46 -109.6,-45.33 -27.86,-28.24 -45.33,-66.87 -45.33,-109.6 0,-42.72 17.46,-81.36 45.33,-109.6 28.24,-27.86 66.87,-45.33 109.6,-45.33z"/>
  <path class="fil1" d="M109.04 129.09l-49.91 0c-1.54,0.46 -2.46,2.08 -2.06,3.65 0.26,1.03 1.05,1.84 2.06,2.15l49.9 0c1.54,-0.46 2.46,-2.08 2.06,-3.65 -0.26,-1.03 -1.05,-1.84 -2.06,-2.15zm0 45.87l-29.63 0c-1.54,0.46 -2.47,2.07 -2.06,3.64 0.26,1.03 1.05,1.84 2.06,2.15l29.63 0c1.54,-0.46 2.46,-2.08 2.06,-3.65 -0.26,-1.03 -1.05,-1.84 -2.06,-2.15zm0 -23.06l-40.27 0c-1.54,0.46 -2.47,2.07 -2.06,3.64 0.26,1.03 1.05,1.84 2.06,2.15l40.27 0c1.54,-0.46 2.46,-2.08 2.06,-3.65 -0.26,-1.03 -1.05,-1.84 -2.06,-2.15z"/>
  <path class="fil2" d="M186.8 174.03c0.78,0.05 1.45,-0.28 2.01,-0.84l13.37 -13.01 30.16 28.48c2.59,2.59 6.7,-1.53 4.14,-4.1l-30.12 -28.45 30.36 -29.55c2.59,-2.59 -1.53,-6.7 -4.13,-4.11l-45.84 44.62 -45.84 -44.63c-2.59,-2.59 -6.7,1.53 -4.13,4.11l30.37 29.57 -29.88 28.45c-2.81,2.62 1.36,6.69 4.16,4.07l29.89 -28.46 13.37 13.01c0.55,0.54 1.21,0.88 2,0.83l0.06 -0 0.06 0zm-46.95 -63.23l93.78 0.25c7.56,0.02 13.7,6.13 13.7,13.71l0 60.32c0,7.57 -6.14,13.7 -13.7,13.7l-93.78 0c-7.57,0 -13.7,-6.14 -13.7,-13.7l0 -60.58c0,-7.56 6.13,-13.73 13.71,-13.71zm93.78 93.52c10.63,0 19.24,-8.62 19.24,-19.24l0 -60.32c0,-10.63 -8.61,-19.24 -19.24,-19.24l-93.78 0c-10.63,0 -19.24,8.62 -19.24,19.24l0 60.32c0,10.63 8.62,19.24 19.24,19.24l93.78 0z"/>
 </g>
</svg>
