<?xml version="1.0" encoding="UTF-8"?>
<!DOCTYPE svg PUBLIC "-//W3C//DTD SVG 1.1//EN" "http://www.w3.org/Graphics/SVG/1.1/DTD/svg11.dtd">
<!-- Creator: CorelDRAW 2019 (64-Bit) -->
<svg xmlns="http://www.w3.org/2000/svg" xml:space="preserve" width="25.4001mm" height="25.4mm" version="1.1" style="shape-rendering:geometricPrecision; text-rendering:geometricPrecision; image-rendering:optimizeQuality; fill-rule:evenodd; clip-rule:evenodd"
viewBox="0 0 450.7 450.7"
 xmlns:xlink="http://www.w3.org/1999/xlink"
 xmlns:xodm="http://www.corel.com/coreldraw/odm/2003">
 <defs>
  <style type="text/css">
   <![CDATA[
    .fil0 {fill:#336666}
    .fil1 {fill:white}
    .fil2 {fill:#FE4F3E;fill-rule:nonzero}
   ]]>
  </style>
 </defs>
 <g id="Layer_x0020_1">
  <metadata id="CorelCorpID_0Corel-Layer"/>
  <path class="fil0" d="M361.53 89.17c36.21,36.21 56.74,84.84 56.74,136.18 0,51.34 -20,99.97 -56.74,136.18 -36.21,36.21 -84.84,56.74 -136.18,56.74 -51.34,0 -99.97,-20 -136.18,-56.74 -36.21,-36.75 -56.74,-84.84 -56.74,-136.18 0,-51.34 20,-99.97 56.74,-136.18 36.21,-36.75 84.84,-56.74 136.18,-56.74 51.34,0 99.97,20 136.18,56.74l0 0z"/>
  <path class="fil0" d="M225.35 6.26c-58.27,0 -113.78,22.88 -155,64.1 -41.21,41.21 -64.1,96.72 -64.1,154.99 0,58.27 22.89,113.78 64.1,154.99 41.21,41.21 96.72,64.1 155,64.1 58.04,0 114.03,-22.86 154.98,-64.08 41.07,-41.34 64.11,-96.69 64.11,-155.01 0,-58.03 -22.86,-114.04 -64.08,-154.98 -41.34,-41.07 -96.69,-64.11 -155.01,-64.11zm0 -6.26c62.15,0 118.35,25.4 159.42,65.93 40.53,40.53 65.93,97.27 65.93,159.42 0,62.15 -25.4,118.35 -65.93,159.42 -40.53,40.53 -97.27,65.93 -159.42,65.93 -62.15,0 -118.35,-25.4 -159.42,-65.93 -40.53,-41.07 -65.93,-97.27 -65.93,-159.42 0,-62.15 25.4,-118.35 65.93,-159.42 41.07,-40.53 97.27,-65.93 159.42,-65.93z"/>
  <g id="_1712568075952">
   <path class="fil1" d="M328.72 279.6c-6.52,0 -11.83,-6.77 -11.83,-15.08 0,-8.31 5.31,-15.08 11.83,-15.08 6.52,0 11.83,6.77 11.83,15.08 0,8.31 -5.31,15.08 -11.83,15.08zm-163.11 -82.64c7.2,-9.23 19.45,-16.49 34.49,-20.44 7.49,4.16 16.09,6.54 25.24,6.54 9.15,0 17.76,-2.38 25.24,-6.54 14.98,3.94 27.24,11.25 34.45,20.47l-59.69 39.4 -59.73 -39.42zm-55.47 67.56c0,-8.31 5.31,-15.08 11.82,-15.08 6.52,0 11.83,6.77 11.83,15.08 0,8.32 -5.31,15.08 -11.83,15.08 -6.52,0 -11.82,-6.76 -11.82,-15.08zm72.98 -133.66c0,-23.28 18.94,-42.22 42.21,-42.22 23.27,0 42.21,18.94 42.21,42.22 0,23.27 -18.94,42.21 -42.21,42.21 -23.27,0 -42.21,-18.94 -42.21,-42.21zm150.58 109.28l0 -44.93 -9.48 3.66 -16.87 -16.61 -13.99 9.23c-7.25,-9.56 -18.72,-17.36 -32.71,-22.3 10.35,-9.54 16.89,-23.17 16.89,-38.33 0,-28.79 -23.42,-52.21 -52.2,-52.21 -28.79,0 -52.2,23.42 -52.2,52.21 0,15.14 6.52,28.75 16.84,38.29 -14.02,4.94 -25.48,12.72 -32.73,22.3l-13.93 -9.2 -16.87 16.61 -9.48 -3.66 0 44.93c-9.63,2.6 -16.82,12.54 -16.82,24.38 0,11.85 7.19,21.78 16.82,24.38l0 41.35 108.37 41.81 108.37 -41.81 0 -41.35c9.63,-2.6 16.82,-12.54 16.82,-24.38 0,-11.85 -7.2,-21.78 -16.83,-24.39z"/>
   <path class="fil2" d="M323.72 323.39l-93.39 36.03 0 -113.64 93.39 -36.03 0 30.37c-9.63,2.6 -16.82,12.54 -16.82,24.38 0,11.85 7.2,21.78 16.82,24.38l0 34.5z"/>
   <path class="fil2" d="M220.35 359.42l-93.38 -36.03 0 -34.47c0.11,-0.03 0.21,-0.09 0.33,-0.12 2.17,-0.63 4.21,-1.63 6.07,-2.95 0.15,-0.1 0.31,-0.21 0.45,-0.32 0.88,-0.65 1.7,-1.38 2.48,-2.16 0.15,-0.15 0.3,-0.31 0.44,-0.46 0.77,-0.82 1.51,-1.69 2.17,-2.64 0.07,-0.1 0.14,-0.22 0.21,-0.33 0.64,-0.93 1.21,-1.91 1.73,-2.94 0.06,-0.12 0.13,-0.23 0.19,-0.36 0.51,-1.06 0.95,-2.18 1.33,-3.33 0.07,-0.22 0.14,-0.44 0.21,-0.66 0.35,-1.15 0.63,-2.34 0.82,-3.56 0.03,-0.21 0.06,-0.42 0.08,-0.63 0.18,-1.29 0.3,-2.6 0.3,-3.95 0,-1.35 -0.12,-2.66 -0.3,-3.95 -0.03,-0.21 -0.05,-0.42 -0.08,-0.63 -0.2,-1.22 -0.48,-2.41 -0.82,-3.56 -0.07,-0.22 -0.14,-0.44 -0.21,-0.66 -0.38,-1.15 -0.81,-2.27 -1.33,-3.33 -0.06,-0.12 -0.13,-0.24 -0.19,-0.36 -0.52,-1.03 -1.1,-2.01 -1.73,-2.94 -0.07,-0.11 -0.14,-0.22 -0.21,-0.33 -0.67,-0.94 -1.4,-1.82 -2.17,-2.64 -0.15,-0.16 -0.29,-0.31 -0.44,-0.46 -0.78,-0.79 -1.61,-1.51 -2.48,-2.16 -0.15,-0.11 -0.3,-0.21 -0.45,-0.32 -1.86,-1.32 -3.9,-2.32 -6.07,-2.95 -0.11,-0.03 -0.21,-0.09 -0.33,-0.12l0 -30.34 93.38 36.03 0 113.63 -0 0z"/>
  </g>
 </g>
</svg>
