<?xml version="1.0" encoding="UTF-8"?>
<!DOCTYPE svg PUBLIC "-//W3C//DTD SVG 1.1//EN" "http://www.w3.org/Graphics/SVG/1.1/DTD/svg11.dtd">
<!-- Creator: CorelDRAW 2019 (64-Bit) -->
<svg xmlns="http://www.w3.org/2000/svg" xml:space="preserve" width="25.4001mm" height="25.4mm" version="1.1" style="shape-rendering:geometricPrecision; text-rendering:geometricPrecision; image-rendering:optimizeQuality; fill-rule:evenodd; clip-rule:evenodd"
viewBox="0 0 4960.75 4960.73"
 xmlns:xlink="http://www.w3.org/1999/xlink"
 xmlns:xodm="http://www.corel.com/coreldraw/odm/2003">
 <defs>
  <style type="text/css">
   <![CDATA[
    .fil0 {fill:#336666}
    .fil1 {fill:white}
    .fil2 {fill:#FE4F3E;fill-rule:nonzero}
   ]]>
  </style>
 </defs>
 <g id="Layer_x0020_1">
  <metadata id="CorelCorpID_0Corel-Layer"/>
  <path class="fil0" d="M3979.3 981.44c398.52,398.52 624.56,933.85 624.56,1498.92 0,565.07 -220.09,1100.4 -624.56,1498.92 -398.52,398.54 -933.87,624.56 -1498.92,624.56 -565.07,0 -1100.42,-220.09 -1498.94,-624.56 -398.52,-404.46 -624.54,-933.85 -624.54,-1498.92 0,-565.07 220.07,-1100.4 624.54,-1498.92 398.52,-404.48 933.87,-624.56 1498.94,-624.56 565.05,0 1100.4,220.09 1498.92,624.56l0 0z"/>
  <path class="fil0" d="M2480.38 68.88c-641.4,0 -1252.39,251.88 -1706,705.5 -453.59,453.59 -705.5,1064.6 -705.5,1705.98 0,641.38 251.9,1252.39 705.5,1705.98 453.61,453.61 1064.6,705.5 1706,705.5 638.78,0 1255.14,-251.65 1705.83,-705.34 452.03,-455.04 705.65,-1064.25 705.65,-1706.14 0,-638.76 -251.67,-1255.16 -705.34,-1705.83 -455.04,-452.03 -1064.25,-705.65 -1706.14,-705.65zm0 -68.88c684.03,0 1302.64,279.56 1754.69,725.67 446.11,446.09 725.67,1070.66 725.67,1754.69 0,684.03 -279.56,1302.64 -725.67,1754.69 -446.11,446.11 -1070.66,725.67 -1754.69,725.67 -684.05,0 -1302.66,-279.56 -1754.71,-725.67 -446.11,-452.05 -725.67,-1070.66 -725.67,-1754.69 0,-684.03 279.56,-1302.64 725.67,-1754.69 452.05,-446.11 1070.66,-725.67 1754.71,-725.67z"/>
  <path class="fil1" d="M3852.86 3661.92l0 -2363.1 -2744.94 0 0 2363.1 2744.94 0zm-88.59 -1768.75l-2567.74 0 0 -505.76 2567.74 0 0 505.76zm-2567.74 1680.16l0 -1591.55 2567.74 0 0 1591.55 -2567.74 0z"/>
  <rect class="fil2" x="2065.35" y="3119.55" width="846.71" height="229.11"/>
  <path class="fil1" d="M3221.99 3014.42l0 -327.66 -1483.18 0 0 327.66 1483.18 0zm-1394.59 -88.59l0 -150.48 1306 0 0 150.48 -1306 0zm1394.59 -356.35l0 -327.66 -1483.18 0 0 327.66 1483.18 0zm-1394.59 -88.59l0 -150.48 1306 0 0 150.48 -1306 0z"/>
  <path class="fil1" d="M1402.01 1594.33l0 88.61 321.02 0 0 -88.61 -321.02 0zm1866.74 0l0 88.61 321.02 0 0 -88.61 -321.02 0zm-466.68 0l0 88.61 321.02 0 0 -88.61 -321.02 0zm-466.7 0l0 88.61 321.04 0 0 -88.61 -321.04 0zm-466.68 0l0 88.61 321.02 0 0 -88.61 -321.02 0z"/>
 </g>
</svg>
