<?xml version="1.0" encoding="UTF-8"?>
<!DOCTYPE svg PUBLIC "-//W3C//DTD SVG 1.1//EN" "http://www.w3.org/Graphics/SVG/1.1/DTD/svg11.dtd">
<!-- Creator: CorelDRAW 2019 (64-Bit) -->
<svg xmlns="http://www.w3.org/2000/svg" xml:space="preserve" width="25.4001mm" height="25.4mm" version="1.1" style="shape-rendering:geometricPrecision; text-rendering:geometricPrecision; image-rendering:optimizeQuality; fill-rule:evenodd; clip-rule:evenodd"
viewBox="0 0 826.32 826.32"
 xmlns:xlink="http://www.w3.org/1999/xlink"
 xmlns:xodm="http://www.corel.com/coreldraw/odm/2003">
 <defs>
  <style type="text/css">
   <![CDATA[
    .fil0 {fill:#336666}
    .fil1 {fill:white}
    .fil2 {fill:#FE4F3E;fill-rule:nonzero}
   ]]>
  </style>
 </defs>
 <g id="Layer_x0020_1">
  <metadata id="CorelCorpID_0Corel-Layer"/>
  <path class="fil0" d="M662.84 163.48c66.38,66.38 104.03,155.55 104.03,249.68 0,94.13 -36.66,183.3 -104.03,249.68 -66.38,66.39 -155.56,104.03 -249.68,104.03 -94.12,0 -183.3,-36.66 -249.68,-104.03 -66.38,-67.37 -104.03,-155.55 -104.03,-249.68 0,-94.13 36.66,-183.3 104.03,-249.68 66.38,-67.37 155.56,-104.03 249.68,-104.03 94.13,0 183.3,36.66 249.68,104.03l0 0z"/>
  <path class="fil0" d="M413.16 11.47c-106.84,0 -208.61,41.96 -284.17,117.52 -75.56,75.56 -117.52,177.33 -117.52,284.17 0,106.84 41.96,208.61 117.52,284.17 75.56,75.56 177.33,117.52 284.17,117.52 106.4,0 209.07,-41.92 284.14,-117.49 75.3,-75.8 117.54,-177.27 117.54,-284.2 0,-106.4 -41.92,-209.08 -117.49,-284.14 -75.8,-75.3 -177.27,-117.54 -284.2,-117.54zm0 -11.47c113.94,0 216.98,46.57 292.28,120.88 74.31,74.31 120.88,178.34 120.88,292.28 0,113.94 -46.57,216.98 -120.88,292.28 -74.31,74.31 -178.34,120.88 -292.28,120.88 -113.94,0 -216.99,-46.57 -292.29,-120.88 -74.31,-75.3 -120.88,-178.34 -120.88,-292.28 0,-113.94 46.57,-216.98 120.88,-292.28 75.3,-74.31 178.34,-120.88 292.29,-120.88z"/>
  <path class="fil1" d="M214.93 223.18c-14.9,0 -28.26,11.5 -28.26,26.79l0 253.17c0,15.27 13.33,26.96 28.26,26.96l143.69 0 -0.13 3.17c-0.44,10.47 -1.52,22.12 -5.06,32.03 -3.77,10.54 -9.35,18.14 -19.72,22.78l-0.59 0.27 -19.07 0c-4.08,0 -7.39,3.31 -7.39,7.39 0,4.08 3.31,7.39 7.39,7.39l198.23 0c4.08,0 7.39,-3.31 7.39,-7.39 0,-4.08 -3.31,-7.39 -7.39,-7.39l-19.07 0 -0.59 -0.27c-10.37,-4.65 -15.95,-12.24 -19.72,-22.78 -3.54,-9.91 -4.62,-21.57 -5.06,-32.03l-0.13 -3.17 143.69 0c14.93,0 28.26,-11.68 28.26,-26.96l0 -253.17c0,-15.3 -13.36,-26.79 -28.26,-26.79l-396.46 0zm0 14.79l396.46 0c6.96,0 13.47,4.61 13.47,12l0 253.17c0,7.35 -6.44,12.17 -13.47,12.17l-396.46 0c-7.03,0 -13.47,-4.82 -13.47,-12.17l0 -253.17c0,-7.39 6.51,-12 13.47,-12z"/>
  <path class="fil1" d="M314.04 306.65c-3.88,0 -7.39,3.51 -7.39,7.39l0 125.2c0,3.78 3.61,7.39 7.39,7.39l198.23 0c3.78,0 7.39,-3.61 7.39,-7.39l0 -125.2c0,-3.79 -3.61,-7.39 -7.39,-7.39l-198.23 0z"/>
  <path class="fil2" d="M336.58 321.44l153.17 0 -76.58 56.37 -76.58 -56.37zm-15.14 7.13l87.33 64.37c1.27,0.94 2.81,1.44 4.39,1.44 1.58,0 3.12,-0.51 4.39,-1.44l87.33 -64.37 0 103.28 -183.44 0 0 -103.28z"/>
 </g>
</svg>
