<?xml version="1.0" encoding="UTF-8"?>
<!DOCTYPE svg PUBLIC "-//W3C//DTD SVG 1.1//EN" "http://www.w3.org/Graphics/SVG/1.1/DTD/svg11.dtd">
<!-- Creator: CorelDRAW 2019 (64-Bit) -->
<svg xmlns="http://www.w3.org/2000/svg" xml:space="preserve" width="25.4001mm" height="25.4mm" version="1.1" style="shape-rendering:geometricPrecision; text-rendering:geometricPrecision; image-rendering:optimizeQuality; fill-rule:evenodd; clip-rule:evenodd"
viewBox="0 0 309.85 309.85"
 xmlns:xlink="http://www.w3.org/1999/xlink"
 xmlns:xodm="http://www.corel.com/coreldraw/odm/2003">
 <defs>
  <style type="text/css">
   <![CDATA[
    .fil0 {fill:#336666}
    .fil2 {fill:#FE4F3E;fill-rule:nonzero}
    .fil1 {fill:white;fill-rule:nonzero}
   ]]>
  </style>
 </defs>
 <g id="Layer_x0020_1">
  <metadata id="CorelCorpID_0Corel-Layer"/>
  <g id="_1313012924336">
   <path class="fil0" d="M248.55 61.3c24.89,24.89 39.01,58.33 39.01,93.62 0,35.29 -13.75,68.73 -39.01,93.62 -24.89,24.89 -58.33,39.01 -93.62,39.01 -35.29,0 -68.73,-13.75 -93.62,-39.01 -24.89,-25.26 -39.01,-58.33 -39.01,-93.62 0,-35.29 13.75,-68.73 39.01,-93.62 24.89,-25.26 58.33,-39.01 93.62,-39.01 35.29,0 68.73,13.75 93.62,39.01l0 0z"/>
   <path class="fil1" d="M73.43 201.8l0 20.41c0,1.51 1.29,2.79 2.79,2.79l0 0 89.6 0c1.5,0 2.79,-1.29 2.79,-2.79l0 0 0 -20.41c0,-1.29 -0.86,-2.36 -2.15,-2.79l-90.89 0c-1.29,0.21 -2.15,1.5 -2.15,2.79z"/>
   <path class="fil2" d="M157.02 189.98c0,-1.5 -1.29,-2.79 -2.79,-2.79l0 0 -66.61 0c-1.5,0 -2.79,1.29 -2.79,2.79l0 0 0 5.8 71.98 0 0.21 -5.8 0 0z"/>
   <path class="fil1" d="M244.26 176.45c1.72,-7.09 -1.07,-14.4 -6.88,-18.48 -1.5,-0.86 -3.22,-1.72 -4.94,-2.36 -14.4,-6.66 -28.36,-14.4 -41.69,-22.99 1.07,-5.37 -2.36,-10.74 -7.74,-11.82 -2.79,-0.64 -5.59,0 -7.74,1.72 -3.65,-2.58 -7.52,-5.16 -11.39,-7.74l3.65 -5.37c1.51,0.64 3.01,0.86 4.73,1.07 6.88,0 12.46,-5.59 12.46,-12.68 0,-4.08 -1.93,-7.95 -5.37,-10.31l-32.02 -22.56c-5.59,-3.87 -13.32,-2.58 -17.41,3.01l0 0c-3.44,4.94 -3.01,11.39 0.86,15.69l-19.55 28.15c-1.5,-0.64 -3.01,-0.86 -4.73,-1.07 -6.88,0 -12.46,5.59 -12.46,12.68 0,4.08 1.93,7.95 5.37,10.31l32.02 22.56c5.59,3.87 13.54,2.58 17.4,-3.01l0 0c3.44,-4.73 3.01,-11.39 -1.07,-15.69l3.65 -5.37c3.87,2.79 7.52,5.37 11.17,8.16 -1.07,4.08 0.43,8.38 3.87,10.96 3.22,2.36 7.52,2.36 10.96,0.43 12.68,9.67 24.5,20.2 35.67,31.59 1.29,1.29 2.58,2.58 3.87,3.87 3.01,2.15 6.45,3.22 9.88,3.22 3.44,0 6.88,-1.07 9.67,-3.01 2.58,2.58 6.66,2.58 9.02,0 2.58,-2.58 2.58,-6.66 0,-9.02 0,-1.07 -0.64,-1.5 -1.29,-1.93z"/>
   <path class="fil0" d="M184.52 133.26l-8.38 12.03c-1.5,2.15 -4.3,2.58 -6.45,1.07 -2.15,-1.5 -2.58,-4.3 -1.07,-6.45l0 0 8.38 -12.03c0.86,-1.29 2.36,-1.93 3.87,-1.93 0.86,0 1.93,0.22 2.58,0.86 1.93,1.72 2.58,4.51 1.07,6.45 0,0.21 0,0.21 0,0l0 0z"/>
   <path class="fil0" d="M154.93 4.3c-40.06,0 -78.22,15.73 -106.56,44.07 -28.33,28.33 -44.07,66.5 -44.07,106.56 0,40.06 15.73,78.22 44.07,106.56 28.33,28.33 66.5,44.07 106.56,44.07 39.9,0 78.4,-15.72 106.55,-44.06 28.23,-28.42 44.08,-66.47 44.08,-106.57 0,-39.9 -15.72,-78.4 -44.06,-106.55 -28.42,-28.23 -66.47,-44.08 -106.57,-44.08zm0 -4.3c42.72,0 81.36,17.46 109.6,45.33 27.86,27.86 45.33,66.87 45.33,109.6 0,42.72 -17.46,81.36 -45.33,109.6 -27.86,27.86 -66.87,45.33 -109.6,45.33 -42.73,0 -81.36,-17.46 -109.6,-45.33 -27.86,-28.24 -45.33,-66.87 -45.33,-109.6 0,-42.72 17.46,-81.36 45.33,-109.6 28.24,-27.86 66.87,-45.33 109.6,-45.33z"/>
  </g>
 </g>
</svg>
