<?xml version="1.0" encoding="UTF-8"?>
<!DOCTYPE svg PUBLIC "-//W3C//DTD SVG 1.1//EN" "http://www.w3.org/Graphics/SVG/1.1/DTD/svg11.dtd">
<!-- Creator: CorelDRAW 2019 (64-Bit) -->
<svg xmlns="http://www.w3.org/2000/svg" xml:space="preserve" width="25.4001mm" height="25.4mm" version="1.1" style="shape-rendering:geometricPrecision; text-rendering:geometricPrecision; image-rendering:optimizeQuality; fill-rule:evenodd; clip-rule:evenodd"
viewBox="0 0 826.32 826.32"
 xmlns:xlink="http://www.w3.org/1999/xlink"
 xmlns:xodm="http://www.corel.com/coreldraw/odm/2003">
 <defs>
  <style type="text/css">
   <![CDATA[
    .fil0 {fill:#336666}
    .fil2 {fill:#FE4F3E}
    .fil1 {fill:white;fill-rule:nonzero}
   ]]>
  </style>
 </defs>
 <g id="Layer_x0020_1">
  <metadata id="CorelCorpID_0Corel-Layer"/>
  <g id="_1313216220512">
   <path class="fil0" d="M662.84 163.48c66.38,66.38 104.03,155.55 104.03,249.68 0,94.13 -36.66,183.3 -104.03,249.68 -66.38,66.39 -155.56,104.03 -249.68,104.03 -94.12,0 -183.3,-36.66 -249.68,-104.03 -66.38,-67.37 -104.03,-155.55 -104.03,-249.68 0,-94.13 36.66,-183.3 104.03,-249.68 66.38,-67.37 155.56,-104.03 249.68,-104.03 94.13,0 183.3,36.66 249.68,104.03l0 0z"/>
   <g>
    <path class="fil1" d="M537.01 538.99l-80.25 -23.78c-9.91,-2.97 -20.81,0 -28.73,6.94l-9.91 9.91c-7.92,8.92 -21.8,9.91 -31.7,3.96 -19.82,-11.89 -37.65,-26.75 -53.51,-42.6 -18.82,-18.82 -35.67,-40.62 -49.54,-64.4 -5.95,-9.91 -3.97,-22.79 3.96,-30.71l8.92 -8.92c7.92,-7.93 9.91,-18.83 6.94,-28.74l-27.74 -81.24c-4.95,-15.85 -18.82,-28.73 -34.68,-31.71 -12.88,-2.97 -25.76,-0.99 -36.66,6.94l47.56 108 -14.86 6.94 -46.57 -104.03c-4.95,4.95 -9.91,9.91 -13.87,13.87 -2.97,2.97 -5.94,5.94 -7.92,8.92 -25.76,25.76 -35.67,63.41 -24.77,99.08 23.78,66.38 63.41,129.79 114.93,180.32 47.56,48.55 104.03,85.21 166.45,108 10.9,3.96 22.79,5.94 35.67,5.94 25.76,0 50.53,-10.9 67.37,-29.72 2.97,-2.97 6.94,-6.93 9.91,-10.9 8.92,-8.92 16.84,-17.83 23.78,-27.74l-107.01 -25.76 3.96 -15.85 110.97 26.75c2.97,-8.92 2.97,-17.83 0,-25.76 -3.97,-16.85 -16.85,-28.73 -32.7,-33.69z"/>
    <path class="fil1" d="M568.72 246.71c-15.85,-7.92 -34.68,-11.89 -52.51,-11.89l0 0c-66.38,0 -119.88,53.5 -119.88,119.88 0,19.82 4.95,39.63 13.87,56.48l-46.57 78.27 99.08 -26.75c59.45,28.73 130.79,3.96 160.51,-55.48 29.72,-59.45 4.95,-130.79 -54.49,-160.51z"/>
    <path class="fil1" d="M353.71 457.75l28.73 -56.48c-30.71,-61.43 -6.94,-135.74 54.49,-166.45 7.92,-3.97 16.84,-6.94 24.77,-9.91l-3.96 -15.85c-75.3,19.82 -119.89,96.11 -101.06,171.41 1.98,6.94 3.96,13.87 6.94,20.8l-25.76 49.54 15.85 6.94z"/>
   </g>
   <polygon class="fil2" points="145.65,654.91 649.96,145.64 685.63,182.3 180.32,690.58 "/>
   <path class="fil0" d="M413.16 11.47c-106.84,0 -208.61,41.96 -284.17,117.52 -75.56,75.56 -117.52,177.33 -117.52,284.17 0,106.84 41.96,208.61 117.52,284.17 75.56,75.56 177.33,117.52 284.17,117.52 106.4,0 209.07,-41.92 284.14,-117.49 75.3,-75.8 117.54,-177.27 117.54,-284.2 0,-106.4 -41.92,-209.08 -117.49,-284.14 -75.8,-75.3 -177.27,-117.54 -284.2,-117.54zm0 -11.47c113.94,0 216.98,46.57 292.28,120.88 74.31,74.31 120.88,178.34 120.88,292.28 0,113.94 -46.57,216.98 -120.88,292.28 -74.31,74.31 -178.34,120.88 -292.28,120.88 -113.94,0 -216.99,-46.57 -292.29,-120.88 -74.31,-75.3 -120.88,-178.34 -120.88,-292.28 0,-113.94 46.57,-216.98 120.88,-292.28 75.3,-74.31 178.34,-120.88 292.29,-120.88z"/>
  </g>
 </g>
</svg>
