<?xml version="1.0" encoding="UTF-8"?>
<!DOCTYPE svg PUBLIC "-//W3C//DTD SVG 1.1//EN" "http://www.w3.org/Graphics/SVG/1.1/DTD/svg11.dtd">
<!-- Creator: CorelDRAW 2019 (64-Bit) -->
<svg xmlns="http://www.w3.org/2000/svg" xml:space="preserve" width="25.4001mm" height="25.4mm" version="1.1" style="shape-rendering:geometricPrecision; text-rendering:geometricPrecision; image-rendering:optimizeQuality; fill-rule:evenodd; clip-rule:evenodd"
viewBox="0 0 4960.75 4960.73"
 xmlns:xlink="http://www.w3.org/1999/xlink"
 xmlns:xodm="http://www.corel.com/coreldraw/odm/2003">
 <defs>
  <style type="text/css">
   <![CDATA[
    .fil0 {fill:#336666}
    .fil1 {fill:#336666;fill-rule:nonzero}
    .fil3 {fill:#FE4F3E;fill-rule:nonzero}
    .fil2 {fill:white;fill-rule:nonzero}
   ]]>
  </style>
 </defs>
 <g id="Layer_x0020_1">
  <metadata id="CorelCorpID_0Corel-Layer"/>
  <g id="_1313216197600">
   <path class="fil0" d="M3979.3 981.44c398.52,398.52 624.56,933.85 624.56,1498.92 0,565.07 -220.09,1100.4 -624.56,1498.92 -398.52,398.54 -933.87,624.56 -1498.92,624.56 -565.07,0 -1100.42,-220.09 -1498.94,-624.56 -398.52,-404.46 -624.54,-933.85 -624.54,-1498.92 0,-565.07 220.07,-1100.4 624.54,-1498.92 398.52,-404.48 933.87,-624.56 1498.94,-624.56 565.05,0 1100.4,220.09 1498.92,624.56l0 0z"/>
   <path class="fil1" d="M2345.96 1531.62l0 0c7.23,-7.42 13.53,-15.66 18.81,-24.57 1.31,-10.92 1.07,-21.93 -0.64,-32.79 -6.66,-31.46 -1.19,-64.27 15.27,-91.89 21.31,-24.3 50.94,-39.71 83.06,-43.2 10.66,-1.7 21.07,-4.77 30.98,-9.06 7.13,-8.01 13.22,-16.85 18.16,-26.37 13.14,-29.8 37.13,-53.47 67.11,-66.21 31.05,-7.03 63.63,-2.15 91.25,13.73 10.04,5.18 20.78,8.91 31.89,11.07 11.09,-2.17 21.82,-5.9 31.89,-11.07 27.6,-15.88 60.17,-20.76 91.23,-13.73 29.98,12.73 53.96,36.4 67.11,66.21 4.92,9.51 11.03,18.36 18.16,26.37 9.92,4.3 20.33,7.36 30.99,9.06 32.13,3.5 61.76,18.91 83.06,43.2 16.46,27.62 21.91,60.43 15.27,91.89 -1.74,10.86 -1.95,21.87 -0.66,32.79 5.2,8.94 11.52,17.23 18.83,24.57 24.53,21.87 39.84,52.3 42.73,85.04 -2.89,32.77 -18.2,63.18 -42.73,85.06 -7.23,7.4 -13.55,15.66 -18.83,24.59 -1.29,10.9 -1.07,21.93 0.66,32.77 6.64,31.46 1.19,64.29 -15.27,91.91 -9.8,11.17 -21.37,20.47 -34.14,27.58l139.56 206.94c27.3,40.53 16.62,95.52 -23.91,122.85 -14.65,9.9 -31.95,15.16 -49.63,15.12 -8.71,-0.02 -17.36,-1.31 -25.7,-3.77l-64 -19.47 -6.43 66.87c-3.32,37.34 -29.88,68.51 -66.23,77.75 -7.17,1.76 -14.53,2.64 -21.91,2.64 -29.51,-0.02 -57.07,-14.71 -73.51,-39.2l-96.56 -143.94 -96.56 143.94c-16.46,24.49 -44.04,39.18 -73.53,39.2 -7.4,0 -14.75,-0.88 -21.93,-2.64 -36.33,-9.24 -62.87,-40.41 -66.21,-77.75l-6.43 -66.87 -64 19.47c-8.34,2.46 -16.99,3.75 -25.68,3.77 -48.88,0.1 -88.57,-39.45 -88.65,-88.32 -0.04,-17.69 5.23,-35 15.14,-49.65l0 0 137.24 -208.25c-11.85,-6.95 -22.62,-15.78 -31.83,-26.27 -16.46,-27.62 -21.93,-60.45 -15.27,-91.91 1.72,-10.84 1.95,-21.87 0.64,-32.77 -5.2,-8.98 -11.52,-17.23 -18.81,-24.59 -24.57,-21.87 -39.84,-52.28 -42.75,-85.06 2.91,-32.73 18.18,-63.16 42.75,-85.04z"/>
   <path class="fil2" d="M3144.75 1063l-1727.39 0c-97.81,0.14 -177.04,79.39 -177.16,177.18l0 2258.91c0,16.39 0.66,32.32 2.21,48.04 0.66,8.63 1.54,17.05 2.87,25.47 24.57,186.91 143.06,325.1 282.82,325.1l1904.55 0c161.46,0 287.92,-175.17 287.92,-398.62 0,-223.47 -126.46,-398.64 -287.92,-398.64l-110.74 0 0 -1860.27c-0.12,-97.79 -79.35,-177.04 -177.16,-177.18z"/>
   <path class="fil0" d="M3432.65 3189.05l0 0c108.04,0 199.33,141.97 199.33,310.05 0,168.06 -91.29,310.05 -199.33,310.05l-1723.79 0c62.17,-73.75 98.94,-165.52 104.92,-261.77 1.56,-15.96 2.23,-31.89 2.23,-48.28 0,-126.54 -40.62,-237.51 -105.09,-310.05l1721.74 0zm-1627.72 -310.07l0 0 1085.13 0c24.49,0 44.3,19.84 44.3,44.3 0,24.47 -19.8,44.3 -44.3,44.3l-1085.13 0c-24.47,0 -44.31,-19.82 -44.31,-44.3 0,-24.45 19.84,-44.3 44.31,-44.3zm-44.31 -177.16l0 0c0.1,-24.41 19.88,-44.22 44.31,-44.3l199.31 0c24.47,0 44.3,19.84 44.3,44.3 0,24.45 -19.82,44.3 -44.3,44.3l-199.31 0c-24.43,-0.06 -44.22,-19.84 -44.31,-44.3zm376.51 0l0 0c0.06,-24.41 19.84,-44.22 44.3,-44.3l332.17 0c24.45,0 44.3,19.84 44.3,44.3 0,24.45 -19.84,44.3 -44.3,44.3l-332.17 0c-24.45,-0.06 -44.24,-19.84 -44.3,-44.3zm752.94 44.3l0 0 -199.31 0c-24.45,0 -44.28,-19.84 -44.28,-44.3 0,-24.45 19.82,-44.3 44.28,-44.3l199.31 0c24.49,0 44.3,19.84 44.3,44.3 0,24.45 -19.8,44.3 -44.3,44.3zm0 -221.46l0 0 -1085.13 0c-24.47,0 -44.31,-19.84 -44.31,-44.3 0,-24.45 19.84,-44.3 44.31,-44.3l1085.13 0c24.49,0 44.3,19.84 44.3,44.3 0,24.45 -19.8,44.3 -44.3,44.3zm-1439.47 -1151.61l0 0 509.37 0c24.45,0 44.28,19.84 44.28,44.3 0,24.45 -19.82,44.3 -44.28,44.3l-509.37 0c-24.47,0 -44.3,-19.84 -44.3,-44.3 0,-24.45 19.82,-44.3 44.3,-44.3zm0 177.16l0 0 730.83 0c24.45,0 44.3,19.84 44.3,44.3 0,24.49 -19.84,44.3 -44.3,44.3l-730.83 0c-24.47,0 -44.3,-19.8 -44.3,-44.3 0,-24.45 19.82,-44.3 44.3,-44.3zm0 265.77l0 0c-24.47,0 -44.3,-19.82 -44.3,-44.3 0,-24.47 19.82,-44.3 44.3,-44.3l730.83 0c24.45,0 44.3,19.82 44.3,44.3 0,24.47 -19.84,44.3 -44.3,44.3l-730.83 0z"/>
   <path class="fil3" d="M2904.64 1909.96c-4.77,6.13 -8.98,12.71 -12.58,19.63 -13.14,29.8 -37.13,53.49 -67.11,66.23 -8.36,2.77 -17.11,4.18 -25.92,4.2 -22.77,-1.48 -45,-7.58 -65.31,-17.95 -10.08,-5.18 -20.8,-8.91 -31.89,-11.05 -11.11,2.15 -21.85,5.88 -31.89,11.05 -27.62,15.88 -60.19,20.78 -91.25,13.75 -29.98,-12.73 -53.96,-36.42 -67.11,-66.23 -4.02,-7.77 -8.83,-15.08 -14.34,-21.85l-149.76 227.16 167.86 -50.94 16.39 174.95 116.69 -174.07 10.41 -15.27c5.55,-1.78 10.88,-3.32 15.74,-4.88 8.79,-2.97 17.97,-4.69 27.24,-5.08 14.71,1.25 29.18,4.59 42.95,9.96l127.12 189.35 16.39 -174.95 167.88 50.94 -151.54 -224.93zm-202.8 -381.88c48.9,0 88.57,39.67 88.57,88.59 0,48.92 -39.67,88.57 -88.57,88.57 -48.92,0 -88.59,-39.65 -88.59,-88.57 0,-48.92 39.67,-88.59 88.59,-88.59zm-252.9 170.75c5.9,22.46 7.03,45.94 3.32,68.86 -1.48,10.27 -1.76,20.68 -0.9,31.01 9.69,4 19.78,6.95 30.12,8.85 22.83,3.55 44.71,11.76 64.22,24.14 17.66,14.61 32.05,32.69 42.3,53.16 4.92,9.45 10.96,18.3 17.95,26.35 9.84,-2.52 19.41,-6 28.55,-10.39 20.94,-10.78 43.85,-17.03 67.34,-18.4 23.46,1.37 46.4,7.62 67.3,18.4 9.16,4.39 18.73,7.87 28.57,10.39 7.01,-8.05 13.01,-16.89 17.93,-26.35 10.33,-20.43 24.73,-38.53 42.3,-53.16 19.53,-12.38 41.38,-20.59 64.24,-24.14 10.31,-1.89 20.41,-4.84 30.12,-8.85 0.9,-10.33 0.59,-20.74 -0.88,-31.01 -3.71,-22.93 -2.6,-46.4 3.32,-68.86 8.2,-21.11 20.8,-40.21 36.99,-56.05 7.75,-7.77 14.45,-16.56 19.92,-26.11 -5.47,-9.55 -12.17,-18.32 -19.92,-26.13 -16.19,-15.84 -28.79,-34.94 -36.99,-56.03 -5.92,-22.48 -7.03,-45.96 -3.32,-68.88 1.46,-10.25 1.78,-20.66 0.88,-30.99 -9.71,-4 -19.8,-6.97 -30.12,-8.87 -22.85,-3.54 -44.71,-11.74 -64.24,-24.14 -17.62,-14.59 -32.01,-32.69 -42.3,-53.14 -4.92,-9.45 -10.92,-18.32 -17.93,-26.35 -9.84,2.5 -19.41,6 -28.57,10.39 -20.9,10.76 -43.85,17.03 -67.3,18.38 -23.5,-1.35 -46.4,-7.62 -67.34,-18.38 -9.14,-4.39 -18.71,-7.89 -28.55,-10.39 -6.99,8.03 -13.03,16.89 -17.95,26.35 -10.31,20.43 -24.71,38.51 -42.3,53.14 -19.51,12.4 -41.38,20.6 -64.22,24.14 -10.33,1.89 -20.43,4.86 -30.12,8.87 -0.86,10.33 -0.59,20.74 0.9,30.99 3.71,22.93 2.58,46.4 -3.32,68.88 -8.2,21.09 -20.82,40.19 -36.99,56.03 -7.97,7.91 -14.77,16.93 -20.16,26.8 5.82,9.16 12.56,17.71 20.16,25.45 16.17,15.84 28.79,34.94 36.99,56.05zm252.9 -259.34l0 0c97.85,0 177.16,79.33 177.16,177.18 0,97.83 -79.31,177.16 -177.16,177.16 -97.85,0 -177.16,-79.33 -177.16,-177.16 -0.04,-97.83 79.23,-177.14 177.06,-177.18 0.02,0 0.06,0 0.1,0z"/>
   <path class="fil0" d="M2480.38 68.88c-641.4,0 -1252.39,251.88 -1706,705.5 -453.59,453.59 -705.5,1064.6 -705.5,1705.98 0,641.38 251.9,1252.39 705.5,1705.98 453.61,453.61 1064.6,705.5 1706,705.5 638.78,0 1255.14,-251.65 1705.83,-705.34 452.03,-455.04 705.65,-1064.25 705.65,-1706.14 0,-638.76 -251.67,-1255.16 -705.34,-1705.83 -455.04,-452.03 -1064.25,-705.65 -1706.14,-705.65zm0 -68.88c684.03,0 1302.64,279.56 1754.69,725.67 446.11,446.09 725.67,1070.66 725.67,1754.69 0,684.03 -279.56,1302.64 -725.67,1754.69 -446.11,446.11 -1070.66,725.67 -1754.69,725.67 -684.05,0 -1302.66,-279.56 -1754.71,-725.67 -446.11,-452.05 -725.67,-1070.66 -725.67,-1754.69 0,-684.03 279.56,-1302.64 725.67,-1754.69 452.05,-446.11 1070.66,-725.67 1754.71,-725.67z"/>
  </g>
 </g>
</svg>
