<?xml version="1.0" encoding="UTF-8"?>
<!DOCTYPE svg PUBLIC "-//W3C//DTD SVG 1.1//EN" "http://www.w3.org/Graphics/SVG/1.1/DTD/svg11.dtd">
<!-- Creator: CorelDRAW 2019 (64-Bit) -->
<svg xmlns="http://www.w3.org/2000/svg" xml:space="preserve" width="25.4001mm" height="25.4mm" version="1.1" style="shape-rendering:geometricPrecision; text-rendering:geometricPrecision; image-rendering:optimizeQuality; fill-rule:evenodd; clip-rule:evenodd"
viewBox="0 0 450.7 450.7"
 xmlns:xlink="http://www.w3.org/1999/xlink"
 xmlns:xodm="http://www.corel.com/coreldraw/odm/2003">
 <defs>
  <style type="text/css">
   <![CDATA[
    .fil0 {fill:#336666}
    .fil1 {fill:white}
    .fil2 {fill:#FE4F3E;fill-rule:nonzero}
   ]]>
  </style>
 </defs>
 <g id="Layer_x0020_1">
  <metadata id="CorelCorpID_0Corel-Layer"/>
  <g id="_1313194273392">
   <path class="fil0" d="M361.53 89.17c36.21,36.21 56.74,84.84 56.74,136.18 0,51.34 -20,99.97 -56.74,136.18 -36.21,36.21 -84.84,56.74 -136.18,56.74 -51.34,0 -99.97,-20 -136.18,-56.74 -36.21,-36.75 -56.74,-84.84 -56.74,-136.18 0,-51.34 20,-99.97 56.74,-136.18 36.21,-36.75 84.84,-56.74 136.18,-56.74 51.34,0 99.97,20 136.18,56.74l0 0z"/>
   <path class="fil0" d="M225.35 6.26c-58.27,0 -113.78,22.88 -155,64.1 -41.21,41.21 -64.1,96.72 -64.1,154.99 0,58.27 22.89,113.78 64.1,154.99 41.21,41.21 96.72,64.1 155,64.1 58.04,0 114.03,-22.86 154.98,-64.08 41.07,-41.34 64.11,-96.69 64.11,-155.01 0,-58.03 -22.86,-114.04 -64.08,-154.98 -41.34,-41.07 -96.69,-64.11 -155.01,-64.11zm0 -6.26c62.15,0 118.35,25.4 159.42,65.93 40.53,40.53 65.93,97.27 65.93,159.42 0,62.15 -25.4,118.35 -65.93,159.42 -40.53,40.53 -97.27,65.93 -159.42,65.93 -62.15,0 -118.35,-25.4 -159.42,-65.93 -40.53,-41.07 -65.93,-97.27 -65.93,-159.42 0,-62.15 25.4,-118.35 65.93,-159.42 41.07,-40.53 97.27,-65.93 159.42,-65.93z"/>
   <g>
    <path class="fil1" d="M206.57 133.48c0.86,1.44 1.91,2.72 2.75,4.12 11.84,15.88 29.28,26.27 48.74,29.72 8.83,1.57 17.89,1.42 26.73,-0l1.07 -0.17 0 1.08c0,1.32 -0.28,2.6 -0.28,3.9l0 0.06 -0.01 0.06c-4.52,33.09 -34.81,56.22 -67.93,51.79 -27.82,-3.72 -49.49,-26.13 -52.08,-54.06l-0.07 -0.73 0.7 -0.23c11.77,-3.83 22.48,-11.24 30.23,-20.88 3.55,-4.41 6.32,-9.35 8.51,-14.55l0.71 -1.68 0.94 1.56zm-13.05 -30.68c-6.58,3.58 -12.83,7.95 -18.02,13.41 -0.19,0.19 -0.37,0.37 -0.54,0.54 -9.84,10.4 -16.25,23.38 -18.15,37.62l-0 0.3c-0.55,5.5 -0.58,11.03 -0,16.53 3.33,31.39 27.8,56.57 59.13,60.78 37.59,5.05 72.61,-21.45 77.56,-59.11 0.28,-2.54 0.55,-5.14 0.55,-7.7 0,-1.67 0,-3.33 0,-4.98 -1.68,-33.24 -26.63,-60.29 -59.74,-64.63 -2.6,-0.52 -4.99,-0.54 -7.65,-0.54 -10.56,-0.25 -22.64,2.05 -31.84,7.4l-0.11 0.07 -0.07 0.01c-0.31,0.1 -0.75,0.24 -1.12,0.3z"/>
    <path class="fil2" d="M202.79 304.5l7.98 22.79 29.34 0 7.78 -22.6 -0.01 -0.01 -15.34 -27.05c-0.73,-1.45 -0.4,-3 0.75,-4.14 5.62,-5.37 13.16,-14.85 9.37,-23.18 -2.87,-6.31 -10.81,-8.68 -17.12,-9.23 -0.09,0 -0.17,0 -0.26,0 -0.09,0 -0.17,-0 -0.22,-0 -6.39,0.56 -14.44,2.96 -17.31,9.34 -3.75,8.34 3.86,17.75 9.54,23.09 1.13,1.13 1.45,2.68 0.71,4.17l-15.22 26.84z"/>
    <path class="fil1" d="M253.35 304.61l-7.83 22.68 80.94 0c0.15,0 0.31,0 0.46,0 5.91,-1.3 8.81,-7.89 10.32,-13.14 0,-0.14 0,-0.28 0,-0.43l0 -0.06 0.01 -0.06c2.05,-14.55 -0.39,-34.61 -14.1,-43.15 -14.02,-9.56 -33.2,-16.06 -49.32,-21.06 -0.73,-0.18 -1.36,0.23 -1.7,0.87l-18.64 53.97c-0.04,0.13 -0.08,0.26 -0.13,0.38z"/>
    <path class="fil1" d="M197.35 304.61l7.83 22.68 -80.94 0c-0.15,0 -0.31,0 -0.46,0 -5.91,-1.3 -8.81,-7.89 -10.32,-13.14 0,-0.14 0,-0.28 0,-0.43l0 -0.06 -0.01 -0.06c-2.05,-14.55 0.39,-34.61 14.1,-43.15 14.02,-9.56 33.2,-16.06 49.32,-21.06 0.73,-0.18 1.36,0.23 1.7,0.87l18.64 53.97c0.04,0.13 0.08,0.26 0.13,0.38z"/>
   </g>
  </g>
 </g>
</svg>
