<?xml version="1.0" encoding="UTF-8"?>
<!DOCTYPE svg PUBLIC "-//W3C//DTD SVG 1.1//EN" "http://www.w3.org/Graphics/SVG/1.1/DTD/svg11.dtd">
<!-- Creator: CorelDRAW 2019 (64-Bit) -->
<svg xmlns="http://www.w3.org/2000/svg" xml:space="preserve" width="8.5082mm" height="8.4667mm" version="1.1" style="shape-rendering:geometricPrecision; text-rendering:geometricPrecision; image-rendering:optimizeQuality; fill-rule:evenodd; clip-rule:evenodd"
viewBox="0 0 133.82 133.17"
 xmlns:xlink="http://www.w3.org/1999/xlink"
 xmlns:xodm="http://www.corel.com/coreldraw/odm/2003">
 <defs>
  <style type="text/css">
   <![CDATA[
    .fil0 {fill:white;fill-rule:nonzero}
   ]]>
  </style>
 </defs>
 <g id="Layer_x0020_1">
  <metadata id="CorelCorpID_0Corel-Layer"/>
  <g id="_1313054916464">
   <g>
    <path class="fil0" d="M130.49 133.17l-127.62 0c-1.66,0 -2.77,-1.11 -2.77,-2.77l0 -77.68c0,-0.83 0.28,-1.66 1.11,-2.22l24.97 -19.42c0.83,-0.56 1.94,-0.83 3.05,-0.28 0.83,0.56 1.66,1.39 1.66,2.5l0 40.5 22.75 20.53 26.36 0 23.03 -20.81 0 -40.5c0,-1.11 0.56,-1.94 1.67,-2.5 0.83,-0.56 2.22,-0.28 3.05,0.28l24.97 19.7c0.56,0.56 1.11,1.39 1.11,2.22l0 77.68c-0.56,1.66 -1.67,2.77 -3.33,2.77zm-124.84 -5.55l122.07 0 0 -73.52 -19.42 -15.26 0 36.07c0,0.83 -0.28,1.66 -0.83,1.94l-24.97 22.19c-0.56,0.56 -1.11,0.83 -1.94,0.83l-28.3 0c-0.56,0 -1.39,-0.28 -1.94,-0.83l-24.41 -22.19c-0.55,-0.28 -0.83,-1.11 -0.83,-1.94l0 -36.07 -19.42 15.26 0 73.52z"/>
   </g>
   <g>
    <path class="fil0" d="M52.26 99.87c-0.56,0 -1.39,-0.28 -1.94,-0.83l-49.38 -44.39c-0.55,-0.56 -0.83,-1.11 -0.83,-1.94 0,-0.83 0.56,-1.66 1.11,-2.22l24.97 -19.42c0.83,-0.56 1.94,-0.83 3.05,-0.28 0.83,0.56 1.66,1.39 1.66,2.5l0 40.5 23.58 21.36c1.11,1.11 1.11,2.77 0.28,3.88 -0.83,0.56 -1.67,0.83 -2.5,0.83zm-44.94 -46.89l17.76 16.09 0 -30.24 -17.76 14.15z"/>
   </g>
   <g>
    <path class="fil0" d="M80.55 99.87c-0.83,0 -1.39,-0.28 -1.94,-0.83 -1.11,-1.11 -0.83,-2.77 0.28,-3.88l23.86 -21.36 0 -40.5c0,-1.11 0.56,-1.94 1.66,-2.5 0.83,-0.56 2.22,-0.28 3.05,0.28l24.97 19.42c0.55,0.56 1.11,1.39 1.11,2.22 0,0.83 -0.28,1.66 -0.83,2.22l-49.94 44.39c-0.83,0.28 -1.39,0.56 -2.22,0.56zm27.74 -61.03l0 29.69 17.76 -15.81 -17.76 -13.87z"/>
   </g>
   <g>
    <path class="fil0" d="M130.49 133.17l-127.62 0c-1.11,0 -2.22,-0.83 -2.77,-1.94 -0.28,-1.11 0,-2.5 1.11,-3.05l49.38 -33.29c0.56,-0.28 1.11,-0.56 1.66,-0.56l28.3 0c0.56,0 1.11,0.28 1.66,0.56l49.94 33.29c1.11,0.56 1.39,1.94 1.11,3.05 -0.28,1.11 -1.67,1.94 -2.77,1.94zm-118.46 -5.55l109.31 0 -41.61 -27.74 -26.63 0 -41.06 27.74z"/>
   </g>
   <g>
    <path class="fil0" d="M81.66 99.87l-30.52 0 -26.08 -23.58 0 -67.97c0,-4.72 3.61,-8.32 8.32,-8.32l66.58 0c4.72,0 8.32,3.61 8.32,8.32l0 67.69 -26.63 23.86zm-28.3 -5.55l26.36 0 23.03 -20.81 0 -65.19c0,-1.67 -1.11,-2.77 -2.77,-2.77l-66.58 0c-1.67,0 -2.77,1.11 -2.77,2.77l0 65.47 22.75 20.53z"/>
   </g>
   <g>
    <path class="fil0" d="M61.13 36.07l-22.19 0 0 -22.2 22.19 0 0 22.2zm-16.65 -5.55l11.1 0 0 -11.1 -11.1 0 0 11.1z"/>
   </g>
   <g>
    <path class="fil0" d="M91.65 27.74l-19.42 0c-1.66,0 -2.77,-1.11 -2.77,-2.77 0,-1.66 1.11,-2.77 2.77,-2.77l19.42 0c1.67,0 2.77,1.11 2.77,2.77 0,1.66 -1.39,2.77 -2.77,2.77z"/>
   </g>
   <g>
    <path class="fil0" d="M91.65 49.94l-49.94 0c-1.66,0 -2.77,-1.11 -2.77,-2.77 0,-1.66 1.11,-2.77 2.77,-2.77l49.94 0c1.67,0 2.77,1.11 2.77,2.77 0,1.66 -1.39,2.77 -2.77,2.77z"/>
   </g>
   <g>
    <path class="fil0" d="M91.65 63.81l-49.94 0c-1.66,0 -2.77,-1.11 -2.77,-2.77 0,-1.67 1.11,-2.77 2.77,-2.77l49.94 0c1.67,0 2.77,1.11 2.77,2.77 0,1.66 -1.39,2.77 -2.77,2.77z"/>
   </g>
  </g>
 </g>
</svg>
