<?xml version="1.0" encoding="UTF-8"?>
<!DOCTYPE svg PUBLIC "-//W3C//DTD SVG 1.1//EN" "http://www.w3.org/Graphics/SVG/1.1/DTD/svg11.dtd">
<!-- Creator: CorelDRAW 2019 (64-Bit) -->
<svg xmlns="http://www.w3.org/2000/svg" xml:space="preserve" width="9.8271mm" height="7.9649mm" version="1.1" style="shape-rendering:geometricPrecision; text-rendering:geometricPrecision; image-rendering:optimizeQuality; fill-rule:evenodd; clip-rule:evenodd"
viewBox="0 0 57.23 46.39"
 xmlns:xlink="http://www.w3.org/1999/xlink"
 xmlns:xodm="http://www.corel.com/coreldraw/odm/2003">
 <defs>
  <style type="text/css">
   <![CDATA[
    .fil0 {fill:white}
   ]]>
  </style>
 </defs>
 <g id="Layer_x0020_1">
  <metadata id="CorelCorpID_0Corel-Layer"/>
  <g id="_1313054913680">
   <g>
    <path class="fil0" d="M52.82 31.15l-3.02 4.08 0.46 -3.95c-1.03,0.57 -1.68,0.89 -1.81,2.38 -0.06,0.68 -0.18,1.39 -0.27,2.07l-0.11 0.74 -2.29 -8.97 0.19 0c0.48,0 0.97,0 1.45,0 -0.42,-0.86 -0.65,-1.79 -0.65,-2.75 0,-3.11 2.33,-5.96 5.54,-5.96 0.27,0 0.54,0.03 0.81,0.08 0,-0.43 0,-0.86 0,-1.29 0,-2.59 -2.15,-3.54 -4.41,-3.16l-3.02 4.08 0.46 -3.95c-1.03,0.57 -1.68,0.89 -1.81,2.38 -0.07,0.82 -0.22,1.67 -0.33,2.48l-0.11 0.74 -0.32 -1.27c-0.11,-0.45 -0.52,-0.77 -0.98,-0.77l-5.88 0 0 -0.15c0,-1.88 0,-3.77 0,-5.65 0,-1.35 -3.26,-1.97 -4.4,-2.14l-2.54 4.63 -0.72 -2.94 0.98 -0.6c0.09,-0.05 0.09,-0.1 0,-0.15l-1.17 -0.71c-0.14,-0.08 -0.38,-0.09 -0.52,0l-1.17 0.71c-0.09,0.06 -0.09,0.1 -0,0.16l0.99 0.6 -0.72 2.94 -2.54 -4.63c-1.14,0.16 -4.4,0.79 -4.4,2.14 0,1.88 0,3.77 0,5.65l0 0.15 -5.88 0c-0.47,0 -0.87,0.32 -0.99,0.77l-0.32 1.27 -0.1 -0.74c-0.11,-0.81 -0.26,-1.66 -0.33,-2.48 -0.13,-1.49 -0.79,-1.81 -1.81,-2.38l0.46 3.94 -3.02 -4.08c-2.26,-0.38 -4.41,0.58 -4.41,3.16 0,0.43 0,0.86 0,1.29 0.27,-0.04 0.54,-0.08 0.81,-0.08 3.21,0 5.54,2.85 5.54,5.96 0,0.96 -0.23,1.89 -0.65,2.75 0.48,0 0.97,0 1.45,0l0.19 0 -2.29 8.96 -0.11 -0.74c-0.1,-0.68 -0.21,-1.38 -0.27,-2.07 -0.13,-1.49 -0.79,-1.81 -1.81,-2.38l0.46 3.95 -3.02 -4.08c-2.26,-0.38 -4.41,0.57 -4.41,3.16 0,2.38 0,4.76 0,7.14 0,1.77 2.03,2.78 3.6,2.78 1.13,0 2.26,0 3.39,0l0.19 0 -0.23 0.89c-0.08,0.3 -0.01,0.63 0.18,0.87 0.19,0.25 0.49,0.39 0.8,0.39l41.39 0c0.56,0 1.02,-0.45 1.02,-1.02 0,-0.17 -0.04,-0.33 -0.14,-0.52l-0.16 -0.62 0.19 0c1.13,0 2.26,0 3.39,0 1.57,0 3.6,-1.01 3.6,-2.78 0,-2.38 0,-4.76 0,-7.14 -0,-2.59 -2.15,-3.54 -4.41,-3.16zm-43.57 13.21l6.17 -24.21 26.39 0 6.17 24.21 -38.73 0z"/>
   </g>
   <g>
    <ellipse class="fil0" cx="52.32" cy="24.75" rx="4.07" ry="4.49"/>
   </g>
   <g>
    <ellipse class="fil0" cx="48.22" cy="8.02" rx="4.08" ry="4.49"/>
   </g>
   <g>
    <ellipse class="fil0" cx="4.91" cy="24.75" rx="4.07" ry="4.49"/>
   </g>
   <g>
    <ellipse class="fil0" cx="9.02" cy="8.02" rx="4.08" ry="4.49"/>
   </g>
   <g>
    <ellipse class="fil0" cx="28.62" cy="4.49" rx="4.07" ry="4.49"/>
   </g>
  </g>
 </g>
</svg>
