<?xml version="1.0" encoding="UTF-8"?>
<!DOCTYPE svg PUBLIC "-//W3C//DTD SVG 1.1//EN" "http://www.w3.org/Graphics/SVG/1.1/DTD/svg11.dtd">
<!-- Creator: CorelDRAW 2019 (64-Bit) -->
<svg xmlns="http://www.w3.org/2000/svg" xml:space="preserve" width="9.8278mm" height="7.2492mm" version="1.1" style="shape-rendering:geometricPrecision; text-rendering:geometricPrecision; image-rendering:optimizeQuality; fill-rule:evenodd; clip-rule:evenodd"
viewBox="0 0 683.88 504.44"
 xmlns:xlink="http://www.w3.org/1999/xlink"
 xmlns:xodm="http://www.corel.com/coreldraw/odm/2003">
 <defs>
  <style type="text/css">
   <![CDATA[
    .fil0 {fill:white}
   ]]>
  </style>
 </defs>
 <g id="Layer_x0020_1">
  <metadata id="CorelCorpID_0Corel-Layer"/>
  <g id="_1313054916112">
   <g>
    <path class="fil0" d="M381.27 148.79c-26.78,0 -48.42,21.68 -48.42,48.41 0,26.78 21.68,48.42 48.42,48.42 26.32,0 48.41,-22.1 48.41,-48.47 0.86,-26.91 -21.88,-48.36 -48.41,-48.36zm0 74.83c-14.18,0 -25.54,-11.36 -25.54,-25.55 0,-14.18 11.36,-25.53 25.54,-25.53 14.17,0 25.53,11.32 25.53,25.43 1,13.94 -12.06,25.64 -25.53,25.64z"/>
   </g>
   <g>
    <path class="fil0" d="M339.01 479.8c0.29,0 0.58,0 0.88,0l0.88 0c0.29,0 0.58,0 0.88,0 0.29,0 0.59,0 0.88,0 48.63,0 96.56,-7.8 141.98,-25.41l1.08 -0.42 38.67 38.67c7.34,7.35 17.37,11.81 27.8,11.81 10.89,0 20.14,-4.16 27.81,-11.81l2.64 -2.64c7.35,-7.33 11.8,-17.37 11.8,-27.8 0,-10.43 -4.46,-20.47 -11.81,-27.81l-20.81 -20.81 1.62 -1.22c38.89,-29.34 70.78,-66.91 94.16,-109.59 12.01,-21.93 17.06,-38.38 25.94,-60.57 0.63,-1.26 0.63,-3.32 -0.1,-4.82 -50.33,-152.2 -178.91,-236.36 -339.03,-237.38 -0.29,0 -0.58,0 -0.88,0l-0.88 0c-0.29,0 -0.59,0 -0.88,0 -0.29,0 -0.58,0 -0.87,0 -161.41,0.51 -289.74,84.13 -340.73,236.96 0,2.05 0,3.83 -0.05,5.6 50.9,152.29 178.28,236.21 339.01,237.23zm233.31 -17.6c0,4.55 -1.71,8.6 -4.92,11.82l-2.64 2.64c-6.56,6.56 -17.47,7.2 -23.66,-0.03l-75.17 -75.17 6.72 -6.69c6.72,-5.04 12.75,-10.99 18.2,-17.35l1.25 -1.45 74.28 74.3c3.97,2.98 5.94,6.98 5.94,11.94zm-228.9 -43.14c-98.7,0 -178.73,-80.02 -178.73,-178.73 0,-98.7 80.02,-178.72 178.73,-178.72 98.69,0 178.72,80.02 178.72,178.72 0,41.54 -14.39,81.81 -41.01,113.94l-23.9 23.88c-32.3,26.76 -71.81,40.9 -113.82,40.9zm-2.64 -397.07l0.88 0c0.3,0 0.59,0 0.89,0 93.97,0.34 181.59,28.8 247.01,98.17 29.7,31.49 58,76.66 69.86,118.82l0.14 0.51 -0.16 0.5c-18.87,59.78 -62.17,118.24 -112.44,154.96l-1.22 0.89 -38.21 -38.2 0.83 -1.21c23.67,-34.59 36.67,-74.07 36.67,-116.1 0,-111.25 -90.3,-201.6 -201.6,-201.6 -111.25,0 -201.61,90.3 -201.61,201.6 0,111.71 89.89,201.61 201.61,201.61 35.58,0 70.6,-9.92 101.23,-27.93l1.18 -0.7 23.18 23.19 -2.63 0.94c-39.57,14.14 -81.96,19.48 -123.84,19.48 -0.29,0 -0.59,0 -0.88,0 -0.29,0 -0.59,0 -0.88,0 -93.97,-0.34 -181.59,-28.8 -247.02,-98.17 -29.69,-31.47 -58.01,-76.66 -69.86,-118.81l-0.13 -0.48 0.13 -0.48c11.89,-42.28 40.1,-87.53 69.86,-119.15 65.39,-69.49 152.99,-97.84 247.02,-97.84z"/>
   </g>
   <g>
    <path class="fil0" d="M498.36 240.34c0,-85.3 -69.64,-154.93 -154.94,-154.93 -85.3,0 -154.95,69.63 -154.95,154.93 0,85.31 69.64,154.94 154.95,154.94 85.72,0 154.94,-69.18 154.94,-154.94zm-154.94 132.07c-73.17,0 -132.07,-58.9 -132.07,-132.07 0,-73.17 58.9,-132.06 132.07,-132.06 73.16,0 132.06,58.9 132.06,132.06 0,73.17 -58.89,132.07 -132.06,132.07z"/>
   </g>
  </g>
 </g>
</svg>
