<?xml version="1.0" encoding="UTF-8"?>
<!DOCTYPE svg PUBLIC "-//W3C//DTD SVG 1.1//EN" "http://www.w3.org/Graphics/SVG/1.1/DTD/svg11.dtd">
<!-- Creator: CorelDRAW 2019 (64-Bit) -->
<svg xmlns="http://www.w3.org/2000/svg" xml:space="preserve" width="9.9308mm" height="9.9286mm" version="1.1" style="shape-rendering:geometricPrecision; text-rendering:geometricPrecision; image-rendering:optimizeQuality; fill-rule:evenodd; clip-rule:evenodd"
viewBox="0 0 400.37 400.28"
 xmlns:xlink="http://www.w3.org/1999/xlink"
 xmlns:xodm="http://www.corel.com/coreldraw/odm/2003">
 <defs>
  <style type="text/css">
   <![CDATA[
    .fil0 {fill:white}
   ]]>
  </style>
 </defs>
 <g id="Layer_x0020_1">
  <metadata id="CorelCorpID_0Corel-Layer"/>
  <path class="fil0" d="M227.73 41.6c14.04,5.12 26.52,13.67 36.41,24.87l47.5 0.01c0.44,-0.08 0.84,-0.11 1.28,-0.11 0.44,0 0.84,0.04 1.2,0.1l1.42 0.33c3.03,1.07 5.11,3.96 5.11,7.33 0,6.76 3.59,12.98 9.45,16.36 5.85,3.38 13.03,3.38 18.88,0 5.85,-3.38 9.44,-9.6 9.44,-16.46 0,-4.23 3.43,-7.66 7.79,-7.66 4.18,0.06 7.54,3.47 7.54,7.76 0,10.82 -5.3,20.79 -13.91,27.21l40.02 114.36c0.34,0.88 0.52,1.81 0.52,2.76 0,0.46 -0.04,0.85 -0.12,1.16 0.02,0.19 0.03,0.31 0.04,0.52 0,21.69 -11.59,41.76 -30.38,52.6 -18.79,10.85 -41.97,10.85 -60.76,0 -18.79,-10.85 -30.38,-30.91 -30.38,-52.64 0.01,-0.24 0.03,-0.41 0.06,-0.5 -0.06,-0.4 -0.1,-0.73 -0.1,-1.14 0,-0.94 0.18,-1.88 0.5,-2.73l40.01 -114.36c-6.48,-4.82 -11.03,-11.71 -12.85,-19.57l-78.68 0 0 18.78c0,3.86 -2.86,7.06 -6.58,7.58l0 225.41c18.05,3.05 37,10.7 49.17,24.83l29.47 0c4.23,0 7.66,3.43 7.66,7.66l0 26.55c0,4.23 -3.43,7.66 -7.66,7.66l-199.18 0c-4.23,0 -7.66,-3.43 -7.66,-7.66l0 -26.55c0,-4.23 3.43,-7.66 7.66,-7.66l29.55 0c12.14,-14.12 31.1,-21.72 49.12,-24.76l0 -225.48c-3.77,-0.48 -6.69,-3.69 -6.69,-7.6l0 -18.78 -78.68 0c-1.83,7.85 -6.37,14.7 -12.82,19.52l40.03 114.39c0.33,0.87 0.51,1.81 0.51,2.75 0,0.46 -0.04,0.85 -0.12,1.16 0.02,0.2 0.03,0.33 0.03,0.52 0,21.69 -11.59,41.76 -30.37,52.6 -18.79,10.85 -41.96,10.85 -60.76,0 -18.79,-10.85 -30.38,-30.91 -30.38,-52.64 0.01,-0.24 0.03,-0.41 0.06,-0.5 -0.06,-0.4 -0.1,-0.73 -0.1,-1.14 0,-0.94 0.18,-1.88 0.5,-2.73l40.04 -114.39c-8.63,-6.41 -13.96,-16.37 -13.96,-27.32 0,-4.18 3.36,-7.59 7.66,-7.66 4.23,0 7.66,3.43 7.66,7.76 0,6.76 3.59,12.98 9.44,16.36 5.85,3.38 13.03,3.38 18.89,0 5.85,-3.38 9.44,-9.6 9.44,-16.45 0,-3.29 2.09,-6.17 5.14,-7.23l1.31 -0.32c0.44,-0.08 0.83,-0.11 1.28,-0.11 0.44,0 0.85,0.04 1.2,0.1l47.42 -0c9.86,-11.4 22.42,-20.09 36.57,-25.25l0 -7.01c0,-1.65 0.54,-3.26 1.53,-4.58l19.91 -26.55c1.33,-1.78 3.37,-2.89 5.56,-3.05 0.23,-0.02 0.46,-0.03 0.78,-0.03 2.34,0.06 4.52,1.21 5.92,3.08l19.91 26.55c0.99,1.32 1.53,2.93 1.53,4.58l0 7.39zm-166.94 24.84c4.23,0 7.66,3.43 7.66,7.66 0,4.23 -3.43,7.66 -7.66,7.66 -4.23,0 -7.66,-3.43 -7.66,-7.66 0,-4.23 3.43,-7.66 7.66,-7.66zm278.74 0.03c4.23,0 7.66,3.43 7.66,7.66 0,4.23 -3.43,7.66 -7.66,7.66 -4.23,0 -7.66,-3.43 -7.66,-7.66 0,-4.23 3.43,-7.66 7.66,-7.66zm-139.38 -46.03l-12.24 16.34 0 56.14 24.5 0 0 -56.14 -12.25 -16.34zm-27.57 37.38c-5.1,2.33 -9.92,5.22 -14.35,8.65l14.35 0 0 -8.65zm55.14 0.31l0 8.34 13.99 0c-4.34,-3.29 -9.03,-6.09 -13.99,-8.34zm-173.15 49.43l-36.71 104.92 85.88 0 -36.72 -104.92c-4.12,0.77 -8.33,0.76 -12.45,0zm278.75 0.02l-36.72 104.89 85.88 0 -36.69 -104.89c-4.12,0.77 -8.35,0.76 -12.47,0zm-138.74 0.65l0 223.63 11.23 0 0 -223.63 -11.23 0zm-177.27 119.57c2.27,13.04 9.04,24.93 20.75,31.69 14.06,8.12 31.37,8.12 45.43,0 11.7,-6.76 18.48,-18.64 20.75,-31.69l-86.93 0zm278.75 0c2.27,13.05 9.04,24.93 20.75,31.69 14.07,8.12 31.37,8.12 45.43,0 11.7,-6.76 18.47,-18.65 20.75,-31.69l-86.93 0zm-141.74 130.61l91.86 0c-13.88,-7.97 -31.58,-11.39 -47.24,-11.22 -14.94,0.16 -31.43,3.65 -44.62,11.22zm-46.06 15.32l0 11.22 183.86 0 0 -11.22 -183.86 0z"/>
 </g>
</svg>
