<?xml version="1.0" encoding="UTF-8"?>
<!DOCTYPE svg PUBLIC "-//W3C//DTD SVG 1.1//EN" "http://www.w3.org/Graphics/SVG/1.1/DTD/svg11.dtd">
<!-- Creator: CorelDRAW 2019 (64-Bit) -->
<svg xmlns="http://www.w3.org/2000/svg" xml:space="preserve" width="9.0632mm" height="8.3656mm" version="1.1" style="shape-rendering:geometricPrecision; text-rendering:geometricPrecision; image-rendering:optimizeQuality; fill-rule:evenodd; clip-rule:evenodd"
viewBox="0 0 131.6 121.47"
 xmlns:xlink="http://www.w3.org/1999/xlink"
 xmlns:xodm="http://www.corel.com/coreldraw/odm/2003">
 <defs>
  <style type="text/css">
   <![CDATA[
    .fil0 {fill:white}
   ]]>
  </style>
 </defs>
 <g id="Layer_x0020_1">
  <metadata id="CorelCorpID_0Corel-Layer"/>
  <path class="fil0" d="M18.55 28.43l46.22 66.23 4.95 16.03 -55.76 -79.86c-1.73,-2.48 -0.64,-5.98 2.22,-6.99l23.81 -8.49 1.51 4.9 -22.95 8.18zm-13.08 50.17l41.64 20.19 13.88 11.39 -0.49 0.77 -57.87 -28.05c-7.39,-3.58 2.87,-12.14 5.65,-15.35l0.33 -0.37 3.96 3.25 -7.1 8.16zm4.16 -21.19l44.88 36.87 10.8 15.47 -59.42 -48.79c-0.95,-0.78 -1.7,-1.77 -1.77,-3.03 -0.26,-4.73 11.29,-11.12 14.8,-13.71l0.42 -0.31 2.93 4.2 -12.64 9.3zm49.14 -34.65c0.01,-1.37 1.1,-2.5 2.47,-2.56 0.03,0 0.06,-0 0.09,-0l51.78 0c1.37,0 2.5,1.08 2.56,2.45 0.06,1.41 -1.03,2.61 -2.44,2.67 -0.04,0 -0.08,0 -0.12,0l-51.78 -0c-1.37,0 -2.5,-1.08 -2.56,-2.44 0,-0.04 -0,-0.15 -0,-0.12l0 0zm72.79 50.77l-8.95 -66.51c-0.27,-1.96 -1.9,-3.46 -3.88,-3.55l-72.13 -3.46c-0.13,-0.01 -0.26,-0.01 -0.38,0 -1.21,0.06 -2.33,0.64 -3.07,1.59 -0.59,0.77 -0.9,1.72 -0.85,2.69 0.02,0.34 0.08,0.69 0.18,1.02l34.94 113.28c0.42,1.35 1.5,2.4 2.88,2.76 0.41,0.11 0.83,0.15 1.26,0.13 0.98,-0.04 1.91,-0.44 2.63,-1.12l46.14 -43.3c0.87,-0.82 1.34,-1.98 1.29,-3.17 -0.01,-0.12 -0.02,-0.24 -0.03,-0.35l0 0zm-70.18 -38.47c0.01,-1.37 1.1,-2.5 2.47,-2.56 0.03,0 0.06,-0 0.09,-0l51.78 0c1.37,0 2.5,1.08 2.56,2.45 0.06,1.41 -1.03,2.61 -2.44,2.67 -0.04,0 -0.08,0 -0.12,0l-51.78 -0c-1.37,0 -2.5,-1.08 -2.56,-2.44 0,-0.04 -0,-0.15 -0,-0.12l0 0z"/>
 </g>
</svg>
