<?xml version="1.0" encoding="UTF-8"?>
<!DOCTYPE svg PUBLIC "-//W3C//DTD SVG 1.1//EN" "http://www.w3.org/Graphics/SVG/1.1/DTD/svg11.dtd">
<!-- Creator: CorelDRAW 2019 (64-Bit) -->
<svg xmlns="http://www.w3.org/2000/svg" xml:space="preserve" width="8.2506mm" height="8.4667mm" version="1.1" style="shape-rendering:geometricPrecision; text-rendering:geometricPrecision; image-rendering:optimizeQuality; fill-rule:evenodd; clip-rule:evenodd"
viewBox="0 0 73.19 75.11"
 xmlns:xlink="http://www.w3.org/1999/xlink"
 xmlns:xodm="http://www.corel.com/coreldraw/odm/2003">
 <defs>
  <style type="text/css">
   <![CDATA[
    .fil0 {fill:white}
   ]]>
  </style>
 </defs>
 <g id="Layer_x0020_1">
  <metadata id="CorelCorpID_0Corel-Layer"/>
  <path class="fil0" d="M32.07 60.85c15.9,0 28.86,-12.96 28.86,-28.86 0,-15.9 -12.96,-28.86 -28.86,-28.86 -15.9,0 -28.86,12.96 -28.86,28.86 0,15.9 12.96,28.86 28.86,28.86zm-10.79 -25.72l-5.2 0c-0.31,0 -0.54,0.23 -0.54,0.46l0 9.36c0,0.31 0.23,0.46 0.54,0.46l5.2 0c0.31,0 0.54,-0.23 0.54,-0.46l0 -9.28c0,-0.31 -0.23,-0.54 -0.54,-0.54zm8.75 -8.82l-5.2 0c-0.31,0 -0.54,0.31 -0.54,0.61l0 17.88c0,0.38 0.23,0.61 0.54,0.61l5.2 0c0.31,0 0.54,-0.31 0.54,-0.61l0 -17.8c0,-0.38 -0.23,-0.69 -0.54,-0.69zm9.05 5.68l-5.2 0c-0.31,0 -0.54,0.31 -0.54,0.61l0 12.2c0,0.38 0.23,0.61 0.54,0.61l5.2 0c0.31,0 0.54,-0.31 0.54,-0.61l0 -12.2c0,-0.31 -0.31,-0.61 -0.54,-0.61zm8.98 -12.2l-5.2 0c-0.31,0 -0.54,0.31 -0.54,0.61l0 24.4c0,0.38 0.23,0.61 0.54,0.61l5.2 0c0.31,0 0.54,-0.31 0.54,-0.61l0 -24.32c0,-0.38 -0.23,-0.69 -0.54,-0.69zm-15.99 -19.79c-17.65,0 -32.07,14.35 -32.07,32.07 0,17.65 14.35,32.07 32.07,32.07 5.75,0 11.43,-1.61 16.42,-4.6l1.46 -0.92 15.11 15.11c0.92,0.92 2.07,1.38 3.38,1.38 1.3,0 2.45,-0.46 3.38,-1.38 0.92,-0.92 1.38,-2.07 1.38,-3.38 0,-1.3 -0.54,-2.46 -1.38,-3.38l-14.65 -14.81 1.46 -2.22c3.61,-5.29 5.52,-11.51 5.52,-17.95 0,-17.65 -14.42,-31.99 -32.07,-31.99z"/>
 </g>
</svg>
