<?xml version="1.0" encoding="UTF-8"?>
<!DOCTYPE svg PUBLIC "-//W3C//DTD SVG 1.1//EN" "http://www.w3.org/Graphics/SVG/1.1/DTD/svg11.dtd">
<!-- Creator: CorelDRAW 2019 (64-Bit) -->
<svg xmlns="http://www.w3.org/2000/svg" xml:space="preserve" width="9.1722mm" height="9.0333mm" version="1.1" style="shape-rendering:geometricPrecision; text-rendering:geometricPrecision; image-rendering:optimizeQuality; fill-rule:evenodd; clip-rule:evenodd"
viewBox="0 0 64.35 63.38"
 xmlns:xlink="http://www.w3.org/1999/xlink"
 xmlns:xodm="http://www.corel.com/coreldraw/odm/2003">
 <defs>
  <style type="text/css">
   <![CDATA[
    .fil0 {fill:white;fill-rule:nonzero}
   ]]>
  </style>
 </defs>
 <g id="Layer_x0020_1">
  <metadata id="CorelCorpID_0Corel-Layer"/>
  <path class="fil0" d="M47.14 47.21c-1.22,0.54 -3.32,1.15 -5.55,1.76 -0.75,1.35 -2.17,2.51 -4.47,3.05 -0.54,0.14 -1.15,0.2 -1.83,0.27 -1.63,0.14 -3.52,0.07 -5.62,-0.07 -0.14,0 -0.27,0 -0.41,0 -0.54,0 -0.95,-0.41 -1.02,-0.88 -0.07,-0.68 0.41,-1.22 1.08,-1.15 0.14,0 0.34,0 0.47,0 2.71,0.14 5.28,0.2 6.91,-0.13 2.98,-0.68 3.73,-2.57 3.45,-4.06 -0.2,-1.22 -1.22,-2.37 -2.64,-2.24 -2.1,0.27 -4.61,0.2 -6.98,0.14 -2.78,-0.07 -5.56,0 -7.59,0.34 -2.24,0.34 -6.64,2.24 -10.5,5.15 -1.9,1.42 -4,3.12 -5.28,4.13 -0.68,0.54 -0.75,1.49 -0.2,2.1l6.16 7.25c0.54,0.61 1.49,0.68 2.1,0.2l2.03 -1.76c0.47,-0.41 1.15,-0.54 1.76,-0.41 3.93,1.08 8.2,1.69 10.91,1.69 5.96,0 17.07,-7.52 20.25,-9.96 3.12,-2.44 0.54,-6.91 -3.05,-5.42zm7.13 -29.6l0 3.73c0,2.5 -2.06,4.55 -4.55,4.55l-16.34 0 0 -8.28 0.96 0 3.25 0c1.9,0 3.39,-1.56 3.39,-3.39l0 -10.84c0,-1.9 -1.56,-3.39 -3.39,-3.39l-10.84 0c-1.9,0 -3.39,1.56 -3.39,3.39l0 10.84c0,1.9 1.56,3.39 3.39,3.39l3.25 0 0.96 0 0 8.28 -16.34 0c-2.5,0 -4.55,-2.06 -4.55,-4.55l0 -3.73 0.96 0 3.18 0c1.9,0 3.39,-1.56 3.39,-3.39l0 -10.84c0,-1.9 -1.56,-3.39 -3.39,-3.39l-10.84 0c-1.9,0 -3.39,1.56 -3.39,3.39l0 10.84c0,1.9 1.56,3.39 3.39,3.39l1.66 0 1.66 0 0.96 0 0 3.73c0,3.84 3.13,6.96 6.96,6.96l16.34 0 0 9.57c0,0.69 0.52,1.2 1.2,1.2 0.69,0 1.2,-0.52 1.2,-1.2l0 -9.5 16.34 0c3.84,0 6.96,-3.12 6.96,-6.96l0 -3.79 4.96 0c1.56,-0.32 2.71,-1.71 2.71,-3.32l0 -10.84c0,-1.9 -1.56,-3.45 -3.39,-3.45l-10.84 0c-1.9,0 -3.39,1.56 -3.39,3.39l0 10.84c0,1.9 1.56,3.39 3.39,3.39l3.18 0 0.96 0zm1.24 -6.85l-2.11 2.11c-0.26,0.26 -0.65,0.39 -1.01,0.39 -0.38,0 -0.69,-0.15 -1.01,-0.39 -0.54,-0.54 -0.54,-1.4 0,-1.95l2.11 -2.11 -2.11 -2.11c-0.54,-0.54 -0.54,-1.4 0,-1.95 0.54,-0.54 1.4,-0.54 1.95,0l2.11 2.11 2.11 -2.11c0.54,-0.54 1.4,-0.54 1.95,0 0.54,0.54 0.54,1.4 0,1.95l-2.1 2.1 2.24 2.11c0.54,0.54 0.54,1.4 0,1.95 -0.25,0.25 -0.65,0.39 -1.01,0.39 -0.38,-0 -0.69,-0.15 -1,-0.39l-2.11 -2.11zm-24.55 -1.11l3.92 -4.77c0.48,-0.65 1.35,-0.68 1.94,-0.17 0.65,0.49 0.68,1.36 0.16,1.95l-4.94 6.03c-0.25,0.34 -0.67,0.48 -1.09,0.48 -0.41,0 -0.79,-0.17 -1.09,-0.47l-2.58 -3.19c-0.44,-0.59 -0.41,-1.45 0.17,-1.94 0.59,-0.44 1.45,-0.41 1.94,0.17l1.56 1.93zm-22.16 1.11l-2.11 2.11c-0.26,0.26 -0.65,0.39 -1.01,0.39 -0.38,0 -0.69,-0.15 -1.01,-0.39 -0.54,-0.54 -0.54,-1.4 0,-1.95l2.11 -2.11 -2.11 -2.11c-0.54,-0.54 -0.54,-1.4 0,-1.95 0.54,-0.54 1.4,-0.54 1.95,0l2.11 2.11 2.11 -2.11c0.54,-0.54 1.4,-0.54 1.95,0 0.54,0.54 0.54,1.4 0,1.95l-2.1 2.1 2.24 2.11c0.54,0.54 0.54,1.4 0,1.95 -0.25,0.25 -0.65,0.39 -1.01,0.39 -0.38,-0 -0.69,-0.15 -1,-0.39l-2.11 -2.11z"/>
 </g>
</svg>
