<?xml version="1.0" encoding="UTF-8"?>
<!DOCTYPE svg PUBLIC "-//W3C//DTD SVG 1.1//EN" "http://www.w3.org/Graphics/SVG/1.1/DTD/svg11.dtd">
<!-- Creator: CorelDRAW 2019 (64-Bit) -->
<svg xmlns="http://www.w3.org/2000/svg" xml:space="preserve" width="7.0397mm" height="8.4949mm" version="1.1" style="shape-rendering:geometricPrecision; text-rendering:geometricPrecision; image-rendering:optimizeQuality; fill-rule:evenodd; clip-rule:evenodd"
viewBox="0 0 35.99 43.43"
 xmlns:xlink="http://www.w3.org/1999/xlink"
 xmlns:xodm="http://www.corel.com/coreldraw/odm/2003">
 <defs>
  <style type="text/css">
   <![CDATA[
    .fil0 {fill:white}
   ]]>
  </style>
 </defs>
 <g id="Layer_x0020_1">
  <metadata id="CorelCorpID_0Corel-Layer"/>
  <path class="fil0" d="M5.59 6.93l-0.32 -1.66c-0.22,-1.29 0.67,-2.56 1.95,-2.79l13.71 -2.42c0.13,-0.06 0.29,-0.06 0.44,-0.06 1.18,0.01 2.16,0.85 2.38,2.01l0.32 1.66c0.22,1.29 -0.66,2.56 -1.95,2.79l-13.74 2.42c-1.29,0.23 -2.57,-0.66 -2.79,-1.95zm24.94 -2.1l5.42 31.3c0.11,0.64 -0.06,1.28 -0.42,1.81 -0.36,0.53 -0.9,0.87 -1.53,0.98l-25.7 4.48c-1.29,0.22 -2.56,-0.66 -2.79,-1.95l-5.48 -31.3c-0.11,-0.64 0.06,-1.28 0.42,-1.81 0.36,-0.53 0.9,-0.88 1.53,-0.98l2.04 -0.34 -0 0.19c0.35,1.88 1.96,3.28 3.88,3.3 0.28,0 0.5,-0.05 0.76,0.01l13.72 -2.42c2.17,-0.4 3.62,-2.46 3.25,-4.66l0 -0.16 2.07 -0.38c0.13,-0.06 0.29,-0.06 0.44,-0.06 1.18,0.01 2.16,0.85 2.38,2.01zm-14.8 26.35l11.88 -11.97 -1.29 -1.24 -10.64 10.68 -5.62 -5.61 -1.24 1.28 6.9 6.85z"/>
 </g>
</svg>
