<?xml version="1.0" encoding="UTF-8"?>
<!DOCTYPE svg PUBLIC "-//W3C//DTD SVG 1.1//EN" "http://www.w3.org/Graphics/SVG/1.1/DTD/svg11.dtd">
<!-- Creator: CorelDRAW 2019 (64-Bit) -->
<svg xmlns="http://www.w3.org/2000/svg" xml:space="preserve" width="9.2286mm" height="9.2286mm" version="1.1" style="shape-rendering:geometricPrecision; text-rendering:geometricPrecision; image-rendering:optimizeQuality; fill-rule:evenodd; clip-rule:evenodd"
viewBox="0 0 40.95 40.95"
 xmlns:xlink="http://www.w3.org/1999/xlink"
 xmlns:xodm="http://www.corel.com/coreldraw/odm/2003">
 <defs>
  <style type="text/css">
   <![CDATA[
    .fil0 {fill:white}
   ]]>
  </style>
 </defs>
 <g id="Layer_x0020_1">
  <metadata id="CorelCorpID_0Corel-Layer"/>
  <path class="fil0" d="M1.4 35.45c0.36,-1.53 1.73,-2.63 3.32,-2.63l1.84 0 0 -2.04c0,-1.5 -0.3,-2.97 -0.89,-4.35l-0.06 -0.14c-0.68,-1.58 -1.02,-3.25 -1.02,-4.96l0 -0.69c0,-2.55 1.99,-4.8 4.58,-4.88 1.29,-0.04 2.51,0.43 3.43,1.33 0.92,0.9 1.43,2.1 1.43,3.39l0 0.86c0,1.71 -0.33,3.39 -1.02,4.96l-0.06 0.14c-0.6,1.38 -0.89,2.84 -0.89,4.34l0 2.04 1.84 0c1.58,0 2.96,1.1 3.32,2.63l0.62 0c0.43,0 0.78,0.35 0.78,0.78l0 3.94c0,0.43 -0.35,0.78 -0.78,0.78l-17.07 0c-0.43,0 -0.78,-0.35 -0.78,-0.78l0 -3.94c0,-0.43 0.35,-0.78 0.78,-0.78l0.62 0zm16.98 -3.69l-1.84 0c-0.43,0 -0.78,-0.35 -0.78,-0.78l0 -30.2c0,-0.43 0.35,-0.78 0.78,-0.78l21.01 0c0.43,0 0.78,0.35 0.78,0.78l0 3.61 2.4 2.4c0.15,0.15 0.23,0.34 0.23,0.55l0 26.26c0,0.43 -0.35,0.78 -0.78,0.78l-21.01 0c-0.43,0 -0.78,-0.35 -0.78,-0.78l0 -1.84zm-10.28 -1.56l2.43 0c0.07,-1.51 0.38,-2.99 0.99,-4.38l0.06 -0.14c0.6,-1.38 0.89,-2.84 0.89,-4.34l0 -0.86c0,-0.86 -0.34,-1.67 -0.96,-2.27 -0.62,-0.6 -1.44,-0.91 -2.3,-0.89 -1.75,0.05 -3.06,1.61 -3.06,3.32l0 0.69c0,1.5 0.29,2.97 0.89,4.35l0.06 0.13c0.6,1.39 0.92,2.87 0.99,4.38zm0.03 1.56l0 1.06 2.38 0 0 -1.06 -2.38 0zm-5.07 3.69l12.51 0c-0.3,-0.64 -0.94,-1.06 -1.66,-1.06l-9.19 0c-0.72,0 -1.36,0.42 -1.66,1.06zm14.01 3.94l0 -2.38 -15.5 0 0 2.38 15.5 0zm19.94 -34.09l0 1.27 1.27 0 -1.27 -1.27zm-0.25 -2.46l0 -1.27 -19.44 0 0 28.63 1.06 0 0 -26.79c0,-0.43 0.35,-0.78 0.78,-0.78l17.07 0c0.2,0 0.39,0.07 0.53,0.21zm2.63 29.99l0 -24.69 -3.16 0c-0.43,0 -0.78,-0.35 -0.78,-0.78l0 -3.16 -15.5 0 0 28.63 19.44 0zm-18.38 -10.25l0 -1.56 10.75 0 0 1.56 -10.75 0zm0 4.6l0 -1.56 10.75 0 0 1.56 -10.75 0zm0 4.6l0 -1.56 10.75 0 0 1.56 -10.75 0zm13.32 -2.09l2.69 -3.23 1.2 1 -3.36 4.04c-0.15,0.18 -0.37,0.28 -0.6,0.28 -0.02,0 -0.03,0 -0.04,-0 -0.25,-0.01 -0.47,-0.14 -0.61,-0.35l-1.38 -2.07 1.3 -0.87 0.8 1.2zm0 -4.6l2.69 -3.23 1.2 1 -3.36 4.04c-0.15,0.18 -0.37,0.28 -0.6,0.28 -0.02,0 -0.03,0 -0.04,-0 -0.25,-0.01 -0.47,-0.14 -0.61,-0.35l-1.38 -2.07 1.3 -0.87 0.8 1.2zm0 -4.59l2.69 -3.23 1.2 1 -3.36 4.03c-0.15,0.18 -0.37,0.28 -0.64,0.28 -0.25,-0.01 -0.47,-0.14 -0.61,-0.35l-1.38 -2.07 1.3 -0.87 0.8 1.2zm-13.32 -4.48l0 -1.56 17.32 0 0 1.56 -17.32 0zm0 -2.63l0 -1.56 17.32 0 0 1.56 -17.32 0zm0.78 -2.63c-0.43,0 -0.78,-0.35 -0.78,-0.78l0 -3.94c0,-0.43 0.35,-0.78 0.78,-0.78l11.82 0c0.43,0 0.78,0.35 0.78,0.78l0 3.94c0,0.43 -0.35,0.78 -0.78,0.78l-11.82 0zm0.78 -3.94l0 2.38 10.25 0 0 -2.38 -10.25 0z"/>
 </g>
</svg>
