<?xml version="1.0" encoding="UTF-8"?>
<!DOCTYPE svg PUBLIC "-//W3C//DTD SVG 1.1//EN" "http://www.w3.org/Graphics/SVG/1.1/DTD/svg11.dtd">
<!-- Creator: CorelDRAW 2019 (64-Bit) -->
<svg xmlns="http://www.w3.org/2000/svg" xml:space="preserve" width="6.3484mm" height="8.1171mm" version="1.1" style="shape-rendering:geometricPrecision; text-rendering:geometricPrecision; image-rendering:optimizeQuality; fill-rule:evenodd; clip-rule:evenodd"
viewBox="0 0 40.98 52.39"
 xmlns:xlink="http://www.w3.org/1999/xlink"
 xmlns:xodm="http://www.corel.com/coreldraw/odm/2003">
 <defs>
  <style type="text/css">
   <![CDATA[
    .fil0 {fill:white}
   ]]>
  </style>
 </defs>
 <g id="Layer_x0020_1">
  <metadata id="CorelCorpID_0Corel-Layer"/>
  <path class="fil0" d="M39.4 6.1c-0.92,-0.93 -2.16,-1.43 -3.47,-1.44l-1.93 -0.02 -0.18 -0.79c-0.21,-0.92 -0.63,-1.73 -1.35,-2.41 -0.92,-0.93 -2.16,-1.43 -3.46,-1.44l-16.61 0.05c-2.32,0.03 -4.32,1.62 -4.84,3.88l-0.18 0.8 -2.45 -0.02c-2.73,0.03 -4.93,2.25 -4.95,4.96l0.13 37.78c-0.01,1.31 0.53,2.56 1.44,3.49 0.89,0.91 2.13,1.43 3.4,1.44 0.02,0 0.04,0 0.05,0l31.01 -0.12c2.73,-0.01 4.92,-2.26 4.94,-4.96l-0.13 -37.78c0.01,-1.29 -0.49,-2.51 -1.44,-3.43zm-29.76 15l21.74 0.1 0.04 -2.18 -21.74 -0.1 -0.04 2.18zm-0.09 7.22l21.74 0.1 0.04 -2.18 -21.74 -0.1 -0.04 2.18zm-0.09 7.23l21.74 0.09 0.04 -2.18 -21.74 -0.1 -0.04 2.18zm0 7.22l21.74 0.09 0.04 -2.18 -21.74 -0.1 -0.04 2.18zm0.28 -35.75l0.02 -1.97c0.01,-1.45 1.17,-2.66 2.61,-2.64l16.64 -0.12c0.65,0.01 1.37,0.31 1.83,0.78 0.46,0.47 0.69,1.04 0.8,1.68l0.01 0.08 -0.02 2.06c-0.01,0.73 -0.25,1.38 -0.78,1.9 -0.47,0.46 -1.04,0.69 -1.68,0.8l-0.08 0.01 -16.59 0.05c-1.47,0.09 -2.78,-1.15 -2.77,-2.62zm26.35 42.97l-31.02 0.12c-0.7,-0.01 -1.4,-0.27 -1.9,-0.78 -0.46,-0.47 -0.7,-1.04 -0.8,-1.68l-0.01 -0.08 -0.13 -37.86c0.01,-1.45 1.17,-2.66 2.62,-2.64l2.49 0.02 0.15 0.83c0.42,2.32 2.44,4.05 4.8,4.07 0.02,0 0.04,0 0.05,0l16.57 -0.05c1.31,0.01 2.56,-0.52 3.47,-1.42 0.7,-0.74 1.22,-1.66 1.4,-2.67l0.15 -0.86 1.98 0.02c0.65,0.01 1.38,0.31 1.83,0.78 0.46,0.47 0.7,1.04 0.8,1.68l0.01 0.08 0.13 37.86c-0.01,1.42 -1.2,2.59 -2.61,2.58z"/>
 </g>
</svg>
