<?xml version="1.0" encoding="UTF-8"?>
<!DOCTYPE svg PUBLIC "-//W3C//DTD SVG 1.1//EN" "http://www.w3.org/Graphics/SVG/1.1/DTD/svg11.dtd">
<!-- Creator: CorelDRAW 2019 (64-Bit) -->
<svg xmlns="http://www.w3.org/2000/svg" xml:space="preserve" width="25.4001mm" height="25.4mm" version="1.1" style="shape-rendering:geometricPrecision; text-rendering:geometricPrecision; image-rendering:optimizeQuality; fill-rule:evenodd; clip-rule:evenodd"
viewBox="0 0 1043.74 1043.73"
 xmlns:xlink="http://www.w3.org/1999/xlink"
 xmlns:xodm="http://www.corel.com/coreldraw/odm/2003">
 <defs>
  <style type="text/css">
   <![CDATA[
    .fil2 {fill:#336666}
    .fil1 {fill:white}
    .fil0 {fill:white}
    .fil3 {fill:#FE4F3E;fill-rule:nonzero}
   ]]>
  </style>
 </defs>
 <g id="Layer_x0020_1">
  <metadata id="CorelCorpID_0Corel-Layer"/>
  <g id="_2645189973056">
   <g>
    <path class="fil0" d="M521.87 14.49c-134.95,0 -263.5,53 -358.94,148.44 -95.44,95.44 -148.44,223.99 -148.44,358.94 0,134.95 53,263.5 148.44,358.94 95.44,95.44 223.99,148.44 358.94,148.44 134.4,0 264.08,-52.95 358.9,-148.4 95.11,-95.74 148.47,-223.92 148.47,-358.97 0,-134.39 -52.95,-264.08 -148.4,-358.9 -95.74,-95.11 -223.92,-148.47 -358.97,-148.47zm0 -14.49c143.92,0 274.07,58.82 369.19,152.68 93.86,93.86 152.68,225.27 152.68,369.19 0,143.92 -58.82,274.07 -152.68,369.19 -93.86,93.86 -225.27,152.68 -369.19,152.68 -143.92,0 -274.08,-58.82 -369.19,-152.68 -93.86,-95.11 -152.68,-225.27 -152.68,-369.19 0,-143.92 58.82,-274.07 152.68,-369.19 95.11,-93.86 225.27,-152.68 369.19,-152.68z"/>
    <path class="fil1" d="M837.24 206.49c83.85,83.85 131.41,196.48 131.41,315.37 0,118.89 -46.31,231.52 -131.41,315.37 -83.85,83.85 -196.48,131.41 -315.37,131.41 -118.89,0 -231.53,-46.31 -315.38,-131.41 -83.85,-85.1 -131.4,-196.48 -131.4,-315.37 0,-118.89 46.3,-231.52 131.4,-315.37 83.85,-85.1 196.48,-131.41 315.38,-131.41 118.89,0 231.52,46.31 315.37,131.41l0 0z"/>
   </g>
   <path class="fil2" d="M271.48 300.58l500.78 0c8.79,0 17.02,5.82 17.02,15.16l0 319.78c0,9.28 -8.14,15.37 -17.02,15.37l-500.78 0c-8.88,0 -17.02,-6.09 -17.02,-15.37l0 -319.78c0,-9.34 8.22,-15.16 17.02,-15.16zm0 -18.68c-18.82,0 -35.7,14.53 -35.7,33.84l0 319.78c0,19.29 16.84,34.05 35.7,34.05l181.5 0 -0.17 4c-0.55,13.22 -1.92,27.94 -6.39,40.46 -4.76,13.31 -11.81,22.91 -24.91,28.78l-0.75 0.34 -24.09 0c-5.16,0 -9.34,4.18 -9.34,9.34 0,5.16 4.18,9.34 9.34,9.34l250.39 0c5.16,0 9.34,-4.18 9.34,-9.34 0,-5.16 -4.18,-9.34 -9.34,-9.34l-24.09 0 -0.75 -0.34c-13.1,-5.87 -20.15,-15.46 -24.91,-28.78 -4.47,-12.52 -5.84,-27.24 -6.39,-40.46l-0.17 -4 181.5 0c18.85,0 35.7,-14.76 35.7,-34.05l0 -319.78c0,-19.32 -16.88,-33.84 -35.7,-33.84l-500.78 0z"/>
   <polygon class="fil2" points="273.16,319.28 273.16,632.2 770.57,632.19 770.57,319.28 "/>
   <path class="fil0" d="M396.67 387.33c-4.9,0 -9.34,4.43 -9.34,9.34l0 158.14c0,4.78 4.56,9.34 9.34,9.34l250.39 0c4.78,0 9.34,-4.56 9.34,-9.34l0 -158.14c0,-4.78 -4.56,-9.34 -9.34,-9.34l-250.39 0z"/>
   <path class="fil3" d="M425.13 406.01l193.47 0 -96.73 71.2 -96.73 -71.2zm-19.12 9.01l110.31 81.31c1.61,1.18 3.55,1.82 5.55,1.82 1.99,0 3.94,-0.64 5.55,-1.82l110.31 -81.31 0 130.45 -231.71 0 0 -130.45z"/>
  </g>
 </g>
</svg>
