<?xml version="1.0" encoding="UTF-8"?>
<!DOCTYPE svg PUBLIC "-//W3C//DTD SVG 1.1//EN" "http://www.w3.org/Graphics/SVG/1.1/DTD/svg11.dtd">
<!-- Creator: CorelDRAW 2019 (64-Bit) -->
<svg xmlns="http://www.w3.org/2000/svg" xml:space="preserve" width="25.4001mm" height="25.4mm" version="1.1" style="shape-rendering:geometricPrecision; text-rendering:geometricPrecision; image-rendering:optimizeQuality; fill-rule:evenodd; clip-rule:evenodd"
viewBox="0 0 792.5 792.5"
 xmlns:xlink="http://www.w3.org/1999/xlink"
 xmlns:xodm="http://www.corel.com/coreldraw/odm/2003">
 <defs>
  <style type="text/css">
   <![CDATA[
    .fil3 {fill:#336666}
    .fil2 {fill:#FE4F3E}
    .fil1 {fill:white}
    .fil0 {fill:white}
   ]]>
  </style>
 </defs>
 <g id="Layer_x0020_1">
  <metadata id="CorelCorpID_0Corel-Layer"/>
  <path class="fil0" d="M396.25 11c-102.47,0 -200.07,40.24 -272.54,112.71 -72.46,72.46 -112.71,170.07 -112.71,272.54 0,102.46 40.24,200.07 112.71,272.54 72.47,72.47 170.07,112.71 272.54,112.71 102.05,0 200.51,-40.2 272.51,-112.68 72.21,-72.69 112.73,-170.02 112.73,-272.56 0,-102.04 -40.21,-200.52 -112.68,-272.51 -72.69,-72.21 -170.02,-112.73 -272.56,-112.73zm0 -11c109.28,0 208.1,44.66 280.32,115.93 71.27,71.27 115.93,171.04 115.93,280.32 0,109.28 -44.66,208.1 -115.93,280.32 -71.27,71.27 -171.04,115.93 -280.32,115.93 -109.28,0 -208.11,-44.66 -280.32,-115.93 -71.27,-72.22 -115.93,-171.04 -115.93,-280.32 0,-109.28 44.66,-208.1 115.93,-280.32 72.22,-71.27 171.04,-115.93 280.32,-115.93z"/>
  <path class="fil1" d="M635.71 156.79c63.66,63.66 99.78,149.19 99.78,239.46 0,90.27 -35.16,175.79 -99.78,239.46 -63.66,63.67 -149.19,99.78 -239.46,99.78 -90.27,0 -175.8,-35.16 -239.46,-99.78 -63.66,-64.61 -99.77,-149.19 -99.77,-239.46 0,-90.27 35.16,-175.79 99.77,-239.46 63.66,-64.62 149.19,-99.78 239.46,-99.78 90.27,0 175.79,35.16 239.46,99.78l0 0z"/>
  <g id="_2098452969344">
   <path class="fil2" d="M429.86 283.57c9.32,0 16.87,7.55 16.87,16.87 0,9.32 -7.55,16.87 -16.87,16.87 -9.31,0 -16.87,-7.55 -16.87,-16.87 0,-9.32 7.55,-16.87 16.87,-16.87zm177.17 305.01l13.14 -35.03 -26.27 0 13.14 35.03zm-177.17 -102.53c9.32,0 16.87,7.55 16.87,16.87 0,9.32 -7.55,16.87 -16.87,16.87 -9.31,0 -16.87,-7.55 -16.87,-16.87 0,-9.32 7.55,-16.87 16.87,-16.87zm-123.42 8.73c-9.16,-1.72 -17.98,4.31 -19.7,13.47 -1.72,9.16 4.31,17.98 13.47,19.7 9.16,1.72 17.98,-4.31 19.7,-13.47 0.82,-4.4 -0.13,-8.94 -2.65,-12.64 -2.52,-3.7 -6.41,-6.24 -10.82,-7.06zm-3.12 -118.4c9.32,0 16.87,7.55 16.87,16.87 0,9.32 -7.55,16.87 -16.87,16.87 -9.32,0 -16.88,-7.55 -16.88,-16.87 0,-9.32 7.56,-16.87 16.88,-16.87z"/>
   <path class="fil3" d="M320.19 182.34l101.24 0 0 42.18 -101.24 0 0 -42.18zm269.97 337.46l33.75 0 0 16.87 -33.75 0 0 -16.87zm42.18 -185.6l-8.44 0 0 -16.87 -33.75 0 0 16.87 -16.87 0 0 16.87 16.87 0 0 151.86 33.75 0 0 -151.86 8.44 0c4.66,0 8.44,3.78 8.44,8.44l0 50.62 16.87 0 0 -50.62c0,-13.98 -11.33,-25.31 -25.31,-25.31zm-33.75 -59.06l16.87 0 0 25.31 -16.87 0 0 -25.31zm-227.79 -126.55c-9.32,0 -16.87,7.55 -16.87,16.87l33.75 0c0,-9.32 -7.55,-16.87 -16.87,-16.87zm-134.99 67.49l0 371.21 269.97 0 0 -371.21 -67.49 0 0 16.87c0,4.66 -3.78,8.44 -8.44,8.44l-118.11 0c-4.66,0 -8.43,-3.78 -8.43,-8.44l0 -16.87 -67.5 0zm86.53 323.12l0 0c-15.38,10.46 -36.34,6.53 -46.87,-8.81 -10.53,-15.38 -6.6,-36.38 8.78,-46.91 15.38,-10.53 36.38,-6.6 46.91,8.78 10.53,15.38 6.6,36.38 -8.78,46.91 -0.01,0.01 -0.02,0.01 -0.04,0.02zm-27.47 -78.46l0 0 0 -16.87 16.87 0 0 16.87 -16.87 0zm8.44 -33.74l0 0c-18.64,0 -33.75,-15.11 -33.75,-33.75 0,-18.64 15.11,-33.74 33.75,-33.74 18.64,0 33.75,15.11 33.75,33.74 0,18.64 -15.11,33.75 -33.75,33.75zm75.93 92.8l0 0 -25.31 0 0 -16.87 25.31 0 0 16.87zm50.61 -253.1l0 0c18.64,0 33.75,15.11 33.75,33.75 0,18.64 -15.11,33.75 -33.75,33.75 -18.63,0 -33.74,-15.11 -33.74,-33.75 0,-18.64 15.11,-33.75 33.74,-33.75zm8.44 118.11l0 0 0 16.87 -16.87 0 0 -16.87 16.87 0zm-16.87 -16.87l0 0 0 -16.88 16.87 0 0 16.88 -16.87 0zm8.43 64l0 0 19.34 -19.35 11.93 11.93 -25.31 25.31c-3.29,3.29 -8.63,3.29 -11.93,0l-25.31 -25.31 11.93 -11.93 19.34 19.35zm0 37.23l0 0c18.64,0 33.75,15.11 33.75,33.75 0,18.64 -15.11,33.75 -33.75,33.75 -18.63,0 -33.74,-15.11 -33.74,-33.75 0,-18.64 15.11,-33.75 33.74,-33.75zm-92.8 -185.6l0 0 13.38 0 -10.91 -10.91 11.93 -11.93 25.31 25.31c3.29,3.29 3.29,8.63 0,11.93l-25.31 25.31 -11.93 -11.93 10.91 -10.91 -13.38 0c-13.98,0 -25.31,11.33 -25.31,25.31l0 16.87 -16.87 0 0 -16.87c0.03,-23.29 18.9,-42.16 42.19,-42.18zm195.22 -100.39l-92.81 -0.5 -0.08 16.87 75.93 0.4c4.66,0 8.44,3.78 8.44,8.44 0,0.02 0,0.03 0,0.05l-2.1 388.08c-0.02,4.66 -3.82,8.42 -8.48,8.39 0,0 0,0 0,0l-286.84 -1.55c-4.66,0 -8.44,-3.78 -8.44,-8.44 0,-0.02 0,-0.03 0,-0.05l2.1 -388.08c0,-4.66 3.78,-8.44 8.44,-8.44 0.01,0 0.02,0 0.04,0l75.93 0.41 0.09 -16.87 -92.8 -0.5c-4.66,-0.03 -8.46,3.73 -8.49,8.38 0,0 0,0 0,0l-2.32 430.26 337.46 1.83 2.32 -430.26c0.01,-4.65 -3.75,-8.43 -8.4,-8.44z"/>
  </g>
 </g>
</svg>
