<?xml version="1.0" encoding="UTF-8"?>
<!DOCTYPE svg PUBLIC "-//W3C//DTD SVG 1.1//EN" "http://www.w3.org/Graphics/SVG/1.1/DTD/svg11.dtd">
<!-- Creator: CorelDRAW 2019 (64-Bit) -->
<svg xmlns="http://www.w3.org/2000/svg" xml:space="preserve" width="25.4001mm" height="25.4mm" version="1.1" style="shape-rendering:geometricPrecision; text-rendering:geometricPrecision; image-rendering:optimizeQuality; fill-rule:evenodd; clip-rule:evenodd"
viewBox="0 0 5946.88 5946.86"
 xmlns:xlink="http://www.w3.org/1999/xlink"
 xmlns:xodm="http://www.corel.com/coreldraw/odm/2003">
 <defs>
  <style type="text/css">
   <![CDATA[
    .fil2 {fill:#336666}
    .fil3 {fill:#FE4F3E}
    .fil1 {fill:white}
    .fil0 {fill:white}
   ]]>
  </style>
 </defs>
 <g id="Layer_x0020_1">
  <metadata id="CorelCorpID_0Corel-Layer"/>
  <path class="fil0" d="M2973.45 82.58c-768.9,0 -1501.35,301.96 -2045.13,845.74 -543.76,543.76 -845.74,1276.23 -845.74,2045.11 0,768.88 301.98,1501.35 845.74,2045.11 543.79,543.79 1276.23,845.74 2045.13,845.74 765.76,0 1504.65,-301.67 2044.92,-845.55 541.89,-545.5 845.93,-1275.81 845.93,-2045.3 0,-765.74 -301.7,-1504.67 -845.55,-2044.92 -545.5,-541.89 -1275.81,-845.93 -2045.3,-845.93zm0 -82.58c820.01,0 1561.59,335.13 2103.5,869.93 534.8,534.77 869.93,1283.49 869.93,2103.5 0,820.01 -335.13,1561.59 -869.93,2103.5 -534.8,534.8 -1283.49,869.93 -2103.5,869.93 -820.03,0 -1561.61,-335.13 -2103.52,-869.93 -534.8,-541.91 -869.93,-1283.49 -869.93,-2103.5 0,-820.01 335.13,-1561.59 869.93,-2103.5 541.91,-534.8 1283.49,-869.93 2103.52,-869.93z"/>
  <path class="fil1" d="M4770.34 1176.54c477.74,477.74 748.72,1119.48 748.72,1796.89 0,677.4 -263.84,1319.15 -748.72,1796.89 -477.74,477.76 -1119.51,748.72 -1796.89,748.72 -677.4,0 -1319.17,-263.84 -1796.91,-748.72 -477.74,-484.86 -748.7,-1119.48 -748.7,-1796.89 0,-677.4 263.82,-1319.15 748.7,-1796.89 477.74,-484.88 1119.51,-748.72 1796.91,-748.72 677.38,0 1319.15,263.84 1796.89,748.72l0 0z"/>
  <g id="_2098453756512">
   <circle class="fil2" cx="3450.08" cy="1637.1" r="427.75"/>
   <path class="fil3" d="M2696.88 3749.31l-329.56 -879.1 -2.27 -4.8c-8.19,-16.58 -25.38,-27.53 -44.09,-27.53l-473.99 0 0 -125.94 -0.77 -12.1 -149.44 0 0 138.09 -473.99 0c-18.03,0 -34.51,10.02 -43.06,25.47l-334.05 888.96c-1.78,5.57 -2.32,11.68 -0.98,22.87 0.91,5.9 3.02,11.57 5.46,14.91l3.07 6.18c3.77,4.73 7.61,8.43 9.83,9.48 5.83,6.84 143.54,166.44 359.69,166.44 212.12,0 353.74,-159.44 357.82,-164.62 4.4,-3.21 8.15,-6.91 11.73,-11.4l2.65 -4.52c2.97,-5.6 4.92,-10.77 6.44,-20.23 0.8,-6.18 0.35,-12.64 -2.58,-22.17l-304.25 -811.98 402.23 0 0 1117.89 -270.04 0 0 149.63 683.42 0 0 -149.63 -264.07 0 0.87 -1117.89 402.3 0 -305.47 814.98c-1.76,5.43 -2.36,11.54 -0.77,23.06 0.89,5.74 2.93,11.19 8.19,20.46 3.25,4.35 7.07,8.22 10.09,10.14 5.95,6.84 147.43,166.28 359.71,166.28 216.24,0 353.86,-159.61 357.49,-164.45 4.78,-3.37 8.76,-7.28 9.32,-9.27l4.96 -6.16c3.39,-6.11 5.43,-11.52 7.09,-21.66 0.4,-7 -0.07,-12.95 -2.97,-21.4zm-117.98 -32.29l-515.9 0 257.96 -687.77 257.94 687.77zm-1356.14 -687.82l257.96 687.77 -515.76 0 257.8 -687.77z"/>
   <path class="fil2" d="M4555.32 3132.07l0 -339.84c0,-299.1 -221.49,-592.16 -571.46,-592.16l-173.49 0 -267.73 595.18 0 -606.98 -185.13 0 0 600.98 -265.06 -589.18 -1631.78 -2.15c-270.77,-0.87 -273.98,392.21 -3.25,392.21l1374.43 0 0.49 1614.71 835.32 0 0 -0.68 1182.37 0 0 -1072.1 -294.72 0zm-462.87 -311.09l110.72 0 0 311.11 -110.88 0 0.16 -311.11zm-384.65 420.59l495.32 0 0 428.06 -495.32 0 0 -428.06zm1032.74 853.16l-1032.74 0 0 -315.63 495.32 0 0 21.45c0,270.75 352.92,270.75 352.15,0l0 -21.45 185.22 0 0 315.63 0.05 0zm0 -425.13l-185.22 0 0 -428.03 185.22 0 0 428.03z"/>
  </g>
 </g>
</svg>
