<?xml version="1.0" encoding="UTF-8"?>
<!DOCTYPE svg PUBLIC "-//W3C//DTD SVG 1.1//EN" "http://www.w3.org/Graphics/SVG/1.1/DTD/svg11.dtd">
<!-- Creator: CorelDRAW 2019 (64-Bit) -->
<svg xmlns="http://www.w3.org/2000/svg" xml:space="preserve" width="25.4001mm" height="25.4mm" version="1.1" style="shape-rendering:geometricPrecision; text-rendering:geometricPrecision; image-rendering:optimizeQuality; fill-rule:evenodd; clip-rule:evenodd"
viewBox="0 0 697.72 697.72"
 xmlns:xlink="http://www.w3.org/1999/xlink"
 xmlns:xodm="http://www.corel.com/coreldraw/odm/2003">
 <defs>
  <style type="text/css">
   <![CDATA[
    .fil2 {fill:#336666}
    .fil3 {fill:#FE4F3E}
    .fil1 {fill:white}
    .fil0 {fill:white}
   ]]>
  </style>
 </defs>
 <g id="Layer_x0020_1">
  <metadata id="CorelCorpID_0Corel-Layer"/>
  <path class="fil0" d="M348.86 9.69c-90.21,0 -176.15,35.43 -239.95,99.23 -63.8,63.8 -99.23,149.73 -99.23,239.94 0,90.21 35.43,176.15 99.23,239.94 63.8,63.8 149.73,99.23 239.95,99.23 89.84,0 176.53,-35.39 239.92,-99.21 63.58,-64 99.25,-149.69 99.25,-239.97 0,-89.84 -35.4,-176.54 -99.21,-239.92 -64,-63.58 -149.69,-99.25 -239.97,-99.25zm0 -9.69c96.21,0 183.21,39.32 246.79,102.06 62.75,62.74 102.06,150.59 102.06,246.79 0,96.21 -39.32,183.21 -102.06,246.79 -62.75,62.75 -150.59,102.06 -246.79,102.06 -96.21,0 -183.22,-39.32 -246.8,-102.06 -62.75,-63.58 -102.06,-150.59 -102.06,-246.79 0,-96.21 39.32,-183.21 102.06,-246.79 63.58,-62.75 150.59,-102.06 246.8,-102.06z"/>
  <path class="fil1" d="M559.68 138.04c56.05,56.05 87.84,131.34 87.84,210.82 0,79.48 -30.96,154.77 -87.84,210.82 -56.05,56.05 -131.35,87.84 -210.82,87.84 -79.48,0 -154.77,-30.96 -210.82,-87.84 -56.05,-56.89 -87.84,-131.34 -87.84,-210.82 0,-79.48 30.95,-154.77 87.84,-210.82 56.05,-56.89 131.35,-87.84 210.82,-87.84 79.47,0 154.77,30.96 210.82,87.84l0 0z"/>
  <path class="fil2" d="M224.89 544.15l247.95 0c14.59,0 26.44,-11.88 26.44,-26.44l0 -333.63c0,-14.59 -11.89,-26.44 -26.44,-26.44l-41.82 0 0 -17.44c0,-3.78 -2.46,-6.24 -6.24,-6.24l-36.13 0 -0.11 -0.6c-3.45,-19.3 -19.98,-33.53 -39.68,-33.53 -19.71,0 -36.23,14.23 -39.68,33.53l-0.11 0.6 -36.13 0c-3.77,0 -6.24,2.46 -6.24,6.24l0 17.44 -41.82 0c-14.59,0 -26.44,11.88 -26.44,26.44l0 333.63c0,14.23 12.22,26.44 26.44,26.44zm54.3 -397.71l35.55 0c3.78,0 6.24,-2.46 6.24,-6.24 0,-15.39 12.53,-27.89 27.89,-27.89 15.35,0 27.89,12.5 27.89,27.89 0,3.78 2.46,6.24 6.24,6.24l35.55 0 0 32.1 -139.35 0 0 -32.1zm-34.83 78.01l208.31 0 0 273.79 -208.31 0 0 -273.79zm181.13 144.93l-79.41 0c-3.78,0 -6.24,2.46 -6.24,6.24 0,3.78 2.46,6.24 6.24,6.24l79.41 0c3.78,0 6.24,-2.46 6.24,-6.24 0,-3.78 -2.46,-6.24 -6.24,-6.24zm-79.41 -16.08l50.15 0c3.78,0 6.24,-2.46 6.24,-6.24 0,-3.78 -2.46,-6.24 -6.24,-6.24l-50.15 0c-3.78,0 -6.24,2.46 -6.24,6.24 0,3.44 2.81,6.24 6.24,6.24zm-33.43 -18.75l-40.4 0c-3.78,0 -6.24,2.46 -6.24,6.24l0 40.4c0,3.78 2.46,6.24 6.24,6.24l40.4 0c3.78,0 6.24,-2.46 6.24,-6.24l0 -40.4c0,-3.43 -2.79,-6.24 -6.24,-6.24zm-6.24 40.4l-27.91 0 0 -27.92 27.91 0 0 27.92zm119.08 76.61l-79.41 0c-3.78,0 -6.24,2.46 -6.24,6.24 0,3.78 2.46,6.24 6.24,6.24l79.41 0c3.78,0 6.24,-2.46 6.24,-6.24 0,-3.78 -2.46,-6.24 -6.24,-6.24zm-79.41 -16.08l50.15 0c3.78,0 6.24,-2.46 6.24,-6.24 0,-3.78 -2.46,-6.24 -6.24,-6.24l-50.15 0c-3.78,0 -6.24,2.46 -6.24,6.24 0,3.44 2.81,6.24 6.24,6.24zm-33.43 -18.75l-40.4 0c-3.78,0 -6.24,2.46 -6.24,6.24l0 40.39c0,3.78 2.46,6.24 6.24,6.24l40.4 0c3.78,0 6.24,-2.46 6.24,-6.24l0 -40.39c0,-3.43 -2.79,-6.24 -6.24,-6.24zm-6.24 41.1l-27.91 0 0 -27.92 27.91 0 0 27.92zm119.08 -171.35l-79.41 0c-3.78,0 -6.24,2.46 -6.24,6.24 0,3.78 2.46,6.24 6.24,6.24l79.41 0c3.78,0 6.24,-2.46 6.24,-6.24 0,-3.78 -2.46,-6.24 -6.24,-6.24zm-79.41 -16.08l50.15 0c3.78,0 6.24,-2.46 6.24,-6.24 0,-3.78 -2.46,-6.24 -6.24,-6.24l-50.15 0c-3.78,0 -6.24,2.46 -6.24,6.24 0,3.44 2.81,6.24 6.24,6.24z"/>
  <path class="fil3" d="M315.94 259.82l-26.29 26.28 -12.35 -12.36c-2.5,-2.51 -6.22,-2.5 -8.72,0 -2.51,2.51 -2.51,6.22 0,8.73l16.72 16.72c2.5,2.51 6.22,2.5 8.72,0l30.65 -30.65c2.5,-2.5 2.5,-6.22 0,-8.72 -2.5,-2.5 -6.22,-2.51 -8.73,0z"/>
 </g>
</svg>
