<!-- Generated by IcoMoon.io -->
<svg version="1.1" xmlns="http://www.w3.org/2000/svg" width="32" height="32" viewBox="0 0 32 32">
<title>annulment-pay</title>
<path fill="#fff" d="M16 0c4.412 0 8.403 1.803 11.319 4.681 2.878 2.878 4.681 6.906 4.681 11.319s-1.803 8.403-4.681 11.319c-2.878 2.878-6.906 4.681-11.319 4.681s-8.403-1.803-11.319-4.681c-2.878-2.916-4.681-6.906-4.681-11.319s1.803-8.403 4.681-11.319c2.916-2.878 6.906-4.681 11.319-4.681zM16 0.384c-4.144 0-8.096 1.65-11.050 4.566-2.916 2.955-4.566 6.906-4.566 11.050s1.65 8.096 4.566 11.050c2.955 2.955 6.868 4.566 11.050 4.566s8.096-1.65 11.050-4.566c2.955-2.955 4.566-6.868 4.566-11.050s-1.65-8.096-4.566-11.050c-2.955-2.916-6.906-4.566-11.050-4.566z"></path>
<path fill="#fff" d="M25.669 6.331c2.571 2.571 4.029 6.024 4.029 9.669s-1.42 7.098-4.029 9.669c-2.571 2.571-6.024 4.029-9.669 4.029s-7.098-1.42-9.669-4.029c-2.571-2.609-4.029-6.024-4.029-9.669s1.42-7.098 4.029-9.669c2.571-2.609 6.024-4.029 9.669-4.029s7.098 1.42 9.669 4.029v0z"></path>
<path fill="#fe4f3e" d="M8.346 16.411c0 0.282 0.229 0.512 0.511 0.512h1.191c0.282 0 0.511-0.229 0.511-0.512v-0.595c0-0.282-0.229-0.511-0.511-0.511h-1.191c-0.282 0-0.511 0.229-0.511 0.511v0.595z"></path>
<path fill="#fe4f3e" d="M23.654 15.369v-0.595c0-0.282-0.229-0.511-0.511-0.511h-1.191c-0.282 0-0.512 0.229-0.512 0.511v0.595c0 0.282 0.229 0.511 0.512 0.511h1.191c0.282 0 0.511-0.229 0.511-0.511z"></path>
<path fill="#366" d="M16.381 20.024c0 0.211-0.171 0.381-0.381 0.381s-0.381-0.171-0.381-0.381v-0.595c0-0.211 0.171-0.381 0.381-0.381s0.381 0.171 0.381 0.381v0.595zM17.488 19.047c0.211 0 0.381 0.171 0.381 0.381v0.595c0 0.21-0.171 0.381-0.381 0.381s-0.381-0.171-0.381-0.381v-0.595c0-0.211 0.171-0.381 0.381-0.381zM18.976 19.047c0.211 0 0.381 0.171 0.381 0.381v0.595c0 0.21-0.171 0.381-0.381 0.381s-0.382-0.171-0.382-0.381v-0.595c0-0.211 0.171-0.381 0.382-0.381zM20.464 19.047c0.211 0 0.381 0.171 0.381 0.381v0.595c0 0.21-0.171 0.381-0.381 0.381s-0.381-0.171-0.381-0.381v-0.595c0-0.211 0.171-0.381 0.381-0.381zM21.952 19.047c0.211 0 0.381 0.171 0.381 0.381v0.595c0 0.21-0.171 0.381-0.381 0.381s-0.381-0.171-0.381-0.381v-0.595c0-0.211 0.171-0.381 0.381-0.381zM9.666 19.428c0-0.211 0.171-0.381 0.381-0.381s0.381 0.171 0.381 0.381v0.595c0 0.21-0.171 0.381-0.381 0.381s-0.381-0.171-0.381-0.381v-0.595zM11.154 20.023v-0.595c0-0.211 0.171-0.381 0.381-0.381s0.381 0.171 0.381 0.381v0.595c0 0.21-0.171 0.381-0.381 0.381s-0.381-0.171-0.381-0.381zM13.405 20.023c0 0.211-0.171 0.381-0.381 0.381s-0.382-0.171-0.382-0.381v-0.595c0-0.211 0.171-0.381 0.382-0.381s0.381 0.171 0.381 0.381v0.595zM14.894 20.023c0 0.211-0.171 0.381-0.381 0.381s-0.381-0.171-0.381-0.381v-0.595c0-0.211 0.171-0.381 0.381-0.381s0.381 0.171 0.381 0.381v0.595zM16.893 21.32c0.211 0 0.381 0.171 0.381 0.381s-0.171 0.382-0.381 0.382h-6.845c-0.211 0-0.381-0.171-0.381-0.382s0.171-0.381 0.381-0.381h6.845zM19.572 12.904c0.211 0 0.381 0.171 0.381 0.381s-0.171 0.381-0.381 0.381h-7.143c-0.211 0-0.382-0.171-0.382-0.381s0.171-0.381 0.382-0.381h7.143zM18.381 14.094c0.211 0 0.381 0.171 0.381 0.381s-0.171 0.381-0.381 0.381h-4.762c-0.211 0-0.381-0.171-0.381-0.381s0.171-0.381 0.381-0.381h4.762zM24.845 22.381v-9.393c0-0.283-0.229-0.511-0.512-0.511h-16.667c-0.282 0-0.511 0.229-0.511 0.511v9.393c0 0.282 0.229 0.511 0.511 0.511h16.667c0.282 0 0.512-0.229 0.512-0.511zM24.333 11.713c0.703 0 1.274 0.571 1.274 1.274v9.393c0 0.703-0.571 1.274-1.274 1.274h-16.667c-0.703 0-1.274-0.571-1.274-1.274v-9.393c0-0.703 0.571-1.274 1.274-1.274h16.667zM22.872 9.925l-0.561-1.484-7.328 2.845h-2.107l9.165-3.559-0.225-0.595c-0.077-0.192-0.267-0.316-0.476-0.311-0.074 0-0.147 0.014-0.216 0.041l-11.393 4.423h-2.107l13.224-5.134c0.157-0.061 0.323-0.090 0.491-0.093 0.524-0.007 1.004 0.31 1.19 0.802l1.673 4.425h-0.815l-0.245-0.647-1.666 0.647h-2.108l3.504-1.36z"></path>
</svg>
