<!-- Generated by IcoMoon.io -->
<svg version="1.1" xmlns="http://www.w3.org/2000/svg" width="32" height="32" viewBox="0 0 32 32">
<title>annulment-statement</title>
<path fill="#fff" d="M16 0c4.412 0 8.403 1.803 11.319 4.681 2.878 2.878 4.681 6.907 4.681 11.319s-1.803 8.403-4.681 11.319c-2.878 2.878-6.907 4.681-11.319 4.681s-8.403-1.803-11.319-4.681c-2.878-2.916-4.681-6.907-4.681-11.319s1.803-8.403 4.681-11.319c2.916-2.878 6.907-4.681 11.319-4.681zM16 0.384c-4.144 0-8.096 1.65-11.050 4.566-2.916 2.954-4.566 6.907-4.566 11.050s1.65 8.096 4.566 11.050c2.954 2.954 6.868 4.566 11.050 4.566s8.096-1.65 11.050-4.566c2.954-2.954 4.566-6.868 4.566-11.050s-1.65-8.096-4.566-11.050c-2.954-2.916-6.907-4.566-11.050-4.566z"></path>
<path fill="#fff" d="M25.669 6.331c2.571 2.571 4.029 6.024 4.029 9.669s-1.42 7.098-4.029 9.669c-2.571 2.571-6.024 4.029-9.669 4.029s-7.098-1.42-9.669-4.029c-2.571-2.609-4.029-6.024-4.029-9.669s1.42-7.098 4.029-9.669c2.571-2.609 6.024-4.029 9.669-4.029s7.098 1.42 9.669 4.029v0z"></path>
<path fill="#366" d="M12.017 10.62h-2.381v11.11c0 0.238 0.159 0.397 0.397 0.397h6.767v0.794h-6.767c-0.675 0-1.19-0.516-1.19-1.19v-11.192c0-0.315 0.112-0.586 0.335-0.808l2.346-2.346c0.223-0.223 0.493-0.335 0.808-0.335h7.224c0.675 0 1.19 0.516 1.19 1.19v10.735h-0.794v-10.735c0-0.238-0.159-0.397-0.397-0.397h-7.142v2.381c0 0.238-0.159 0.397-0.397 0.397zM17.572 10.62h-3.174c-0.531 0-0.531-0.794 0-0.794h3.174c0.532 0 0.531 0.794 0 0.794zM15.588 18.953h-3.968c-0.531 0-0.531-0.794 0-0.794h3.968c0.531 0 0.532 0.794 0 0.794zM17.969 16.175h-6.349c-0.531 0-0.531-0.794 0-0.794h6.349c0.532 0 0.532 0.794 0 0.794zM17.969 13.398h-6.349c-0.531 0-0.531-0.794 0-0.794h6.349c0.532 0 0.532 0.794 0 0.794zM10.192 9.827h1.428v-1.428l-1.428 1.428z"></path>
<path fill="#fe4f3e" d="M20.191 24.111c-0.079 0-0.159-0.040-0.238-0.079l-1.032-0.714c-0.198-0.119-0.238-0.357-0.119-0.555s0.357-0.238 0.555-0.119l0.674 0.436 1.151-2.024c0.119-0.198 0.357-0.238 0.556-0.159 0.198 0.119 0.238 0.357 0.159 0.555l-1.349 2.381c-0.040 0.079-0.159 0.159-0.238 0.198-0.079 0.079-0.119 0.079-0.119 0.079z"></path>
<path fill="#fe4f3e" d="M20.35 26.095c-1.984 0-3.571-1.587-3.571-3.571s1.587-3.571 3.571-3.571 3.571 1.587 3.571 3.571c0 1.984-1.587 3.571-3.571 3.571zM20.35 19.747c-1.547 0-2.778 1.23-2.778 2.778s1.23 2.778 2.778 2.778 2.778-1.23 2.778-2.778c0-1.547-1.23-2.778-2.778-2.778z"></path>
</svg>
