<!-- Generated by IcoMoon.io -->
<svg version="1.1" xmlns="http://www.w3.org/2000/svg" width="32" height="32" viewBox="0 0 32 32">
<title>annulment-form</title>
<path fill="#fff" d="M16 0c4.412 0 8.403 1.804 11.319 4.681 2.878 2.878 4.681 6.907 4.681 11.319s-1.804 8.403-4.681 11.319c-2.878 2.878-6.907 4.681-11.319 4.681s-8.403-1.804-11.319-4.681c-2.878-2.916-4.681-6.907-4.681-11.319s1.804-8.403 4.681-11.319c2.916-2.878 6.907-4.681 11.319-4.681zM16 0.384c-4.144 0-8.096 1.65-11.050 4.566-2.916 2.954-4.566 6.907-4.566 11.050s1.65 8.096 4.566 11.050c2.954 2.954 6.868 4.566 11.050 4.566s8.096-1.65 11.050-4.566c2.954-2.954 4.566-6.868 4.566-11.050s-1.65-8.096-4.566-11.050c-2.954-2.916-6.907-4.566-11.050-4.566z"></path>
<path fill="#fff" d="M25.669 6.331c2.571 2.571 4.029 6.024 4.029 9.669s-1.42 7.098-4.029 9.669c-2.571 2.571-6.024 4.029-9.669 4.029s-7.098-1.42-9.669-4.029c-2.571-2.609-4.029-6.024-4.029-9.669s1.42-7.098 4.029-9.669c2.571-2.61 6.024-4.029 9.669-4.029s7.098 1.42 9.669 4.029v0z"></path>
<path fill="#366" d="M22.784 25.143h-13.567c-0.488 0-0.885-0.397-0.885-0.885v-16.516c0-0.488 0.397-0.885 0.885-0.885h13.567c0.488 0 0.885 0.397 0.885 0.885v16.516c0 0.488-0.397 0.885-0.885 0.885z"></path>
<path fill="#fff" d="M22.784 24.381c0.067 0 0.123-0.056 0.123-0.123v-16.516c0-0.067-0.056-0.123-0.123-0.123h-13.567c-0.067 0-0.123 0.056-0.123 0.123v16.516c0 0.067 0.056 0.123 0.123 0.123h13.567z"></path>
<path fill="#366" d="M20.481 9.643h-8.961c-0.316 0-0.572-0.256-0.572-0.572s0.256-0.572 0.572-0.572h8.961c0.316 0 0.572 0.256 0.572 0.572s-0.256 0.572-0.572 0.572z"></path>
<path fill="#366" d="M16.86 12.252h-5.974c-0.211 0-0.381-0.171-0.381-0.381s0.17-0.381 0.381-0.381h5.974c0.211 0 0.381 0.171 0.381 0.381s-0.17 0.381-0.381 0.381z"></path>
<path fill="#366" d="M21.15 12.252h-1.402c-0.211 0-0.381-0.171-0.381-0.381s0.17-0.381 0.381-0.381h1.402c0.211 0 0.381 0.171 0.381 0.381s-0.17 0.381-0.381 0.381z"></path>
<path fill="#fe4f3e" d="M17.975 23.626h-3.949c-0.421 0-0.762-0.341-0.762-0.762s0.341-0.762 0.762-0.762h3.949c0.421 0 0.762 0.341 0.762 0.762s-0.34 0.762-0.762 0.762z"></path>
<path fill="#366" d="M18.864 14.984h-7.978c-0.211 0-0.381-0.171-0.381-0.381s0.17-0.381 0.381-0.381h7.978c0.211 0 0.381 0.171 0.381 0.381s-0.17 0.381-0.381 0.381z"></path>
<path fill="#366" d="M21.912 14.602c0 0.631-0.512 1.143-1.143 1.143s-1.143-0.512-1.143-1.143c0-0.631 0.512-1.143 1.143-1.143s1.143 0.512 1.143 1.143z"></path>
<path fill="#fff" d="M20.642 14.93c0.002-0.081 0.011-0.145 0.028-0.192s0.052-0.1 0.104-0.156l0.134-0.138c0.058-0.065 0.086-0.134 0.086-0.208 0-0.072-0.019-0.127-0.056-0.168s-0.092-0.061-0.164-0.061c-0.070 0-0.126 0.019-0.169 0.055s-0.063 0.086-0.063 0.149h-0.19c0.002-0.111 0.040-0.2 0.118-0.268s0.178-0.102 0.303-0.102c0.129 0 0.229 0.035 0.302 0.104s0.108 0.164 0.108 0.285c0 0.119-0.055 0.237-0.166 0.353l-0.112 0.11c-0.050 0.055-0.075 0.135-0.075 0.239h-0.19zM20.634 15.257c0-0.031 0.009-0.058 0.028-0.078s0.047-0.032 0.084-0.032 0.065 0.011 0.084 0.032c0.019 0.021 0.029 0.047 0.029 0.078s-0.009 0.057-0.029 0.077c-0.020 0.021-0.048 0.030-0.084 0.030s-0.065-0.010-0.084-0.030-0.028-0.046-0.028-0.077z"></path>
<path fill="#366" d="M18.864 17.65h-7.978c-0.211 0-0.381-0.171-0.381-0.381s0.17-0.381 0.381-0.381h7.978c0.211 0 0.381 0.171 0.381 0.381s-0.17 0.381-0.381 0.381z"></path>
<path fill="#366" d="M21.912 17.269c0 0.631-0.512 1.143-1.143 1.143s-1.143-0.512-1.143-1.143c0-0.631 0.512-1.143 1.143-1.143s1.143 0.512 1.143 1.143z"></path>
<path fill="#fff" d="M20.642 17.598c0.002-0.081 0.011-0.145 0.028-0.192s0.052-0.099 0.104-0.156l0.134-0.138c0.058-0.065 0.086-0.134 0.086-0.208 0-0.072-0.019-0.127-0.056-0.168s-0.092-0.061-0.164-0.061c-0.070 0-0.126 0.019-0.169 0.055s-0.063 0.086-0.063 0.149h-0.19c0.002-0.111 0.040-0.2 0.118-0.268s0.178-0.102 0.303-0.102c0.129 0 0.229 0.035 0.302 0.104s0.108 0.164 0.108 0.285c0 0.119-0.055 0.237-0.166 0.353l-0.112 0.11c-0.050 0.055-0.075 0.135-0.075 0.238h-0.19zM20.634 17.924c0-0.031 0.009-0.058 0.028-0.078s0.047-0.032 0.084-0.032 0.065 0.011 0.084 0.032c0.019 0.021 0.029 0.047 0.029 0.078s-0.009 0.057-0.029 0.077c-0.020 0.021-0.048 0.030-0.084 0.030s-0.065-0.010-0.084-0.030-0.028-0.046-0.028-0.077z"></path>
<path fill="#366" d="M18.864 20.317h-7.978c-0.211 0-0.381-0.171-0.381-0.381s0.17-0.381 0.381-0.381h7.978c0.211 0 0.381 0.171 0.381 0.381s-0.17 0.381-0.381 0.381z"></path>
<path fill="#366" d="M21.912 19.937c0 0.631-0.512 1.143-1.143 1.143s-1.143-0.512-1.143-1.143c0-0.631 0.512-1.143 1.143-1.143s1.143 0.512 1.143 1.143z"></path>
<path fill="#fff" d="M20.642 20.264c0.002-0.081 0.011-0.145 0.028-0.192s0.052-0.099 0.104-0.156l0.134-0.138c0.058-0.065 0.086-0.134 0.086-0.208 0-0.072-0.019-0.127-0.056-0.168s-0.092-0.061-0.164-0.061c-0.070 0-0.126 0.019-0.169 0.055s-0.063 0.086-0.063 0.149h-0.19c0.002-0.111 0.040-0.2 0.118-0.268s0.178-0.102 0.303-0.102c0.129 0 0.229 0.035 0.302 0.104s0.108 0.164 0.108 0.285c0 0.119-0.055 0.237-0.166 0.353l-0.112 0.11c-0.050 0.055-0.075 0.135-0.075 0.238h-0.19zM20.634 20.59c0-0.031 0.009-0.058 0.028-0.078s0.047-0.032 0.084-0.032 0.065 0.011 0.084 0.032c0.019 0.021 0.029 0.047 0.029 0.078s-0.009 0.057-0.029 0.077c-0.020 0.021-0.048 0.030-0.084 0.030s-0.065-0.010-0.084-0.030-0.028-0.046-0.028-0.077z"></path>
</svg>
