<!-- Generated by IcoMoon.io -->
<svg version="1.1" xmlns="http://www.w3.org/2000/svg" width="32" height="32" viewBox="0 0 32 32">
<title>hammer</title>
<path fill="#fff" d="M31.993 15.997c0 8.835-7.162 15.997-15.997 15.997s-15.997-7.162-15.997-15.997c0-8.835 7.162-15.997 15.997-15.997s15.997 7.162 15.997 15.997z"></path>
<path fill="#fe4f3e" d="M4.145 16.585l8.65-3.897c0.401 0.902 0.802 1.751 1.297 2.547l-8.149 4.8c-0.949 0.548-2.199 0.201-2.701-0.802-0.548-0.949-0.147-2.199 0.902-2.647zM13.042 21.284h11.598c1.297 0 2.353 1.050 2.353 2.353v1.497h-16.297v-1.497c0-1.297 1.050-2.353 2.353-2.353zM23.845 15.382l-7.5 3.85c-0.301 0.154-0.602 0.047-0.749-0.247l-0.548-1.049c-0.147-0.301-0.053-0.602 0.247-0.749l7.5-3.85c0.301-0.147 0.602-0.047 0.749 0.247l0.548 1.050c0.147 0.247 0.047 0.602-0.247 0.749zM12.527 11.083l6.651-3.449c1.203 1.698 2.152 3.503 2.747 5.502l-6.551 3.403c-1.25-1.698-2.199-3.503-2.848-5.448zM19.546 6.986l-7.5 3.85c-0.301 0.147-0.602 0.047-0.749-0.247l-0.548-1.050c-0.147-0.301-0.047-0.602 0.247-0.749l7.5-3.85c0.301-0.147 0.602-0.047 0.749 0.247l0.548 1.050c0.1 0.247 0 0.602-0.247 0.749z"></path>
</svg>
