<svg id="Не_можете_платить_по_кредитам" data-name="Не можете платить по кредитам" xmlns="http://www.w3.org/2000/svg" width="285" height="125" viewBox="0 0 285 125">
  <defs>
    <style>
      .cls-1 {
        fill: #fff;
        fill-rule: evenodd;
      }
    </style>
  </defs>
  <path id="_404" data-name="404" class="cls-1" d="M147.933,107.463h-6.6A12.361,12.361,0,0,1,128.95,95.078V30.295A12.358,12.358,0,0,1,141.331,17.91h6.6a12.36,12.36,0,0,1,12.381,12.385V95.078a12.359,12.359,0,0,1-12.381,12.385h0ZM147.933,0H136a31.265,31.265,0,0,0-31.239,31.248v62.5A31.264,31.264,0,0,0,136,124.993h17.268a31.262,31.262,0,0,0,31.239-31.249v-62.5A31.262,31.262,0,0,0,153.266,0h-5.333ZM55.371,80.387V32.49C43.683,47.219,33,60.946,21.309,75.673A3.011,3.011,0,0,0,20.9,78.72a2.535,2.535,0,0,0,2.353,1.667H55.371Zm0-76.7h0A20.189,20.189,0,0,1,66.3.01L66.334,0H79.752V80.57h9.977L90,98l-10.248-.083v27.076H55.371V97.917H18.152C10.845,97.917,4.6,93.451,1.626,86.1A21.06,21.06,0,0,1,4.713,64.686L52.129,6.774A21.146,21.146,0,0,1,55.371,3.684Zm195.172,76.7V32.49c-11.688,14.728-22.375,28.455-34.062,43.182a3.01,3.01,0,0,0-.406,3.047,2.533,2.533,0,0,0,2.352,1.667h32.116Zm0-76.7h0A20.188,20.188,0,0,1,261.473.01L261.506,0h13.418V80.57H284.9L285,97.917H274.924v27.076H250.543V97.917H213.324c-7.307,0-13.555-4.466-16.526-11.812a21.061,21.061,0,0,1,3.087-21.418L247.3,6.774A21.165,21.165,0,0,1,250.543,3.684Z"/>
</svg>
