<?xml version="1.0" encoding="UTF-8"?>
<!DOCTYPE svg PUBLIC "-//W3C//DTD SVG 1.1//EN" "http://www.w3.org/Graphics/SVG/1.1/DTD/svg11.dtd">
<!-- Creator: CorelDRAW 2019 (64-Bit) -->
<svg xmlns="http://www.w3.org/2000/svg" xml:space="preserve" width="8.4637mm" height="5.8006mm" version="1.1" style="shape-rendering:geometricPrecision; text-rendering:geometricPrecision; image-rendering:optimizeQuality; fill-rule:evenodd; clip-rule:evenodd"
viewBox="0 0 65.94 45.19"
 xmlns:xlink="http://www.w3.org/1999/xlink"
 xmlns:xodm="http://www.corel.com/coreldraw/odm/2003">
 <defs>
  <style type="text/css">
   <![CDATA[
    .fil0 {fill:white}
   ]]>
  </style>
 </defs>
 <g id="Layer_x0020_1">
  <metadata id="CorelCorpID_0Corel-Layer"/>
  <path class="fil0" d="M1.75 20.81l58.19 0.04 -17.84 -17.83c-0.69,-0.69 -0.69,-1.82 0,-2.5l0 0c0.69,-0.69 1.82,-0.69 2.5,0l20.72 20.72c0.23,0.19 0.4,0.44 0.5,0.71l0 0.01 0.01 0.04 0 0 0.01 0.04 0.01 0.04 0.01 0.03 0 0.01 0.01 0.04 0.01 0.04 0 0.01 0.01 0.03 0.01 0.03 0 0.01 0.01 0.04 0.01 0.06 0 0.03 0 0.03 0 0.01 0 0.04 0 0 0 0.04 0 0.01 0 0.06 0 0.01 -0 0.04 0 0 -0 0.04 -0 0.02 -0 0.03 -0 0.03 -0 0.01 -0.01 0.04 0 0 -0.01 0.04 -0 0.02 -0 0.02 -0.01 0.03 -0 0.01 -0.01 0.04 -0 0 -0.01 0.04 -0 0.02 -0.01 0.02 -0.01 0.03 -0 0.01 -0.01 0.04 -0 0.01 -0.01 0.03 -0.01 0.02 -0.01 0.02 -0.01 0.03 -0 0.01 -0.05 0.1 -0.01 0.02 -0.02 0.04c-0.08,0.14 -0.18,0.28 -0.3,0.39l0 0 -0.06 0.05 -20.76 20.76c-1.65,1.65 -4.15,-0.86 -2.5,-2.5l17.79 -17.79 -58.15 0c-2.33,0 -2.33,-3.54 0,-3.54zm64.19 1.77l0 0z"/>
 </g>
</svg>
