<?xml version="1.0" encoding="UTF-8"?>
<!DOCTYPE svg PUBLIC "-//W3C//DTD SVG 1.1//EN" "http://www.w3.org/Graphics/SVG/1.1/DTD/svg11.dtd">
<!-- Creator: CorelDRAW 2019 (64-Bit) -->
<svg xmlns="http://www.w3.org/2000/svg" xml:space="preserve" width="8.4637mm" height="5.8006mm" version="1.1" style="shape-rendering:geometricPrecision; text-rendering:geometricPrecision; image-rendering:optimizeQuality; fill-rule:evenodd; clip-rule:evenodd"
viewBox="0 0 114.95 78.78"
 xmlns:xlink="http://www.w3.org/1999/xlink"
 xmlns:xodm="http://www.corel.com/coreldraw/odm/2003">
 <defs>
  <style type="text/css">
   <![CDATA[
    .fil0 {fill:#336666}
   ]]>
  </style>
 </defs>
 <g id="Layer_x0020_1">
  <metadata id="CorelCorpID_0Corel-Layer"/>
  <path class="fil0" d="M3.05 36.28l101.43 0.07 -31.09 -31.09c-1.2,-1.2 -1.2,-3.16 0,-4.37l0 0c1.2,-1.2 3.16,-1.2 4.37,0l36.12 36.12c0.4,0.34 0.69,0.77 0.87,1.24l0.01 0.02 0.03 0.07 0 0 0.02 0.07 0.02 0.07 0.01 0.05 0.01 0.02 0.02 0.07 0.02 0.07 0.01 0.02 0.01 0.05 0.01 0.05 0 0.02 0.01 0.07 0.01 0.1 0.01 0.05 0 0.05 0 0.02 0 0.07 0 0 0 0.07 0 0.03 0 0.1 0 0.02 -0 0.07 0 0 -0 0.07 -0 0.03 -0 0.05 -0.01 0.05 -0 0.02 -0.01 0.07 0 0 -0.01 0.07 -0.01 0.03 -0.01 0.04 -0.01 0.05 -0 0.02 -0.02 0.07 -0 0.01 -0.02 0.07 -0.01 0.03 -0.01 0.04 -0.02 0.06 -0 0.01 -0.02 0.07 -0 0.01 -0.02 0.06 -0.01 0.04 -0.01 0.04 -0.03 0.06 -0 0.01 -0.08 0.18 -0.01 0.03 -0.03 0.06c-0.14,0.25 -0.31,0.48 -0.51,0.68l0 0 -0.1 0.1 -36.19 36.19c-2.87,2.87 -7.24,-1.49 -4.37,-4.37l31.02 -31.02 -101.36 0c-4.06,0 -4.06,-6.17 0,-6.17zm111.9 3.09l0 0z"/>
 </g>
</svg>
