<svg xmlns="http://www.w3.org/2000/svg" width="23.997" height="24.556">
    <path d="M9.348 9.993h.461V4.931h2.535V.592a.593.593 0 011.185 0v4.339h2.535v5.293h5.629v12.262h2.3v2.071h-24v-2.071h2.008V8.317h5.2L9.341 9.5v.493zm-3.16-.46H2.962v1.414h3.226zm0 7.692H2.962v1.413h3.226zm0-2.564H2.962v1.417h3.226zm0-2.564H2.962v1.414h3.226zm13.035 6.377h.56a.3.3 0 01.3.3v1.775a.3.3 0 01-.3.3h-.56a.3.3 0 01-.3-.3v-1.775a.3.3 0 01.301-.296zm0-3.386h.56a.3.3 0 01.3.3v1.742a.3.3 0 01-.3.3h-.56a.3.3 0 01-.3-.3v-1.742a.3.3 0 01.301-.3zm0-3.419h.56a.3.3 0 01.3.3v1.775a.3.3 0 01-.3.3h-.56a.3.3 0 01-.3-.3v-1.775a.3.3 0 01.301-.3zm-7.209-5.227h1.811a.408.408 0 01.428.394v1.512a.408.408 0 01-.428.394h-1.811a.38.38 0 01-.395-.394V6.836a.38.38 0 01.396-.394zm-1.909 4.9h1.481a.506.506 0 01.493.493v1.343a.506.506 0 01-.493.493h-1.481a.506.506 0 01-.494-.493V11.83a.506.506 0 01.495-.489zm4.181 0h1.481a.506.506 0 01.494.493v1.343a.506.506 0 01-.494.493h-1.481a.506.506 0 01-.494-.493V11.83a.506.506 0 01.494-.489zm-4.181 3.813h1.481a.506.506 0 01.493.493v1.315a.506.506 0 01-.493.493h-1.481a.506.506 0 01-.494-.493v-1.315a.506.506 0 01.495-.494zm4.181 0h1.481a.506.506 0 01.494.493v1.315a.506.506 0 01-.494.493h-1.481a.506.506 0 01-.494-.493v-1.315a.506.506 0 01.494-.494zm-4.181 3.78h1.481a.506.506 0 01.493.493v1.35a.506.506 0 01-.493.493h-1.481a.506.506 0 01-.494-.493V19.43a.506.506 0 01.495-.496zm4.181 0h1.481a.506.506 0 01.494.493v1.35a.506.506 0 01-.494.493h-1.481a.506.506 0 01-.494-.493V19.43a.506.506 0 01.494-.496z"
          fill="#006160"/>
</svg>
