<svg xmlns="http://www.w3.org/2000/svg" id="_Layer_1" data-name="#Layer 1" viewBox="0 0 341.6 66">
    <defs>
        <style>
            .cls-1{fill:#365d5b;}.cls-1,.cls-2,.cls-3{fill-rule:evenodd;}.cls-2,.cls-4{fill:#416f6e;}.cls-3{fill:#252524;}
        </style>
    </defs>
    <path class="cls-1"
          d="M25.9,35.8H38.7V0H16.4A16.47,16.47,0,0,0,0,16.4V49.2A16.41,16.41,0,0,0,16.4,65.6H38.6V56.3H19.3a6.49,6.49,0,0,1-6.5-6.5V15.9a6.49,6.49,0,0,1,6.5-6.5H27a23.45,23.45,0,0,0-1.1,7.1V35.8ZM57.8,49.3a23.45,23.45,0,0,1-1.1,7.1h7.7a6.49,6.49,0,0,0,6.5-6.5v-34a6.49,6.49,0,0,0-6.5-6.5L45,9.3V0H67.2A16.41,16.41,0,0,1,83.6,16.4V49.2A16.41,16.41,0,0,1,67.2,65.6H45V29.9H57.8Z"/>
    <path class="cls-2"
          d="M122.4,56.3a3,3,0,0,0-2.4-1,3.57,3.57,0,0,0-2.3.8,3.29,3.29,0,0,0-1,2.3H115V55.5h-1.6v7.3H115V59.6h1.6a3.35,3.35,0,0,0,1,2.4,3,3,0,0,0,2.3.9,3.17,3.17,0,0,0,2.5-1,4.1,4.1,0,0,0,.9-2.8,4.67,4.67,0,0,0-.9-2.8Zm-3.8.9a1.71,1.71,0,0,1,2.6,0,3.16,3.16,0,0,1,.4,1.9,3.36,3.36,0,0,1-.4,1.9,1.71,1.71,0,0,1-2.6,0,3.36,3.36,0,0,1-.4-1.9,4.49,4.49,0,0,1,.4-1.9Z"/>
    <path class="cls-2"
          d="M130.9,61.9a5.3,5.3,0,0,0,0-5.6,2.39,2.39,0,0,0-2.1-1,2.53,2.53,0,0,0-2.2,1.1h-.1a8.38,8.38,0,0,1-.2-1H125V66h1.6V63a6.61,6.61,0,0,0-.1-1.1h.1a2.46,2.46,0,0,0,2.2,1,2.39,2.39,0,0,0,2.1-1Zm-1.2-4.7a3.16,3.16,0,0,1,.4,1.9,3.36,3.36,0,0,1-.4,1.9,1.52,1.52,0,0,1-1.2.7,1.68,1.68,0,0,1-1.4-.6,3.16,3.16,0,0,1-.4-1.9V59a2.5,2.5,0,0,1,.4-1.7c.3-.4.7-.5,1.4-.5a1,1,0,0,1,1.2.4Z"/>
    <path class="cls-2"
          d="M133.5,55.4v7.3h1.9l3.7-5.7a4.59,4.59,0,0,1-.1,1v4.7h1.5V55.4h-1.9l-3.7,5.7a15.76,15.76,0,0,0,.1-1.9V55.4Z"/>
    <path class="cls-2"
          d="M149.7,61.6h-1.1V55.5h-4.5a17.36,17.36,0,0,1-.5,3.4,8.45,8.45,0,0,1-1.2,2.7h-.6v3.8h1.4V62.8h5v2.6h1.5V61.6Zm-5.7,0a11.21,11.21,0,0,0,1-2.2,12.82,12.82,0,0,0,.5-2.7h1.6v4.9Z"/>
    <path class="cls-2"
          d="M151.1,55.4v7.3H153l3.7-5.7a4.59,4.59,0,0,1-.1,1v4.7h1.5V55.4h-1.9l-3.7,5.7a15.76,15.76,0,0,0,.1-1.9V55.4Z"/>
    <path class="cls-2"
          d="M160.1,55.4v2.7a2.35,2.35,0,0,0,.6,1.7,2.44,2.44,0,0,0,1.8.6,5.07,5.07,0,0,0,1.3-.2,3.38,3.38,0,0,0,1.2-.6v3.1h1.6V55.4H165v3.1a6.12,6.12,0,0,1-1.2.5,4.1,4.1,0,0,1-1.1.1c-.8,0-1.2-.4-1.2-1.1V55.3h-1.4Z"/>
    <path class="cls-2"
          d="M173.4,62.8a5.64,5.64,0,0,0,1.2-.4V61.1a5.64,5.64,0,0,1-1.2.4,4.87,4.87,0,0,1-1.2.1,1.75,1.75,0,0,1-1.5-.6,2.58,2.58,0,0,1-.6-1.6H175v-.8a3.65,3.65,0,0,0-.8-2.4,3,3,0,0,0-2.3-.9,3.17,3.17,0,0,0-2.5,1,4.1,4.1,0,0,0-.9,2.8,3.45,3.45,0,0,0,3.7,3.7,2.44,2.44,0,0,0,1.2,0Zm-.5-5.9a2,2,0,0,1,.4,1.4H170a2.57,2.57,0,0,1,.5-1.4,1.66,1.66,0,0,1,1.2-.5c.6.1,1,.2,1.2.5Z"/>
    <path class="cls-2"
          d="M180.8,62.8a3.55,3.55,0,0,0,.9-.4V61a4.55,4.55,0,0,1-2,.5,1.68,1.68,0,0,1-1.4-.6,3,3,0,0,1-.5-1.8c0-1.7.6-2.5,1.9-2.5a3.73,3.73,0,0,1,1.6.4l.5-1.2a4.64,4.64,0,0,0-2.1-.4,3.25,3.25,0,0,0-2.6,1,4.2,4.2,0,0,0-.9,2.9,4.1,4.1,0,0,0,.9,2.8,3,3,0,0,0,2.5,1,10.34,10.34,0,0,1,1.2-.3Z"/>
    <polygon class="cls-2"
             points="185 59 185 55.4 183.4 55.4 183.4 62.8 185 62.8 185 59 188.1 62.8 189.9 62.8 186.6 59 189.6 55.4 187.9 55.4 185 59"/>
    <path class="cls-2"
          d="M196.8,62.8V57.9a2.23,2.23,0,0,0-.7-1.9,3.28,3.28,0,0,0-2.1-.6,5.85,5.85,0,0,0-1.3.2,5,5,0,0,0-1.3.5l.5,1.1c.3-.1.7-.3,1-.4a4.25,4.25,0,0,1,1.1-.2,1.05,1.05,0,0,1,1,.4,1.49,1.49,0,0,1,.3,1v.4H194a4.54,4.54,0,0,0-2.6.6,1.88,1.88,0,0,0-.8,1.7,2.09,2.09,0,0,0,2.3,2.3,5.21,5.21,0,0,0,1.4-.2,4.36,4.36,0,0,0,1.1-.9h.1l.3,1h1Zm-4.3-1.4a1,1,0,0,1-.3-.8,1.23,1.23,0,0,1,.5-1,4.58,4.58,0,0,1,1.6-.4h.9v.6a1.73,1.73,0,0,1-.5,1.3,2,2,0,0,1-1.4.5.78.78,0,0,1-.8-.2Z"/>
    <path class="cls-2"
          d="M201.5,59.9H203v2.8h1.6V55.4h-3.3a3,3,0,0,0-2,.6,1.86,1.86,0,0,0-.7,1.6A2.3,2.3,0,0,0,199,59a2.55,2.55,0,0,0,1.2.8l-2,3h1.7l1.6-2.9Zm-1.2-3a1.49,1.49,0,0,1,1-.3H203v2.2h-1.5a2.13,2.13,0,0,1-1.2-.3.91.91,0,0,1-.4-.8,1.51,1.51,0,0,1,.4-.8Z"/>
    <polygon class="cls-2"
             points="211.9 59 211.9 55.4 210.3 55.4 210.3 62.8 211.9 62.8 211.9 59 215 62.8 216.8 62.8 213.5 59 216.6 55.4 214.9 55.4 211.9 59"/>
    <path class="cls-2"
          d="M223.6,56.3a3.17,3.17,0,0,0-2.5-1,3.25,3.25,0,0,0-2.6,1,4.1,4.1,0,0,0-.9,2.8,4.21,4.21,0,0,0,.4,2,3,3,0,0,0,1.2,1.3,3.45,3.45,0,0,0,1.8.5,3.25,3.25,0,0,0,2.6-1,4.81,4.81,0,0,0,0-5.6Zm-4,.9a1.75,1.75,0,0,1,1.4-.7c1.2,0,1.9.8,1.9,2.5s-.6,2.5-1.9,2.5-1.9-.8-1.9-2.5a4.76,4.76,0,0,1,.5-1.8Z"/>
    <path class="cls-2"
          d="M230,59.3l-1.6-3.9h-2.1v7.3h1.4V56.8c.2.7.4,1.4.6,1.9l1.6,4h1.2l1.6-3.9c.1-.3.3-.9.5-1.6l.1-.4v5.9h1.4V55.4h-2.1l-1.6,4c-.1.4-.3.9-.5,1.5l-.1.3a11.78,11.78,0,0,0-.4-1.9Z"/>
    <polygon class="cls-2"
             points="237 55.4 237 62.8 238.6 62.8 238.6 56.7 241.9 56.7 241.9 62.8 243.4 62.8 243.4 55.4 237 55.4"/>
    <path class="cls-2"
          d="M251.4,62.8V57.9a2.23,2.23,0,0,0-.7-1.9,3.28,3.28,0,0,0-2.1-.6,5.85,5.85,0,0,0-1.3.2,5,5,0,0,0-1.3.5l.5,1.1c.3-.1.7-.3,1-.4a4.25,4.25,0,0,1,1.1-.2,1.05,1.05,0,0,1,1,.4,1.49,1.49,0,0,1,.3,1v.4h-1.3a4.54,4.54,0,0,0-2.6.6,1.88,1.88,0,0,0-.8,1.7,2.09,2.09,0,0,0,2.3,2.3,5.21,5.21,0,0,0,1.4-.2,4.36,4.36,0,0,0,1.1-.9h.1l.3,1h1Zm-4.3-1.4a1,1,0,0,1-.3-.8,1.23,1.23,0,0,1,.5-1,4.58,4.58,0,0,1,1.6-.4h.9v.6a1.73,1.73,0,0,1-.5,1.3,2,2,0,0,1-1.4.5.72.72,0,0,1-.8-.2Z"/>
    <polygon class="cls-2"
             points="253.5 55.4 253.5 62.8 255.1 62.8 255.1 59.6 258.5 59.6 258.5 62.8 260.1 62.8 260.1 55.4 258.5 55.4 258.5 58.4 255.1 58.4 255.1 55.4 253.5 55.4"/>
    <path class="cls-2"
          d="M262.3,55.4v7.3h1.9l3.7-5.7a4.59,4.59,0,0,1-.1,1v4.7h1.5V55.4h-1.9l-3.7,5.7a15.76,15.76,0,0,0,.1-1.9V55.4Z"/>
    <path class="cls-2"
          d="M274,59.9h1.5v2.8h1.6V55.4h-3.3a3,3,0,0,0-2,.6,1.86,1.86,0,0,0-.7,1.6,2.3,2.3,0,0,0,.4,1.4,2.55,2.55,0,0,0,1.2.8l-2,3h1.7l1.6-2.9Zm-1.2-3a1.49,1.49,0,0,1,1-.3h1.7v2.2H274a2.13,2.13,0,0,1-1.2-.3.91.91,0,0,1-.4-.8,1.51,1.51,0,0,1,.4-.8Z"/>
    <path class="cls-2"
          d="M335.9,11.9h.5a1.17,1.17,0,0,0,.7-.2.91.91,0,0,0,.3-.7,1.45,1.45,0,0,0-.2-.7,1.55,1.55,0,0,0-.8-.2H336v1.8Zm2.7-1a1.35,1.35,0,0,1-1,1.5l1.6,2.6h-1.4l-1.3-2.3h-.6V15h-1.3V9h1.7a2.65,2.65,0,0,1,1.7.5,1.82,1.82,0,0,1,.6,1.4Z"/>
    <path class="cls-3"
          d="M236,22.9h6.4V40.7H231.2L236,22.9Zm12.2,17.8V17.8H235a4.56,4.56,0,0,0-4.7,3.7c-1.1,4.3-3.6,13.4-5.1,19.1h-3.6V50.7h5.8V45.6H246v5.1h5.8v-10Zm-94.6,5V22.9h8.2V17.8H142.5a3.23,3.23,0,0,0-2.1.8,2.88,2.88,0,0,0-.9,2.1v2.2h8.3V45.7h5.8Zm163.1,0V22.9h13.6V17.8H313.9a3.23,3.23,0,0,0-2.1.8,2.88,2.88,0,0,0-.9,2.1v25h5.8ZM261.6,25a7.26,7.26,0,0,1,5.8-2.4,7.4,7.4,0,0,1,5.8,2.4,10.53,10.53,0,0,1,2.1,6.9,10.24,10.24,0,0,1-2.1,6.8,8.21,8.21,0,0,1-11.6,0c-1.4-1.5-2-3.8-2-6.8a10.7,10.7,0,0,1,2-6.9Zm-4.2,17c2.4,2.5,5.8,3.7,10,3.7s7.5-1.2,10-3.7a14.17,14.17,0,0,0,3.7-10.2c0-4.3-1.2-7.7-3.7-10.3a15.06,15.06,0,0,0-20,0c-2.4,2.5-3.6,5.9-3.6,10.3s1.2,7.8,3.6,10.2Zm-57.2,3.7V22.9h11.5V45.7h5.8V17.8H197.3a3.23,3.23,0,0,0-2.1.8,2.88,2.88,0,0,0-.9,2.1v25h5.9ZM171.4,25a7.12,7.12,0,0,1,5.8-2.4A7.4,7.4,0,0,1,183,25a10.53,10.53,0,0,1,2.1,6.9,10.24,10.24,0,0,1-2.1,6.8,8.21,8.21,0,0,1-11.6,0c-1.4-1.5-2-3.8-2-6.8s.6-5.3,2-6.9Zm-4.2,17c2.4,2.5,5.8,3.7,10,3.7s7.5-1.2,10-3.7a14.17,14.17,0,0,0,3.7-10.2c0-4.3-1.2-7.7-3.7-10.3a15.06,15.06,0,0,0-20,0c-2.4,2.5-3.6,5.9-3.6,10.3s1.2,7.8,3.6,10.2Zm-35.7-6.1a6.47,6.47,0,0,1-2.2,3.7,7.28,7.28,0,0,1-4.3,1.2,6.59,6.59,0,0,1-5.6-2.4c-1.3-1.5-1.9-3.8-1.9-6.6,0-3,.6-5.2,1.9-6.8a7.53,7.53,0,0,1,5.8-2.3,7.07,7.07,0,0,1,4.3,1.2,8.62,8.62,0,0,1,1.4,1.8,2.82,2.82,0,0,0,2.8,1.6h3.5a9.58,9.58,0,0,0-3.4-6.9c-2.1-1.7-4.9-2.5-8.5-2.5-4.4,0-7.7,1.2-10.1,3.6s-3.4,5.8-3.4,10.4,1.1,7.9,3.3,10.3,5.4,3.6,9.7,3.6a14.33,14.33,0,0,0,8.8-2.5,10,10,0,0,0,3.7-7.2h-5.8Zm175-18.1V45.7h-5.8V22.9h-6.4l-6.1,22.8h-6s4.7-17.6,6.4-24.2a4.47,4.47,0,0,1,4.7-3.7Z"/>
    <path class="cls-4"
          d="M336.6,17.1a5,5,0,1,1,5-5A5,5,0,0,1,336.6,17.1Zm0-9.25a4.25,4.25,0,1,0,4.25,4.25A4.25,4.25,0,0,0,336.6,7.84Z"/>
</svg>
