<svg xmlns="http://www.w3.org/2000/svg"
        xmlns:xlink="http://www.w3.org/1999/xlink"
        width="52px" height="45px">
    <path fill-rule="evenodd" opacity="0.149" fill="rgb(255, 255, 255)"
          d="M18.135,0.996 C12.953,0.996 8.888,2.621 5.944,5.910 C2.994,9.198 1.525,14.329 1.525,21.319 L1.525,35.836 L18.595,35.836 L18.607,35.836 L18.607,20.155 L10.363,20.155 C10.363,16.315 10.976,13.460 12.179,11.590 C13.381,9.721 15.364,8.781 18.135,8.781 L18.135,0.996 L18.135,0.996 L18.135,0.996 ZM41.559,0.996 C38.969,0.996 36.662,1.386 34.635,2.184 C32.608,2.983 30.867,4.206 29.441,5.873 C28.016,7.545 26.923,9.667 26.161,12.247 C25.405,14.832 25.023,17.846 25.023,21.319 L25.023,35.836 L42.165,35.836 L42.165,20.155 L33.933,20.155 C33.933,16.315 34.534,13.460 35.737,11.590 C36.939,9.721 38.882,8.781 41.559,8.781 L41.559,0.996 L41.559,0.996 Z"/>
</svg>
