<?xml version="1.0" encoding="UTF-8"?>
<!DOCTYPE svg PUBLIC "-//W3C//DTD SVG 1.1//EN" "http://www.w3.org/Graphics/SVG/1.1/DTD/svg11.dtd">
<!-- Creator: CorelDRAW 2019 (64-Bit) -->
<svg xmlns="http://www.w3.org/2000/svg" xml:space="preserve" width="25.4001mm" height="25.4mm" version="1.1" style="shape-rendering:geometricPrecision; text-rendering:geometricPrecision; image-rendering:optimizeQuality; fill-rule:evenodd; clip-rule:evenodd"
viewBox="0 0 1150.78 1150.77"
 xmlns:xlink="http://www.w3.org/1999/xlink"
 xmlns:xodm="http://www.corel.com/coreldraw/odm/2003">
 <defs>
  <style type="text/css">
   <![CDATA[
    .fil3 {fill:#336666}
    .fil2 {fill:#FE4F3E}
    .fil0 {fill:white}
    .fil1 {fill:white}
   ]]>
  </style>
 </defs>
 <g id="Layer_x0020_1">
  <metadata id="CorelCorpID_0Corel-Layer"/>
  <g id="_2341421632224">
   <path class="fil0" d="M923.11 227.67c92.45,92.45 144.88,216.63 144.88,347.71 0,131.08 -51.06,255.27 -144.88,347.71 -92.45,92.45 -216.63,144.88 -347.71,144.88 -131.08,0 -255.27,-51.06 -347.72,-144.88 -92.45,-93.82 -144.88,-216.63 -144.88,-347.71 0,-131.08 51.06,-255.27 144.88,-347.71 92.45,-93.83 216.64,-144.88 347.72,-144.88 131.08,0 255.27,51.06 347.71,144.88l0 0z"/>
   <path class="fil1" d="M575.39 15.98c-148.79,0 -290.52,58.43 -395.75,163.66 -105.22,105.22 -163.66,246.96 -163.66,395.75 0,148.78 58.44,290.52 163.66,395.75 105.23,105.23 246.96,163.66 395.75,163.66 148.18,0 291.16,-58.38 395.71,-163.62 104.86,-105.56 163.7,-246.88 163.7,-395.78 0,-148.18 -58.38,-291.17 -163.62,-395.71 -105.56,-104.86 -246.88,-163.7 -395.78,-163.7zm0 -15.98c158.68,0 302.18,64.85 407.05,168.34 103.49,103.48 168.34,248.37 168.34,407.05 0,158.68 -64.85,302.18 -168.34,407.05 -103.49,103.49 -248.37,168.34 -407.05,168.34 -158.68,0 -302.19,-64.85 -407.05,-168.34 -103.49,-104.87 -168.34,-248.37 -168.34,-407.05 0,-158.68 64.85,-302.18 168.34,-407.05 104.87,-103.49 248.37,-168.34 407.05,-168.34z"/>
   <g>
    <path class="fil2" d="M796.39 331.67l57.6 0 -79.55 -79.58 0 57.62c0,12.07 9.88,21.96 21.96,21.96z"/>
    <path class="fil3" d="M736.87 389.55l-57.33 0 -57.33 0 -69.86 0c-6.23,0 -11.25,-5.06 -11.25,-11.29 0,-6.23 5.02,-11.29 11.25,-11.29l69.86 0 57.33 0 57.33 0c6.3,0 11.33,5.06 11.33,11.29 0,6.23 -5.02,11.29 -11.33,11.29zm0 64.58l-184.51 0c-6.23,0 -11.25,-5.06 -11.25,-11.29 0,-6.23 5.02,-11.29 11.25,-11.29l184.51 0c6.3,0 11.33,5.06 11.33,11.29 0,6.23 -5.02,11.29 -11.33,11.29zm0 64.58l-184.51 0c-6.23,0 -11.25,-5.06 -11.25,-11.29 0,-6.23 5.02,-11.32 11.25,-11.32l184.51 0c6.3,0 11.33,5.09 11.33,11.32 0,6.23 -5.02,11.29 -11.33,11.29zm0 64.58l-184.51 0c-6.23,0 -11.25,-5.06 -11.25,-11.29 0,-6.27 5.02,-11.33 11.25,-11.33l184.51 0c6.3,0 11.33,5.06 11.33,11.33 0,6.23 -5.02,11.29 -11.33,11.29zm-139.71 64.58l-32.34 0 -12.46 0c-6.23,0 -11.25,-5.09 -11.25,-11.32 0,-6.23 5.02,-11.29 11.25,-11.29l12.46 0 32.34 0c6.23,0 11.32,5.06 11.32,11.29 0,6.23 -5.09,11.32 -11.32,11.32zm156.89 -330.77l0 -65.01 -264.07 0c-14.97,0 -27.23,12.25 -27.23,27.23l0 426c0,14.98 12.26,27.23 27.23,27.23l336.77 0c14.98,0 27.23,-12.26 27.23,-27.23l0 -353.26 -64.97 0c-19.18,0 -34.96,-15.85 -34.96,-34.96zm-407.09 502.53l0 -401.41 -22.94 0c-14.97,0 -27.23,12.25 -27.23,27.23l0 426.01c0,14.97 12.26,27.23 27.23,27.23l336.77 0c14.98,0 27.23,-12.26 27.23,-27.23l0 -24.6 -313.83 0c-14.98,0 -27.23,-12.26 -27.23,-27.23zm80.91 -80.91l0 -401.41 -22.93 0c-14.97,0 -27.23,12.25 -27.23,27.23l0 426.01c0,14.97 12.26,27.23 27.23,27.23l336.77 0c14.98,0 27.23,-12.26 27.23,-27.23l0 -24.6 -313.83 0c-14.98,0 -27.23,-12.25 -27.23,-27.23z"/>
   </g>
  </g>
 </g>
</svg>
