<?xml version="1.0" encoding="UTF-8"?>
<!DOCTYPE svg PUBLIC "-//W3C//DTD SVG 1.1//EN" "http://www.w3.org/Graphics/SVG/1.1/DTD/svg11.dtd">
<!-- Creator: CorelDRAW 2019 (64-Bit) -->
<svg xmlns="http://www.w3.org/2000/svg" xml:space="preserve" width="25.4001mm" height="25.4mm" version="1.1" style="shape-rendering:geometricPrecision; text-rendering:geometricPrecision; image-rendering:optimizeQuality; fill-rule:evenodd; clip-rule:evenodd"
viewBox="0 0 513.79 513.79"
 xmlns:xlink="http://www.w3.org/1999/xlink"
 xmlns:xodm="http://www.corel.com/coreldraw/odm/2003">
 <defs>
  <style type="text/css">
   <![CDATA[
    .fil3 {fill:#336666}
    .fil1 {fill:white}
    .fil0 {fill:white}
    .fil2 {fill:#FE4F3E;fill-rule:nonzero}
    .fil4 {fill:white;fill-rule:nonzero}
   ]]>
  </style>
 </defs>
 <g id="Layer_x0020_1">
  <metadata id="CorelCorpID_0Corel-Layer"/>
  <path class="fil0" d="M256.9 7.13c-66.43,0 -129.71,26.09 -176.69,73.07 -46.98,46.98 -73.07,110.26 -73.07,176.69 0,66.43 26.09,129.71 73.07,176.69 46.98,46.98 110.26,73.07 176.69,73.07 66.16,0 130,-26.06 176.67,-73.05 46.82,-47.13 73.09,-110.23 73.09,-176.71 0,-66.16 -26.07,-130 -73.05,-176.67 -47.13,-46.82 -110.23,-73.09 -176.71,-73.09zm0 -7.13c70.85,0 134.92,28.95 181.74,75.16 46.2,46.2 75.16,110.89 75.16,181.74 0,70.85 -28.95,134.92 -75.16,181.74 -46.2,46.2 -110.89,75.16 -181.74,75.16 -70.85,0 -134.92,-28.95 -181.74,-75.16 -46.2,-46.82 -75.16,-110.89 -75.16,-181.74 0,-70.85 28.95,-134.92 75.16,-181.74 46.82,-46.2 110.89,-75.16 181.74,-75.16z"/>
  <path class="fil1" d="M412.14 101.65c41.28,41.28 64.69,96.72 64.69,155.25 0,58.53 -22.79,113.97 -64.69,155.25 -41.28,41.28 -96.72,64.69 -155.25,64.69 -58.53,0 -113.97,-22.79 -155.25,-64.69 -41.28,-41.89 -64.68,-96.72 -64.68,-155.25 0,-58.53 22.79,-113.97 64.68,-155.25 41.28,-41.89 96.72,-64.69 155.25,-64.69 58.52,0 113.97,22.79 155.25,64.69l0 0z"/>
  <path class="fil2" d="M377.19 188.51l-24.3 -64.28c-2.61,-6.89 -9.33,-11.32 -16.66,-11.23 -2.36,0.03 -4.72,0.45 -6.92,1.3l-191.11 74.2c313.65,0 -0.81,0 239,0z"/>
  <path class="fil3" d="M312.65 188.51l25.4 0 25.57 -9.92 3.75 9.92 9.82 0 -24.3 -64.28c-2.61,-6.89 -9.33,-11.32 -16.66,-11.23 -2.36,0.03 -4.72,0.45 -6.92,1.3l-191.11 74.2 25.39 0 169.04 -65.63c1.15,-0.45 2.36,-0.68 3.58,-0.68 3.53,-0.09 6.77,2.01 8.1,5.31l3.71 9.83 -131.81 51.18 25.39 0 109.67 -42.58 9.1 24.05 -47.71 18.52z"/>
  <path class="fil3" d="M380.68 197l-247.57 0c-9.86,0 -17.86,8 -17.86,17.86l0 139.53c0,9.86 8.01,17.86 17.86,17.86l247.57 0c9.85,0 17.86,-8.01 17.86,-17.86l0 -139.53c0,-9.86 -8,-17.86 -17.86,-17.86z"/>
  <path class="fil4" d="M143.2 265.7c0,4.2 3.4,7.6 7.6,7.6l17.69 0c4.2,0 7.6,-3.4 7.6,-7.6l0 -8.84c0,-4.2 -3.4,-7.6 -7.6,-7.6l-17.69 0c-4.2,0 -7.6,3.4 -7.6,7.6l0 8.84z"/>
  <path class="fil4" d="M370.6 250.23l0 -8.84c0,-4.2 -3.4,-7.6 -7.6,-7.6l-17.69 0c-4.2,0 -7.6,3.4 -7.6,7.6l0 8.84c0,4.2 3.4,7.6 7.6,7.6l17.69 0c4.2,0 7.6,-3.4 7.6,-7.6z"/>
  <path class="fil0" d="M261.49 319.37l0 -8.84c0,-2.54 -2.06,-4.6 -4.59,-4.6 -2.54,0 -4.6,2.06 -4.6,4.6l0 8.84c0,2.54 2.06,4.6 4.6,4.6 2.54,0 4.59,-2.06 4.59,-4.6z"/>
  <path class="fil0" d="M279 305.93c-2.54,0 -4.59,2.06 -4.59,4.6l0 8.84c0,2.54 2.05,4.6 4.59,4.6 2.54,0 4.6,-2.06 4.6,-4.6l0 -8.84c0,-2.54 -2.06,-4.6 -4.6,-4.6z"/>
  <path class="fil0" d="M301.11 305.93c-2.54,0 -4.6,2.06 -4.6,4.6l0 8.84c0,2.54 2.06,4.6 4.6,4.6 2.54,0 4.6,-2.06 4.6,-4.6l0 -8.84c0,-2.54 -2.06,-4.6 -4.6,-4.6z"/>
  <path class="fil0" d="M323.21 305.93c-2.54,0 -4.6,2.06 -4.6,4.6l0 8.84c0,2.54 2.06,4.6 4.6,4.6 2.54,0 4.6,-2.06 4.6,-4.6l0 -8.84c0,-2.54 -2.06,-4.6 -4.6,-4.6z"/>
  <path class="fil0" d="M345.32 305.93c-2.54,0 -4.6,2.06 -4.6,4.6l0 8.84c0,2.54 2.06,4.6 4.6,4.6 2.54,0 4.6,-2.06 4.6,-4.6l0 -8.84c0,-2.54 -2.06,-4.6 -4.6,-4.6z"/>
  <path class="fil0" d="M163.89 310.53l0 8.84c0,2.54 2.05,4.6 4.59,4.6 2.54,0 4.6,-2.06 4.6,-4.6l0 -8.84c0,-2.54 -2.06,-4.6 -4.6,-4.6 -2.54,0 -4.59,2.06 -4.59,4.6z"/>
  <path class="fil0" d="M185.99 319.37c0,2.54 2.05,4.6 4.59,4.6 2.54,0 4.6,-2.06 4.6,-4.6l0 -8.84c0,-2.54 -2.06,-4.6 -4.6,-4.6 -2.54,0 -4.59,2.06 -4.59,4.6l0 8.84z"/>
  <path class="fil0" d="M217.29 319.37l0 -8.84c0,-2.53 -2.06,-4.6 -4.59,-4.6 -2.54,0 -4.6,2.05 -4.6,4.6l0 8.84c0,2.54 2.06,4.6 4.6,4.6 2.54,0 4.59,-2.06 4.59,-4.6z"/>
  <path class="fil0" d="M239.39 319.37l0 -8.84c0,-2.54 -2.06,-4.6 -4.59,-4.6 -2.54,0 -4.6,2.06 -4.6,4.6l0 8.84c0,2.54 2.06,4.6 4.6,4.6 2.54,0 4.59,-2.06 4.59,-4.6z"/>
  <path class="fil0" d="M274.76 344.3c0,-2.54 -2.06,-4.59 -4.6,-4.59l-101.68 0c-2.54,0 -4.59,2.06 -4.59,4.59 0,2.54 2.05,4.6 4.59,4.6l101.68 0c2.54,0 4.6,-2.06 4.6,-4.6z"/>
  <path class="fil0" d="M309.95 214.68l-106.1 0c-2.54,0 -4.6,2.06 -4.6,4.6 0,2.54 2.06,4.6 4.6,4.6l106.1 0c2.54,0 4.59,-2.06 4.59,-4.6 0,-2.54 -2.06,-4.6 -4.59,-4.6z"/>
  <path class="fil0" d="M292.27 232.37l-70.73 0c-2.54,0 -4.59,2.06 -4.59,4.6 0,2.54 2.05,4.6 4.59,4.6l70.73 0c2.54,0 4.6,-2.06 4.6,-4.6 0,-2.54 -2.06,-4.6 -4.6,-4.6z"/>
 </g>
</svg>
