<?xml version="1.0" encoding="UTF-8"?>
<!DOCTYPE svg PUBLIC "-//W3C//DTD SVG 1.1//EN" "http://www.w3.org/Graphics/SVG/1.1/DTD/svg11.dtd">
<!-- Creator: CorelDRAW 2019 (64-Bit) -->
<svg xmlns="http://www.w3.org/2000/svg" xml:space="preserve" width="25.4001mm" height="25.4mm" version="1.1" style="shape-rendering:geometricPrecision; text-rendering:geometricPrecision; image-rendering:optimizeQuality; fill-rule:evenodd; clip-rule:evenodd"
viewBox="0 0 243.84 243.84"
 xmlns:xlink="http://www.w3.org/1999/xlink"
 xmlns:xodm="http://www.corel.com/coreldraw/odm/2003">
 <defs>
  <style type="text/css">
   <![CDATA[
    .fil2 {fill:#336666}
    .fil1 {fill:white}
    .fil0 {fill:white}
    .fil3 {fill:#FE4F3E;fill-rule:nonzero}
   ]]>
  </style>
 </defs>
 <g id="Layer_x0020_1">
  <metadata id="CorelCorpID_0Corel-Layer"/>
  <path class="fil0" d="M121.92 3.39c-31.53,0 -61.56,12.38 -83.86,34.68 -22.3,22.3 -34.68,52.33 -34.68,83.86 0,31.53 12.38,61.56 34.68,83.86 22.3,22.3 52.33,34.68 83.86,34.68 31.4,0 61.7,-12.37 83.85,-34.67 22.22,-22.37 34.69,-52.31 34.69,-83.86 0,-31.4 -12.37,-61.7 -34.67,-83.85 -22.37,-22.22 -52.31,-34.69 -83.86,-34.69zm0 -3.39c33.62,0 64.03,13.74 86.25,35.67 21.93,21.93 35.67,52.63 35.67,86.25 0,33.62 -13.74,64.03 -35.67,86.25 -21.93,21.93 -52.63,35.67 -86.25,35.67 -33.62,0 -64.03,-13.74 -86.25,-35.67 -21.93,-22.22 -35.67,-52.63 -35.67,-86.25 0,-33.62 13.74,-64.03 35.67,-86.25 22.22,-21.93 52.63,-35.67 86.25,-35.67z"/>
  <path class="fil1" d="M195.6 48.24c19.59,19.59 30.7,45.9 30.7,73.68 0,27.78 -10.82,54.09 -30.7,73.68 -19.59,19.59 -45.9,30.7 -73.68,30.7 -27.78,0 -54.09,-10.82 -73.68,-30.7 -19.59,-19.88 -30.7,-45.9 -30.7,-73.68 0,-27.78 10.82,-54.09 30.7,-73.68 19.59,-19.88 45.9,-30.7 73.68,-30.7 27.77,0 54.09,10.82 73.68,30.7l0 0z"/>
  <path class="fil2" d="M180.66 93.06l-117.48 0c-2.41,0 -4.37,-1.96 -4.37,-4.37l0 -20.49 126.22 0 0 20.49c0,2.41 -1.96,4.37 -4.37,4.37zm8.72 82.57l0 -107.42c0,-2.41 -1.96,-4.37 -4.37,-4.37l-126.19 0c-2.41,0 -4.37,1.96 -4.37,4.37l0 107.42c0,2.41 1.96,4.37 4.37,4.37l126.19 0c2.41,0 4.37,-1.96 4.37,-4.37z"/>
  <rect class="fil3" x="101.52" y="158.97" width="41.62" height="11.26" rx="5.63" ry="5.63"/>
  <path class="fil2" d="M68.91 78.37l0 4.36 15.78 0 0 -4.36 -15.78 0zm91.76 0l0 4.36 15.78 0 0 -4.36 -15.78 0zm-22.94 0l0 4.36 15.78 0 0 -4.36 -15.78 0zm-22.94 0l0 4.36 15.78 0 0 -4.36 -15.78 0zm-22.94 0l0 4.36 15.78 0 0 -4.36 -15.78 0z"/>
  <path class="fil0" d="M158.37 111.7l0 -3.02c0,-2.41 -1.96,-4.37 -4.37,-4.37l-64.17 0c-2.41,0 -4.37,1.96 -4.37,4.37l0 3.02c0,2.41 1.96,4.37 4.37,4.37l64.17 0c2.41,0 4.37,-1.96 4.37,-4.37z"/>
  <path class="fil0" d="M158.37 128.49l0 -3.02c0,-2.41 -1.96,-4.37 -4.37,-4.37l-64.17 0c-2.41,0 -4.37,1.96 -4.37,4.37l0 3.02c0,2.41 1.96,4.37 4.37,4.37l64.17 0c2.41,0 4.37,-1.96 4.37,-4.37z"/>
  <path class="fil0" d="M158.37 144.05l0 -3.02c0,-2.41 -1.96,-4.37 -4.37,-4.37l-64.17 0c-2.41,0 -4.37,1.96 -4.37,4.37l0 3.02c0,2.41 1.96,4.37 4.37,4.37l64.17 0c2.41,0 4.37,-1.96 4.37,-4.37z"/>
 </g>
</svg>
