<?xml version="1.0" encoding="UTF-8"?>
<!DOCTYPE svg PUBLIC "-//W3C//DTD SVG 1.1//EN" "http://www.w3.org/Graphics/SVG/1.1/DTD/svg11.dtd">
<!-- Creator: CorelDRAW 2019 (64-Bit) -->
<svg xmlns="http://www.w3.org/2000/svg" xml:space="preserve" width="25.4001mm" height="25.4mm" version="1.1" style="shape-rendering:geometricPrecision; text-rendering:geometricPrecision; image-rendering:optimizeQuality; fill-rule:evenodd; clip-rule:evenodd"
viewBox="0 0 4799.19 4799.17"
 xmlns:xlink="http://www.w3.org/1999/xlink"
 xmlns:xodm="http://www.corel.com/coreldraw/odm/2003">
 <defs>
  <style type="text/css">
   <![CDATA[
    .fil2 {fill:#336666}
    .fil3 {fill:#FE4F3E}
    .fil1 {fill:white}
    .fil0 {fill:white}
   ]]>
  </style>
 </defs>
 <g id="Layer_x0020_1">
  <metadata id="CorelCorpID_0Corel-Layer"/>
  <g id="_2341178706144">
   <path class="fil0" d="M2399.61 66.64c-620.51,0 -1211.6,243.68 -1650.44,682.52 -438.82,438.82 -682.52,1029.93 -682.52,1650.42 0,620.49 243.7,1211.6 682.52,1650.42 438.84,438.84 1029.93,682.52 1650.44,682.52 617.98,0 1214.27,-243.45 1650.27,-682.37 437.31,-440.22 682.67,-1029.59 682.67,-1650.58 0,-617.96 -243.47,-1214.29 -682.37,-1650.27 -440.22,-437.31 -1029.59,-682.67 -1650.58,-682.67zm0 -66.64c661.76,0 1260.22,270.45 1697.55,702.04 431.59,431.57 702.04,1035.79 702.04,1697.55 0,661.76 -270.45,1260.22 -702.04,1697.55 -431.59,431.59 -1035.79,702.04 -1697.55,702.04 -661.78,0 -1260.24,-270.45 -1697.57,-702.04 -431.59,-437.33 -702.04,-1035.79 -702.04,-1697.55 0,-661.76 270.45,-1260.22 702.04,-1697.55 437.33,-431.59 1035.79,-702.04 1697.57,-702.04z"/>
   <path class="fil1" d="M3849.71 949.48c385.54,385.54 604.22,903.44 604.22,1450.11 0,546.67 -212.92,1064.57 -604.22,1450.11 -385.54,385.56 -903.45,604.22 -1450.11,604.22 -546.67,0 -1064.59,-212.92 -1450.13,-604.22 -385.54,-391.28 -604.2,-903.44 -604.2,-1450.11 0,-546.67 212.9,-1064.57 604.2,-1450.11 385.54,-391.3 903.45,-604.22 1450.13,-604.22 546.65,0 1064.57,212.92 1450.11,604.22l0 0z"/>
  </g>
  <g id="_2341178708576">
   <path class="fil2" d="M3267.65 2943.39l-466.11 -138.12c-57.55,-17.25 -120.85,0 -166.88,40.28l-57.55 57.55c-46.03,51.79 -126.59,57.53 -184.13,23.01 -115.1,-69.06 -218.68,-155.37 -310.76,-247.44 -109.32,-109.32 -207.16,-235.93 -287.7,-374.03 -34.54,-57.55 -23.03,-132.36 23.01,-178.38l51.79 -51.79c46.03,-46.05 57.53,-109.34 40.28,-166.89l-161.13 -471.85c-28.78,-92.07 -109.32,-166.88 -201.4,-184.14 -74.82,-17.27 -149.62,-5.76 -212.92,40.28l276.22 627.24 -86.33 40.28 -270.45 -604.22c-28.78,28.78 -57.53,57.55 -80.57,80.57 -17.25,17.25 -34.52,34.52 -46.03,51.79 -149.62,149.61 -207.16,368.29 -143.86,575.45 138.1,385.54 368.29,753.83 667.52,1047.3 276.2,281.96 604.2,494.88 966.73,627.24 63.3,23.01 132.36,34.52 207.16,34.52 149.62,0 293.49,-63.3 391.3,-172.64 17.27,-17.25 40.28,-40.26 57.55,-63.3 51.79,-51.79 97.82,-103.58 138.1,-161.11l-621.47 -149.62 23.01 -92.07 644.51 155.37c17.25,-51.79 17.25,-103.58 0,-149.61 -23.03,-97.84 -97.84,-166.88 -189.91,-195.65z"/>
   <path class="fil2" d="M3451.8 1245.82c-92.07,-46.03 -201.4,-69.04 -304.99,-69.04l0 0c-385.54,0 -696.28,310.74 -696.28,696.28 0,115.09 28.78,230.17 80.57,328.01l-270.45 454.6 575.43 -155.37c345.28,166.88 759.59,23.01 932.23,-322.24 172.62,-345.28 28.76,-759.59 -316.5,-932.23z"/>
   <path class="fil3" d="M2203.09 2471.52l166.88 -328.01c-178.38,-356.76 -40.28,-788.35 316.5,-966.73 46.03,-23.03 97.82,-40.28 143.86,-57.55l-23.01 -92.07c-437.35,115.09 -696.3,558.18 -586.95,995.53 11.51,40.28 23.01,80.55 40.28,120.83l-149.62 287.72 92.07 40.28z"/>
  </g>
 </g>
</svg>
