<?xml version="1.0" encoding="UTF-8"?>
<!DOCTYPE svg PUBLIC "-//W3C//DTD SVG 1.1//EN" "http://www.w3.org/Graphics/SVG/1.1/DTD/svg11.dtd">
<!-- Creator: CorelDRAW 2019 (64-Bit) -->
<svg xmlns="http://www.w3.org/2000/svg" xml:space="preserve" width="25.4001mm" height="25.4mm" version="1.1" style="shape-rendering:geometricPrecision; text-rendering:geometricPrecision; image-rendering:optimizeQuality; fill-rule:evenodd; clip-rule:evenodd"
viewBox="0 0 330.72 330.72"
 xmlns:xlink="http://www.w3.org/1999/xlink"
 xmlns:xodm="http://www.corel.com/coreldraw/odm/2003">
 <defs>
  <style type="text/css">
   <![CDATA[
    .fil3 {fill:#336666}
    .fil2 {fill:#FE4F3E}
    .fil0 {fill:white}
    .fil1 {fill:white}
   ]]>
  </style>
 </defs>
 <g id="Layer_x0020_1">
  <metadata id="CorelCorpID_0Corel-Layer"/>
  <g id="_2342857754512">
   <path class="fil0" d="M265.29 65.43c26.57,26.57 41.64,62.26 41.64,99.93 0,37.67 -14.67,73.36 -41.64,99.93 -26.57,26.57 -62.26,41.64 -99.93,41.64 -37.67,0 -73.36,-14.67 -99.93,-41.64 -26.57,-26.96 -41.64,-62.26 -41.64,-99.93 0,-37.67 14.67,-73.36 41.64,-99.93 26.57,-26.97 62.26,-41.64 99.93,-41.64 37.67,0 73.36,14.67 99.93,41.64l0 0z"/>
   <path class="fil1" d="M165.36 4.59c-42.76,0 -83.49,16.79 -113.74,47.03 -30.24,30.24 -47.03,70.98 -47.03,113.74 0,42.76 16.79,83.49 47.03,113.74 30.24,30.24 70.98,47.03 113.74,47.03 42.59,0 83.68,-16.78 113.72,-47.02 30.14,-30.34 47.04,-70.95 47.04,-113.75 0,-42.59 -16.78,-83.68 -47.02,-113.72 -30.34,-30.14 -70.95,-47.04 -113.75,-47.04zm0 -4.59c45.6,0 86.84,18.64 116.98,48.38 29.74,29.74 48.38,71.38 48.38,116.98 0,45.6 -18.64,86.84 -48.38,116.98 -29.74,29.74 -71.38,48.38 -116.98,48.38 -45.6,0 -86.85,-18.64 -116.98,-48.38 -29.74,-30.14 -48.38,-71.38 -48.38,-116.98 0,-45.6 18.64,-86.84 48.38,-116.98 30.14,-29.74 71.38,-48.38 116.98,-48.38z"/>
   <rect class="fil2" x="99.18" y="165.57" width="16.72" height="11.48"/>
   <rect class="fil2" x="99.18" y="197.88" width="16.72" height="11.45"/>
   <rect class="fil2" x="146.47" y="165.57" width="16.72" height="11.48"/>
   <path class="fil3" d="M218.55 79.24l-127.46 0c-5.92,0 -10.71,4.79 -10.71,10.71l0 24.52 148.91 0 0 -24.52c0,-5.92 -4.82,-10.71 -10.74,-10.71zm-29.88 29.85c-4.2,0 -7.69,-2.79 -8.91,-6.6l-49.89 0c-1.21,3.81 -4.73,6.6 -8.93,6.6 -5.16,0 -9.39,-4.23 -9.39,-9.42 0,-5.18 4.23,-9.39 9.39,-9.39 4.2,0 7.72,2.76 8.93,6.57l49.89 0c1.21,-3.8 4.71,-6.57 8.9,-6.57 5.19,0 9.42,4.2 9.42,9.39 0,5.19 -4.23,9.42 -9.41,9.42z"/>
   <rect class="fil2" x="99.18" y="133.29" width="16.72" height="11.45"/>
   <path class="fil3" d="M80.38 120.11l0 97.3c0,5.92 4.79,10.74 10.71,10.74l66.66 0c-1.1,-4.23 -1.72,-8.65 -1.78,-13.19l-12.34 0c-1.55,0 -2.82,-1.24 -2.82,-2.82l0 -17.08c0,-1.55 1.27,-2.82 2.82,-2.82l16.66 0c1.38,-3.35 3.07,-6.57 5.08,-9.55l-21.73 0c-1.55,0 -2.82,-1.27 -2.82,-2.82l0 -17.11c0,-1.55 1.27,-2.82 2.82,-2.82l22.35 0c1.58,0 2.82,1.27 2.82,2.82l0 15.25c10.46,-12.74 26.32,-20.89 44.05,-20.89 5.72,0 11.22,0.85 16.43,2.42l0 -39.43 -148.91 0zm41.15 92.03c0,1.58 -1.27,2.82 -2.82,2.82l-22.35 0c-1.58,0 -2.82,-1.24 -2.82,-2.82l0 -17.08c0,-1.55 1.24,-2.82 2.82,-2.82l22.35 0c1.55,0 2.82,1.27 2.82,2.82l0 17.08zm0 -32.27c0,1.55 -1.27,2.82 -2.82,2.82l-22.35 0c-1.58,0 -2.82,-1.27 -2.82,-2.82l0 -17.11c0,-1.55 1.24,-2.82 2.82,-2.82l22.35 0c1.55,0 2.82,1.27 2.82,2.82l0 17.11zm0 -32.3c0,1.55 -1.27,2.82 -2.82,2.82l-22.35 0c-1.58,0 -2.82,-1.27 -2.82,-2.82l0 -17.08c0,-1.58 1.24,-2.82 2.82,-2.82l22.35 0c1.55,0 2.82,1.24 2.82,2.82l0 17.08zm47.27 0c0,1.55 -1.24,2.82 -2.82,2.82l-22.35 0c-1.55,0 -2.82,-1.27 -2.82,-2.82l0 -17.08c0,-1.58 1.27,-2.82 2.82,-2.82l22.35 0c1.58,0 2.82,1.24 2.82,2.82l0 17.08zm47.29 0c0,1.55 -1.27,2.82 -2.82,2.82l-22.35 0c-1.55,0 -2.82,-1.27 -2.82,-2.82l0 -17.08c0,-1.58 1.27,-2.82 2.82,-2.82l22.35 0c1.55,0 2.82,1.24 2.82,2.82l0 17.08z"/>
   <path class="fil2" d="M146.45 197.88l0 11.44 9.7 0c0.31,-3.95 1.04,-7.78 2.14,-11.44l-11.84 0z"/>
   <rect class="fil2" x="193.76" y="133.29" width="16.72" height="11.45"/>
   <rect class="fil2" x="146.47" y="133.29" width="16.72" height="11.45"/>
   <circle class="fil3" cx="188.68" cy="99.68" r="3.76"/>
   <circle class="fil3" cx="120.96" cy="99.68" r="3.76"/>
   <path class="fil3" d="M212.85 162.75c-28.24,0 -51.27,22.96 -51.27,51.24 0,28.27 23,51.27 51.27,51.27 28.27,0 51.27,-23 51.27,-51.27 0,-28.24 -22.98,-51.24 -51.27,-51.24zm39.88 54.06l5.62 0c-0.64,10.46 -4.8,19.96 -11.34,27.35l-3.96 -3.96c-1.1,-1.1 -2.88,-1.1 -3.98,0 -1.1,1.1 -1.1,2.88 0,3.98l3.96 3.96c-7.39,6.53 -16.89,10.7 -27.34,11.34l0 -5.62c0,-1.56 -1.26,-2.82 -2.82,-2.82 -1.56,0 -2.82,1.26 -2.82,2.82l0 5.61c-10.46,-0.64 -19.96,-4.8 -27.35,-11.34l3.96 -3.96c1.1,-1.1 1.1,-2.88 0,-3.98 -1.1,-1.1 -2.88,-1.1 -3.98,0l-3.96 3.96c-6.53,-7.39 -10.7,-16.89 -11.34,-27.35l5.61 0c1.56,0 2.82,-1.26 2.82,-2.82 0,-1.56 -1.26,-2.82 -2.82,-2.82l-5.61 0c0.65,-10.46 4.81,-19.95 11.35,-27.34l3.95 3.95c1.1,1.1 2.89,1.1 3.98,0 1.1,-1.1 1.1,-2.88 0,-3.98l-3.95 -3.95c7.39,-6.52 16.88,-10.68 27.34,-11.32l0 5.59c0,1.56 1.26,2.82 2.82,2.82 1.56,0 2.82,-1.26 2.82,-2.82l0 -5.59c10.45,0.64 19.95,4.8 27.34,11.32l-3.95 3.95c-1.1,1.1 -1.1,2.88 0,3.98 1.1,1.1 2.88,1.1 3.98,0l3.95 -3.95c6.54,7.39 10.71,16.88 11.35,27.34l-5.62 0c-1.56,0 -2.82,1.26 -2.82,2.82 -0,1.56 1.26,2.82 2.82,2.82z"/>
   <path class="fil3" d="M242.6 214c0,1.55 -1.27,2.82 -2.82,2.82l-19 0c-1.16,3.27 -4.26,5.64 -7.92,5.64 -4.68,0 -8.46,-3.8 -8.46,-8.45 0,-3.69 2.34,-6.79 5.64,-7.95l0 -20.77c0,-1.58 1.24,-2.82 2.82,-2.82 1.55,0 2.82,1.24 2.82,2.82l0 20.77c2.37,0.85 4.26,2.74 5.1,5.13l19 0c1.55,0 2.82,1.24 2.82,2.82z"/>
  </g>
 </g>
</svg>
