<?xml version="1.0" encoding="UTF-8"?>
<!DOCTYPE svg PUBLIC "-//W3C//DTD SVG 1.1//EN" "http://www.w3.org/Graphics/SVG/1.1/DTD/svg11.dtd">
<!-- Creator: CorelDRAW 2020 (64-Bit) -->
<svg xmlns="http://www.w3.org/2000/svg" xml:space="preserve" width="25.4001mm" height="25.4mm" version="1.1" style="shape-rendering:geometricPrecision; text-rendering:geometricPrecision; image-rendering:optimizeQuality; fill-rule:evenodd; clip-rule:evenodd"
viewBox="0 0 5946.99 5946.97"
 xmlns:xlink="http://www.w3.org/1999/xlink"
 xmlns:xodm="http://www.corel.com/coreldraw/odm/2003">
 <defs>
  <style type="text/css">
   <![CDATA[
    .fil1 {fill:white}
    .fil0 {fill:white}
    .fil2 {fill:#336666;fill-rule:nonzero}
   ]]>
  </style>
 </defs>
 <g id="Layer_x0020_1">
  <metadata id="CorelCorpID_0Corel-Layer"/>
  <g id="_2378756888176">
   <g>
    <path class="fil0" d="M2973.51 82.58c-768.91,0 -1501.37,301.96 -2045.17,845.76 -543.77,543.77 -845.76,1276.26 -845.76,2045.15 0,768.89 301.98,1501.37 845.76,2045.15 543.8,543.8 1276.26,845.76 2045.17,845.76 765.78,0 1504.68,-301.68 2044.96,-845.57 541.9,-545.51 845.94,-1275.83 845.94,-2045.33 0,-765.75 -301.7,-1504.7 -845.57,-2044.96 -545.51,-541.9 -1275.83,-845.94 -2045.33,-845.94zm0 -82.58c820.03,0 1561.62,335.14 2103.54,869.94 534.81,534.78 869.94,1283.51 869.94,2103.54 0,820.03 -335.14,1561.62 -869.94,2103.54 -534.81,534.81 -1283.51,869.94 -2103.54,869.94 -820.05,0 -1561.64,-335.14 -2103.56,-869.94 -534.81,-541.92 -869.94,-1283.51 -869.94,-2103.54 0,-820.03 335.14,-1561.62 869.94,-2103.54 541.92,-534.81 1283.51,-869.94 2103.56,-869.94z"/>
    <path class="fil1" d="M4770.43 1176.56c477.75,477.75 748.73,1119.5 748.73,1796.92 0,677.42 -263.84,1319.17 -748.73,1796.92 -477.75,477.77 -1119.53,748.73 -1796.92,748.73 -677.42,0 -1319.2,-263.84 -1796.94,-748.73 -477.75,-484.87 -748.71,-1119.5 -748.71,-1796.92 0,-677.42 263.82,-1319.17 748.71,-1796.92 477.75,-484.89 1119.53,-748.73 1796.94,-748.73 677.39,0 1319.17,263.84 1796.92,748.73l0 0z"/>
   </g>
   <path class="fil2" d="M3718.35 4049.88l-1484.26 0 0 -312.22 533.24 -538.69c158.11,-161.57 261.17,-273.56 309.24,-336 48.58,-62.44 83.26,-119.95 104.59,-173.47 21.31,-53.01 32.19,-108.03 32.19,-165.02 0,-85.25 -23.79,-148.67 -70.36,-190.3 -47.08,-41.63 -110.02,-62.44 -188.34,-62.44 -82.25,0 -162.04,18.82 -239.35,56.5 -77.8,37.67 -158.58,91.69 -242.84,161.06l-243.83 -288.92c104.56,-88.71 190.79,-151.65 259.7,-188.83 68.88,-36.67 143.71,-64.9 224.98,-84.73 81.78,-19.83 172.46,-29.73 273.07,-29.73 132.82,0 249.77,24.28 351.85,72.35 101.61,48.58 180.4,116.46 236.4,203.7 56.5,86.72 84.24,186.84 84.24,298.82 0,97.63 -16.83,189.32 -51.53,275.06 -34.21,85.74 -87.73,173.45 -159.58,263.63 -72.35,89.72 -199.22,218.07 -381.59,384.59l-273.07 256.7 0 20.32 925.24 0 0 377.63z"/>
  </g>
 </g>
</svg>
