<?xml version="1.0" encoding="UTF-8"?>
<!DOCTYPE svg PUBLIC "-//W3C//DTD SVG 1.1//EN" "http://www.w3.org/Graphics/SVG/1.1/DTD/svg11.dtd">
<!-- Creator: CorelDRAW 2020 (64-Bit) -->
<svg xmlns="http://www.w3.org/2000/svg" xml:space="preserve" width="25.4001mm" height="25.4mm" version="1.1" style="shape-rendering:geometricPrecision; text-rendering:geometricPrecision; image-rendering:optimizeQuality; fill-rule:evenodd; clip-rule:evenodd"
viewBox="0 0 792.5 792.5"
 xmlns:xlink="http://www.w3.org/1999/xlink"
 xmlns:xodm="http://www.corel.com/coreldraw/odm/2003">
 <defs>
  <style type="text/css">
   <![CDATA[
    .fil1 {fill:white}
    .fil0 {fill:white}
    .fil2 {fill:#336666;fill-rule:nonzero}
   ]]>
  </style>
 </defs>
 <g id="Layer_x0020_1">
  <metadata id="CorelCorpID_0Corel-Layer"/>
  <g id="_2378166176592">
   <g>
    <path class="fil0" d="M396.25 11c-102.47,0 -200.07,40.24 -272.54,112.71 -72.46,72.46 -112.71,170.07 -112.71,272.54 0,102.46 40.24,200.07 112.71,272.54 72.47,72.47 170.07,112.71 272.54,112.71 102.05,0 200.51,-40.2 272.51,-112.68 72.21,-72.69 112.73,-170.02 112.73,-272.56 0,-102.04 -40.21,-200.52 -112.68,-272.51 -72.69,-72.21 -170.02,-112.73 -272.56,-112.73zm0 -11c109.28,0 208.1,44.66 280.32,115.93 71.27,71.27 115.93,171.04 115.93,280.32 0,109.28 -44.66,208.1 -115.93,280.32 -71.27,71.27 -171.04,115.93 -280.32,115.93 -109.28,0 -208.11,-44.66 -280.32,-115.93 -71.27,-72.22 -115.93,-171.04 -115.93,-280.32 0,-109.28 44.66,-208.1 115.93,-280.32 72.22,-71.27 171.04,-115.93 280.32,-115.93z"/>
    <path class="fil1" d="M635.71 156.79c63.66,63.66 99.78,149.19 99.78,239.46 0,90.27 -35.16,175.79 -99.78,239.46 -63.66,63.67 -149.19,99.78 -239.46,99.78 -90.27,0 -175.8,-35.16 -239.46,-99.78 -63.66,-64.61 -99.77,-149.19 -99.77,-239.46 0,-90.27 35.16,-175.79 99.77,-239.46 63.66,-64.62 149.19,-99.78 239.46,-99.78 90.27,0 175.79,35.16 239.46,99.78l0 0z"/>
   </g>
   <path class="fil2" d="M438.87 537.71l-59.77 0 0 -163.72 0.6 -26.88 0.92 -29.45c-9.91,9.97 -16.84,16.44 -20.67,19.55l-32.49 26.15 -28.86 -35.99 91.14 -72.58 49.13 0 0 282.92z"/>
  </g>
 </g>
</svg>
