<?xml version="1.0" encoding="UTF-8"?>
<!DOCTYPE svg PUBLIC "-//W3C//DTD SVG 1.1//EN" "http://www.w3.org/Graphics/SVG/1.1/DTD/svg11.dtd">
<!-- Creator: CorelDRAW 2020 (64-Bit) -->
<svg xmlns="http://www.w3.org/2000/svg" xml:space="preserve" width="25.4001mm" height="25.4mm" version="1.1" style="shape-rendering:geometricPrecision; text-rendering:geometricPrecision; image-rendering:optimizeQuality; fill-rule:evenodd; clip-rule:evenodd"
viewBox="0 0 1043.74 1043.73"
 xmlns:xlink="http://www.w3.org/1999/xlink"
 xmlns:xodm="http://www.corel.com/coreldraw/odm/2003">
 <defs>
  <style type="text/css">
   <![CDATA[
    .fil1 {fill:white}
    .fil0 {fill:white}
    .fil2 {fill:#336666;fill-rule:nonzero}
   ]]>
  </style>
 </defs>
 <g id="Layer_x0020_1">
  <metadata id="CorelCorpID_0Corel-Layer"/>
  <g id="_2378972226464">
   <g>
    <path class="fil0" d="M521.87 14.49c-134.95,0 -263.5,53 -358.94,148.44 -95.44,95.44 -148.44,223.99 -148.44,358.94 0,134.95 53,263.5 148.44,358.94 95.44,95.44 223.99,148.44 358.94,148.44 134.4,0 264.08,-52.95 358.9,-148.4 95.11,-95.74 148.47,-223.92 148.47,-358.97 0,-134.39 -52.95,-264.08 -148.4,-358.9 -95.74,-95.11 -223.92,-148.47 -358.97,-148.47zm0 -14.49c143.92,0 274.07,58.82 369.19,152.68 93.86,93.86 152.68,225.27 152.68,369.19 0,143.92 -58.82,274.07 -152.68,369.19 -93.86,93.86 -225.27,152.68 -369.19,152.68 -143.92,0 -274.08,-58.82 -369.19,-152.68 -93.86,-95.11 -152.68,-225.27 -152.68,-369.19 0,-143.92 58.82,-274.07 152.68,-369.19 95.11,-93.86 225.27,-152.68 369.19,-152.68z"/>
    <path class="fil1" d="M837.24 206.49c83.85,83.85 131.41,196.48 131.41,315.37 0,118.89 -46.31,231.52 -131.41,315.37 -83.85,83.85 -196.48,131.41 -315.37,131.41 -118.89,0 -231.53,-46.31 -315.38,-131.41 -83.85,-85.1 -131.4,-196.48 -131.4,-315.37 0,-118.89 46.3,-231.52 131.4,-315.37 83.85,-85.1 196.48,-131.41 315.38,-131.41 118.89,0 231.52,46.31 315.37,131.41l0 0z"/>
   </g>
   <path class="fil2" d="M639.85 418.97c0,23.22 -7.04,43.05 -21.13,59.32 -14.09,16.35 -33.84,27.49 -59.32,33.66l0 1.48c30.01,3.74 52.79,12.87 68.28,27.4 15.48,14.61 23.13,34.18 23.13,58.8 0,35.92 -12.96,63.84 -38.96,83.76 -26.01,20.01 -63.15,30.01 -111.42,30.01 -40.44,0 -76.28,-6.7 -107.5,-20.18l0 -67.14c14.44,7.31 30.27,13.22 47.67,17.83 17.31,4.61 34.44,6.87 51.49,6.87 26.01,0 45.23,-4.44 57.58,-13.22 12.43,-8.87 18.61,-23.05 18.61,-42.53 0,-17.48 -7.13,-29.83 -21.4,-37.14 -14.26,-7.31 -37.05,-10.96 -68.36,-10.96l-28.27 0 0 -60.54 28.79 0c28.97,0 50.01,-3.74 63.41,-11.31 13.31,-7.57 20,-20.53 20,-38.79 0,-28.18 -17.66,-42.27 -53.06,-42.27 -12.26,0 -24.7,2 -37.31,6.09 -12.7,4.08 -26.79,11.13 -42.18,21.13l-36.53 -54.19c34.01,-24.44 74.54,-36.7 121.59,-36.7 38.62,0 69.06,7.83 91.41,23.4 22.35,15.66 33.49,37.4 33.49,65.23z"/>
  </g>
 </g>
</svg>
