<svg version="1.1" xmlns="http://www.w3.org/2000/svg" width="32" height="32" viewBox="0 0 32 32">
    <path fill="#fff"
          d="M16 0c4.412 0 8.403 1.803 11.319 4.681 2.878 2.878 4.681 6.906 4.681 11.319s-1.803 8.403-4.681 11.319c-2.878 2.878-6.906 4.681-11.319 4.681s-8.403-1.803-11.319-4.681c-2.878-2.916-4.681-6.906-4.681-11.319s1.803-8.403 4.681-11.319c2.916-2.878 6.906-4.681 11.319-4.681zM16 0.384c-4.144 0-8.096 1.65-11.050 4.566-2.916 2.954-4.566 6.906-4.566 11.050s1.65 8.096 4.566 11.050c2.954 2.954 6.868 4.566 11.050 4.566s8.096-1.65 11.050-4.566c2.954-2.954 4.566-6.868 4.566-11.050s-1.65-8.096-4.566-11.050c-2.954-2.916-6.906-4.566-11.050-4.566z"></path>
    <path fill="#fff"
          d="M25.669 6.331c2.571 2.571 4.029 6.024 4.029 9.669s-1.42 7.098-4.029 9.669c-2.571 2.571-6.024 4.029-9.669 4.029s-7.098-1.42-9.669-4.029-4.029-6.024-4.029-9.669 1.42-7.098 4.029-9.669c2.571-2.609 6.024-4.029 9.669-4.029s7.098 1.42 9.669 4.029v0z"></path>
    <path fill="#366"
          d="M20.796 20.873l-3.108-0.921c-0.384-0.115-0.806 0-1.113 0.269l-0.384 0.384c-0.307 0.345-0.844 0.384-1.228 0.153-0.767-0.46-1.458-1.036-2.072-1.65-0.729-0.729-1.381-1.573-1.918-2.494-0.23-0.384-0.153-0.883 0.153-1.189l0.345-0.345c0.307-0.307 0.384-0.729 0.269-1.113l-1.074-3.146c-0.192-0.614-0.729-1.113-1.343-1.228-0.499-0.115-0.998-0.038-1.42 0.269l1.842 4.182-0.576 0.269-1.803-4.029c-0.192 0.192-0.384 0.384-0.537 0.537-0.115 0.115-0.23 0.23-0.307 0.345-0.998 0.998-1.381 2.456-0.959 3.837 0.921 2.571 2.456 5.026 4.451 6.983 1.842 1.88 4.029 3.3 6.446 4.182 0.422 0.153 0.883 0.23 1.381 0.23 0.998 0 1.957-0.422 2.609-1.151 0.115-0.115 0.269-0.269 0.384-0.422 0.345-0.345 0.652-0.691 0.921-1.074l-4.144-0.998 0.153-0.614 4.297 1.036c0.115-0.345 0.115-0.691 0-0.998-0.153-0.652-0.652-1.113-1.266-1.305z"></path>
    <path fill="#366"
          d="M22.024 9.554c-0.614-0.307-1.343-0.46-2.034-0.46v0c-2.571 0-4.643 2.072-4.643 4.643 0 0.767 0.192 1.535 0.537 2.187l-1.803 3.031 3.837-1.036c2.302 1.113 5.065 0.153 6.216-2.149s0.192-5.065-2.11-6.216z"></path>
    <path fill="#366"
          d="M13.698 17.727l1.113-2.187c-1.189-2.379-0.269-5.257 2.11-6.446 0.307-0.153 0.652-0.269 0.959-0.384l-0.153-0.614c-2.916 0.767-4.643 3.722-3.914 6.638 0.077 0.269 0.153 0.537 0.269 0.806l-0.998 1.918 0.614 0.269z"></path>
    <path fill="#fe4f3e" d="M5.64 25.362l19.53-19.722 1.381 1.42-19.568 19.683-1.343-1.381z"></path>
</svg>
