<svg version="1.1" xmlns="http://www.w3.org/2000/svg" width="32" height="32" viewBox="0 0 32 32">
    <path fill="#fff"
          d="M16 0c4.412 0 8.403 1.804 11.319 4.681 2.878 2.878 4.681 6.907 4.681 11.319s-1.803 8.403-4.681 11.319c-2.878 2.878-6.907 4.681-11.319 4.681s-8.403-1.803-11.319-4.681c-2.878-2.916-4.681-6.907-4.681-11.319s1.803-8.403 4.681-11.319c2.916-2.878 6.907-4.681 11.319-4.681zM16 0.384c-4.144 0-8.096 1.65-11.050 4.566-2.916 2.955-4.566 6.907-4.566 11.050s1.65 8.096 4.566 11.050c2.955 2.955 6.868 4.566 11.050 4.566s8.096-1.65 11.050-4.566c2.955-2.955 4.566-6.868 4.566-11.050s-1.65-8.096-4.566-11.050c-2.955-2.916-6.907-4.566-11.050-4.566z"></path>
    <path fill="#fff"
          d="M25.669 6.331c2.571 2.571 4.029 6.024 4.029 9.669s-1.42 7.098-4.029 9.669c-2.571 2.571-6.024 4.029-9.669 4.029s-7.098-1.42-9.669-4.029-4.029-6.024-4.029-9.669c0-3.645 1.42-7.098 4.029-9.669 2.571-2.609 6.024-4.029 9.669-4.029s7.098 1.42 9.669 4.029v0z"></path>
    <path fill="#366"
          d="M19.176 5.005c-1.074 0.038-1.918 0.959-1.88 1.995 0 1.013 0.903 1.974 1.957 1.842 1.074-0.038 1.918-0.959 1.88-1.995 0-1.074-0.921-1.88-1.957-1.842z"></path>
    <path fill="#366"
          d="M18.72 9.213c-0.038 0-0.115 0-0.154 0 0.038 0.154 0.038 0.345 0 0.499-0.038 0.115-0.077 0.268-0.115 0.345 0.008 0 0.212-0.189 0.592 0.022 0.197 0.109 0.352 0.295 0.448 0.51 0.077 0.192 0.038 0.461-0.077 0.653s-0.307 0.345-0.499 0.422c-0.422 0.115-0.844 0.154-1.266 0.154-0.077 0-0.154 0-0.307 0 0.038 0.959 0.038 1.995-0.345 3.722 0 0.077-0.038 0.115-0.038 0.192-0.038 0.077-0.038 0.154-0.077 0.268-0.115 0.575-0.192 1.381-0.192 2.571 0 1.343 0.077 3.108 0.384 5.678 0.038 0.537 0.537 0.959 1.074 0.959 0.038 0 0.077 0 0.115 0 0.576-0.077 1.036-0.576 0.959-1.189-0.307-2.456-0.384-4.221-0.384-5.41 0-0.614 0.038-1.113 0.077-1.458 0.461-0.077 0.844-0.422 1.151-1.151 0.576-1.842 0.576-2.916 0.307-4.758-0.268-1.42-0.81-2.068-1.654-2.029z"></path>
    <path fill="#366"
          d="M14.081 10.014c0.038-1.074-0.806-1.957-1.88-1.995s-1.957 0.806-1.995 1.88c-0.038 1.074 0.806 1.957 1.88 1.995 1.074 0 1.957-0.844 1.995-1.88z"></path>
    <path fill="#366"
          d="M14.389 18.417c-0.422-1.957-0.384-3.031-0.345-4.182-0.614 0.192-1.074 0.307-1.189 0.345-0.038 0-0.077 0-0.115 0-0.422 0-0.806-0.345-0.883-0.767-0.038-0.461 0.307-0.921 0.767-0.959v0c0.038 0 0.038 0 0.077 0 0.077 0 0.192-0.038 0.345-0.077s0.384-0.115 0.614-0.192c-0.192-0.307-0.499-0.461-0.883-0.461-0.844-0.038-1.535 0.614-1.803 1.957-0.307 1.842-0.307 2.916 0.307 4.758 0.345 0.767 0.691 1.074 1.151 1.151 0.038 0.384 0.077 0.844 0.077 1.458 0 1.189-0.077 2.955-0.384 5.41-0.077 0.576 0.384 1.113 0.959 1.189 0.038 0 0.077 0 0.115 0 0.537 0 0.997-0.422 1.074-0.959 0.307-2.533 0.384-4.336 0.384-5.678 0-1.419-0.115-2.264-0.307-2.839 0.077-0.038 0.038-0.115 0.038-0.154z"></path>
    <path fill="#366"
          d="M17.304 10.091c0.038 0 0.077 0 0.115 0.038 0.038 0 0.077 0 0.154 0h0.077c0.115 0 0.307 0 0.422-0.038 0.038-0.115 0.077-0.307 0.115-0.422s0.038-0.268 0-0.384c-0.038-0.192-0.192-0.384-0.422-0.461 0 0.038-0.038 0.115-0.077 0.154-0.384 0.729-0.384 1.074-0.384 1.113v0z"></path>
    <path fill="#366"
          d="M15.875 11.348c-0.413 0.477-0.904 0.875-1.451 1.187-0.166 0.1-0.369 0.181-0.521 0.296l-0.018 0.014-0.021 0.009c-0.2 0.086-0.446 0.147-0.629 0.257l-0.024 0.015-0.027 0.007c-0.124 0.031-0.304 0.083-0.43 0.083-0.022 0-0.044 0-0.067 0-0.292 0.034-0.45 0.299-0.398 0.581l0.002 0.013c0.025 0.231 0.234 0.406 0.463 0.406 0.025 0 0.051 0 0.068 0 0.31-0.026 0.843-0.214 1.132-0.334 0.323-0.121 0.633-0.282 0.929-0.447 0.704-0.414 1.339-0.936 1.844-1.577-0.049-0.015-0.096-0.027-0.12-0.035-0.3-0.1-0.517-0.271-0.731-0.476z"></path>
    <path fill="#366"
          d="M16.112 10.772c0.007 0.010 0.013 0.020 0.018 0.032 0.017 0.024 0.025 0.045 0.044 0.077l0.013 0.013 0.011 0.018c0.156 0.249 0.372 0.383 0.652 0.453 0.158 0.039 0.318 0.071 0.476 0.11 0.018 0 0.035 0 0.053 0 0.038 0 0.077 0 0.115 0 0.051 0 0.103 0 0.154 0 0.26 0 0.522-0.028 0.777-0.074 0.086-0.015 0.272-0.065 0.375-0.077 0.274-0.092 0.398-0.365 0.316-0.64-0.086-0.285-0.365-0.417-0.642-0.334-0.1 0.033-0.223 0.048-0.309 0.046-0.078 0.016-0.122 0.040-0.209 0.040-0.125 0-0.254 0.038-0.384 0.038-0.089 0-0.179 0-0.268 0-0.094 0-0.138-0.016-0.192-0.038-0.006 0-0.013 0-0.019 0s-0.013 0-0.019 0h-0.19v-0.19c0-0.038 0-0.077 0-0.115 0-0.387 0.256-0.928 0.449-1.249l0.011-0.019c0-0.072 0.026-0.108 0.038-0.152 0-0.202-0.079-0.356-0.27-0.439-0.24-0.105-0.557-0.046-0.67 0.21l-0.003 0.008-0.004 0.008c-0.282 0.507-0.539 1.117-0.551 1.707 0.081 0.176 0.14 0.383 0.229 0.57z"></path>
    <path fill="#fe4f3e" d="M5.64 25.362l19.53-19.722 1.382 1.42-19.569 19.683z"></path>
</svg>
