<svg version="1.1" xmlns="http://www.w3.org/2000/svg" width="32" height="32" viewBox="0 0 32 32">
    <path fill="#fff"
          d="M16 0c4.413 0 8.403 1.803 11.319 4.681 2.878 2.878 4.681 6.906 4.681 11.319s-1.803 8.403-4.681 11.319c-2.878 2.878-6.906 4.681-11.319 4.681s-8.403-1.803-11.319-4.681c-2.878-2.916-4.681-6.906-4.681-11.319s1.803-8.403 4.681-11.319c2.916-2.878 6.906-4.681 11.319-4.681zM16 0.384c-4.144 0-8.096 1.65-11.050 4.566-2.916 2.954-4.566 6.906-4.566 11.050s1.65 8.096 4.566 11.050c2.954 2.954 6.868 4.566 11.050 4.566s8.096-1.65 11.050-4.566c2.954-2.954 4.566-6.868 4.566-11.050s-1.65-8.096-4.566-11.050c-2.954-2.916-6.906-4.566-11.050-4.566z"></path>
    <path fill="#fff"
          d="M25.669 6.331c2.571 2.571 4.029 6.024 4.029 9.669s-1.42 7.098-4.029 9.669c-2.571 2.571-6.024 4.029-9.669 4.029s-7.098-1.42-9.669-4.029c-2.571-2.609-4.029-6.024-4.029-9.669s1.42-7.098 4.029-9.669c2.571-2.609 6.024-4.029 9.669-4.029s7.098 1.42 9.669 4.029v0z"></path>
    <path fill="#366"
          d="M9.899 15.389v-1.999h-2.287l2.287 1.999zM10.486 7.398v8.504l2.903 2.537h5.221l2.903-2.537v-8.504h-11.028zM19.705 16.238h-7.411v-0.534h7.411v0.534zM19.705 14.142h-7.411v-0.534h7.411v0.534zM19.705 12.046h-7.411v-0.534h7.411v0.534zM19.705 9.951h-7.411v-0.535h7.411v0.535zM12.833 18.733l-5.709-4.99v9.98l5.709-4.99zM13.389 19.027l-5.777 5.050h16.776l-5.777-5.050h-5.221zM19.167 18.733l5.709 4.99v-9.98l-5.709 4.99zM22.101 13.39v1.999l2.287-1.999h-2.287zM24.388 12.803l-2.287-1.999v1.999h2.287zM16 5.472l-1.532 1.339h3.064l-1.532-1.339zM9.899 10.804l-2.287 1.999h2.287v-1.999z"></path>
    <path fill="#fe4f3e" d="M5.64 25.362l19.53-19.722 1.381 1.42-19.569 19.684z"></path>
</svg>
