<svg version="1.1" xmlns="http://www.w3.org/2000/svg" width="32" height="32" viewBox="0 0 32 32">
    <path fill="#fff"
          d="M16 0c4.412 0 8.403 1.803 11.319 4.681 2.878 2.878 4.681 6.906 4.681 11.319s-1.803 8.403-4.681 11.319c-2.878 2.878-6.906 4.681-11.319 4.681s-8.403-1.803-11.319-4.681c-2.878-2.916-4.681-6.906-4.681-11.319s1.803-8.403 4.681-11.319c2.916-2.878 6.906-4.681 11.319-4.681zM16 0.384c-4.144 0-8.096 1.65-11.050 4.566-2.916 2.954-4.566 6.906-4.566 11.050s1.65 8.096 4.566 11.050c2.954 2.954 6.868 4.566 11.050 4.566s8.096-1.65 11.050-4.566c2.954-2.954 4.566-6.868 4.566-11.050s-1.65-8.096-4.566-11.050c-2.954-2.916-6.906-4.566-11.050-4.566z"></path>
    <path fill="#fff"
          d="M25.669 6.331c2.571 2.571 4.029 6.024 4.029 9.669s-1.42 7.098-4.029 9.669c-2.571 2.571-6.024 4.029-9.669 4.029s-7.098-1.42-9.669-4.029-4.029-6.024-4.029-9.669 1.42-7.098 4.029-9.669c2.571-2.609 6.024-4.029 9.669-4.029s7.098 1.42 9.669 4.029v0z"></path>
    <path fill="#366"
          d="M19.031 20.412h-8.48v-10.552h8.48v0.384c0.422-0.115 0.883-0.153 1.343-0.153v-1.727c0-0.422-0.345-0.767-0.767-0.767h-9.631c-0.422 0-0.767 0.345-0.767 0.767v14.427c0 0.422 0.345 0.767 0.767 0.767h9.631c0.422 0 0.767-0.345 0.767-0.767v-2.647c-0.46 0-0.921-0.077-1.343-0.153v0.422zM13.621 8.518h2.379c0.192 0 0.307 0.153 0.307 0.307 0 0.192-0.153 0.307-0.307 0.307h-2.379c-0.192 0-0.307-0.153-0.307-0.307-0.038-0.153 0.115-0.307 0.307-0.307zM14.811 22.561c-0.422 0-0.729-0.345-0.729-0.729 0-0.422 0.345-0.729 0.729-0.729 0.422 0 0.729 0.345 0.729 0.729s-0.345 0.729-0.729 0.729z"></path>
    <path fill="#366"
          d="M20.412 11.242c-2.341 0-4.221 1.727-4.221 3.875 0 0.959 0.384 1.803 0.998 2.494l-0.384 1.381 1.151-0.729c0.691 0.46 1.535 0.729 2.456 0.729 2.341 0 4.221-1.727 4.221-3.875 0.038-2.149-1.88-3.875-4.221-3.875zM18.187 15.693c-0.345 0-0.614-0.269-0.614-0.614s0.269-0.614 0.614-0.614 0.614 0.269 0.614 0.614-0.269 0.614-0.614 0.614zM20.412 15.693c-0.345 0-0.614-0.269-0.614-0.614s0.269-0.614 0.614-0.614 0.614 0.269 0.614 0.614-0.269 0.614-0.614 0.614zM22.638 15.693c-0.345 0-0.614-0.269-0.614-0.614s0.269-0.614 0.614-0.614 0.614 0.269 0.614 0.614-0.269 0.614-0.614 0.614z"></path>
    <path fill="#fe4f3e" d="M5.64 25.362l19.53-19.722 1.381 1.42-19.568 19.683-1.343-1.381z"></path>
</svg>
